<?xml version="1.0" encoding="UTF-8" standalone="no"?><svg xmlns="http://www.w3.org/2000/svg" xmlns:xlink="http://www.w3.org/1999/xlink" contentStyleType="text/css" height="203px" preserveAspectRatio="none" style="width:387px;height:203px;background:#FFFFFF;" version="1.1" viewBox="0 0 387 203" width="387px" zoomAndPan="magnify"><defs/><g><!--MD5=[3546e23d835bdc086f9562d4ec82c375]
cluster Illuminate\\Support--><g id="cluster_Illuminate\\Support"><path d="M8.5,6 L161.5,6 A3.75,3.75 0 0 1 164,8.5 L171,28.2969 L178.5,28.2969 A2.5,2.5 0 0 1 181,30.7969 L181,86.5 A2.5,2.5 0 0 1 178.5,89 L8.5,89 A2.5,2.5 0 0 1 6,86.5 L6,8.5 A2.5,2.5 0 0 1 8.5,6 " fill="none" style="stroke:#000000;stroke-width:1.5;"/><line style="stroke:#000000;stroke-width:1.5;" x1="6" x2="171" y1="28.2969" y2="28.2969"/><text fill="#000000" font-family="sans-serif" font-size="14" font-weight="bold" lengthAdjust="spacing" textLength="152" x="10" y="20.9951">Illuminate\Support</text></g><!--MD5=[975d7fda8cf98ff1a26ca528bf10cecf]
cluster App--><g id="cluster_App"><path d="M8.5,113 L40.5,113 A3.75,3.75 0 0 1 43,115.5 L50,135.2969 L178.5,135.2969 A2.5,2.5 0 0 1 181,137.7969 L181,193.5 A2.5,2.5 0 0 1 178.5,196 L8.5,196 A2.5,2.5 0 0 1 6,193.5 L6,115.5 A2.5,2.5 0 0 1 8.5,113 " fill="none" style="stroke:#000000;stroke-width:1.5;"/><line style="stroke:#000000;stroke-width:1.5;" x1="6" x2="50" y1="135.2969" y2="135.2969"/><text fill="#000000" font-family="sans-serif" font-size="14" font-weight="bold" lengthAdjust="spacing" textLength="31" x="10" y="127.9951">App</text></g><!--MD5=[0349e5d3565dba87b2afc5eabb773289]
cluster 名前空間なし--><g id="cluster_名前空間なし"><path d="M207.5,6 L298.5,6 A3.75,3.75 0 0 1 301,8.5 L308,28.2969 L377.5,28.2969 A2.5,2.5 0 0 1 380,30.7969 L380,86.5 A2.5,2.5 0 0 1 377.5,89 L207.5,89 A2.5,2.5 0 0 1 205,86.5 L205,8.5 A2.5,2.5 0 0 1 207.5,6 " fill="none" style="stroke:#000000;stroke-width:1.5;"/><line style="stroke:#000000;stroke-width:1.5;" x1="205" x2="308" y1="28.2969" y2="28.2969"/><text fill="#000000" font-family="sans-serif" font-size="14" font-weight="bold" lengthAdjust="spacing" textLength="90" x="209" y="20.9951">名前空間なし</text></g><!--MD5=[390f094c044c83d20fccc0b4caa49c94]
class Illuminate\\Support\\Str--><g id="elem_Illuminate\\Support\\Str"><rect codeLine="4" fill="#F1F1F1" height="32" id="Illuminate\\Support\\Str" rx="2.5" ry="2.5" style="stroke:#181818;stroke-width:0.5;" width="54" x="111" y="41"/><ellipse cx="126" cy="57" fill="#ADD1B2" rx="11" ry="11" style="stroke:#181818;stroke-width:1.0;"/><path d="M128.3438,52.6719 C127.4063,52.2344 126.8125,52.0938 125.9375,52.0938 C123.3125,52.0938 121.3125,54.1719 121.3125,56.8906 L121.3125,58.0156 C121.3125,60.5938 123.4219,62.4844 126.3125,62.4844 C127.5313,62.4844 128.6875,62.1875 129.4375,61.6406 C130.0156,61.2344 130.3438,60.7813 130.3438,60.3906 C130.3438,59.9375 129.9531,59.5469 129.4844,59.5469 C129.2656,59.5469 129.0625,59.625 128.875,59.8125 C128.4219,60.2969 128.4219,60.2969 128.2344,60.3906 C127.8125,60.6563 127.125,60.7813 126.3594,60.7813 C124.3125,60.7813 123.0156,59.6875 123.0156,57.9844 L123.0156,56.8906 C123.0156,55.1094 124.2656,53.7969 126,53.7969 C126.5781,53.7969 127.1875,53.9531 127.6563,54.2031 C128.1406,54.4844 128.3125,54.7031 128.4063,55.1094 C128.4688,55.5156 128.5,55.6406 128.6406,55.7656 C128.7813,55.9063 129.0156,56.0156 129.2344,56.0156 C129.5,56.0156 129.7656,55.875 129.9375,55.6563 C130.0469,55.5 130.0781,55.3125 130.0781,54.8906 L130.0781,53.4688 C130.0781,53.0313 130.0625,52.9063 129.9688,52.75 C129.8125,52.4844 129.5313,52.3438 129.2344,52.3438 C128.9375,52.3438 128.7344,52.4375 128.5156,52.75 L128.3438,52.6719 Z " fill="#000000"/><text fill="#000000" font-family="sans-serif" font-size="14" lengthAdjust="spacing" textLength="22" x="140" y="61.8467">Str</text></g><!--MD5=[80cbe4ba8f659cfd89f02bbb2c5d93ff]
class Illuminate\\Support\\Arr--><g id="elem_Illuminate\\Support\\Arr"><rect codeLine="5" fill="#F1F1F1" height="32" id="Illuminate\\Support\\Arr" rx="2.5" ry="2.5" style="stroke:#181818;stroke-width:0.5;" width="54" x="22" y="41"/><ellipse cx="37" cy="57" fill="#ADD1B2" rx="11" ry="11" style="stroke:#181818;stroke-width:1.0;"/><path d="M39.3438,52.6719 C38.4063,52.2344 37.8125,52.0938 36.9375,52.0938 C34.3125,52.0938 32.3125,54.1719 32.3125,56.8906 L32.3125,58.0156 C32.3125,60.5938 34.4219,62.4844 37.3125,62.4844 C38.5313,62.4844 39.6875,62.1875 40.4375,61.6406 C41.0156,61.2344 41.3438,60.7813 41.3438,60.3906 C41.3438,59.9375 40.9531,59.5469 40.4844,59.5469 C40.2656,59.5469 40.0625,59.625 39.875,59.8125 C39.4219,60.2969 39.4219,60.2969 39.2344,60.3906 C38.8125,60.6563 38.125,60.7813 37.3594,60.7813 C35.3125,60.7813 34.0156,59.6875 34.0156,57.9844 L34.0156,56.8906 C34.0156,55.1094 35.2656,53.7969 37,53.7969 C37.5781,53.7969 38.1875,53.9531 38.6563,54.2031 C39.1406,54.4844 39.3125,54.7031 39.4063,55.1094 C39.4688,55.5156 39.5,55.6406 39.6406,55.7656 C39.7813,55.9063 40.0156,56.0156 40.2344,56.0156 C40.5,56.0156 40.7656,55.875 40.9375,55.6563 C41.0469,55.5 41.0781,55.3125 41.0781,54.8906 L41.0781,53.4688 C41.0781,53.0313 41.0625,52.9063 40.9688,52.75 C40.8125,52.4844 40.5313,52.3438 40.2344,52.3438 C39.9375,52.3438 39.7344,52.4375 39.5156,52.75 L39.3438,52.6719 Z " fill="#000000"/><text fill="#000000" font-family="sans-serif" font-size="14" lengthAdjust="spacing" textLength="22" x="51" y="61.8467">Arr</text></g><!--MD5=[4ff8d4665ccba8b8b269c8e5df0ea244]
class App\\Str--><g id="elem_App\\Str"><rect codeLine="6" fill="#F1F1F1" height="32" id="App\\Str" rx="2.5" ry="2.5" style="stroke:#181818;stroke-width:0.5;" width="54" x="111" y="148"/><ellipse cx="126" cy="164" fill="#ADD1B2" rx="11" ry="11" style="stroke:#181818;stroke-width:1.0;"/><path d="M128.3438,159.6719 C127.4063,159.2344 126.8125,159.0938 125.9375,159.0938 C123.3125,159.0938 121.3125,161.1719 121.3125,163.8906 L121.3125,165.0156 C121.3125,167.5938 123.4219,169.4844 126.3125,169.4844 C127.5313,169.4844 128.6875,169.1875 129.4375,168.6406 C130.0156,168.2344 130.3438,167.7813 130.3438,167.3906 C130.3438,166.9375 129.9531,166.5469 129.4844,166.5469 C129.2656,166.5469 129.0625,166.625 128.875,166.8125 C128.4219,167.2969 128.4219,167.2969 128.2344,167.3906 C127.8125,167.6563 127.125,167.7813 126.3594,167.7813 C124.3125,167.7813 123.0156,166.6875 123.0156,164.9844 L123.0156,163.8906 C123.0156,162.1094 124.2656,160.7969 126,160.7969 C126.5781,160.7969 127.1875,160.9531 127.6563,161.2031 C128.1406,161.4844 128.3125,161.7031 128.4063,162.1094 C128.4688,162.5156 128.5,162.6406 128.6406,162.7656 C128.7813,162.9063 129.0156,163.0156 129.2344,163.0156 C129.5,163.0156 129.7656,162.875 129.9375,162.6563 C130.0469,162.5 130.0781,162.3125 130.0781,161.8906 L130.0781,160.4688 C130.0781,160.0313 130.0625,159.9063 129.9688,159.75 C129.8125,159.4844 129.5313,159.3438 129.2344,159.3438 C128.9375,159.3438 128.7344,159.4375 128.5156,159.75 L128.3438,159.6719 Z " fill="#000000"/><text fill="#000000" font-family="sans-serif" font-size="14" lengthAdjust="spacing" textLength="22" x="140" y="168.8467">Str</text></g><!--MD5=[12246294a847dfe234a37561d5657ed1]
class App\\Arr--><g id="elem_App\\Arr"><rect codeLine="7" fill="#F1F1F1" height="32" id="App\\Arr" rx="2.5" ry="2.5" style="stroke:#181818;stroke-width:0.5;" width="54" x="22" y="148"/><ellipse cx="37" cy="164" fill="#ADD1B2" rx="11" ry="11" style="stroke:#181818;stroke-width:1.0;"/><path d="M39.3438,159.6719 C38.4063,159.2344 37.8125,159.0938 36.9375,159.0938 C34.3125,159.0938 32.3125,161.1719 32.3125,163.8906 L32.3125,165.0156 C32.3125,167.5938 34.4219,169.4844 37.3125,169.4844 C38.5313,169.4844 39.6875,169.1875 40.4375,168.6406 C41.0156,168.2344 41.3438,167.7813 41.3438,167.3906 C41.3438,166.9375 40.9531,166.5469 40.4844,166.5469 C40.2656,166.5469 40.0625,166.625 39.875,166.8125 C39.4219,167.2969 39.4219,167.2969 39.2344,167.3906 C38.8125,167.6563 38.125,167.7813 37.3594,167.7813 C35.3125,167.7813 34.0156,166.6875 34.0156,164.9844 L34.0156,163.8906 C34.0156,162.1094 35.2656,160.7969 37,160.7969 C37.5781,160.7969 38.1875,160.9531 38.6563,161.2031 C39.1406,161.4844 39.3125,161.7031 39.4063,162.1094 C39.4688,162.5156 39.5,162.6406 39.6406,162.7656 C39.7813,162.9063 40.0156,163.0156 40.2344,163.0156 C40.5,163.0156 40.7656,162.875 40.9375,162.6563 C41.0469,162.5 41.0781,162.3125 41.0781,161.8906 L41.0781,160.4688 C41.0781,160.0313 41.0625,159.9063 40.9688,159.75 C40.8125,159.4844 40.5313,159.3438 40.2344,159.3438 C39.9375,159.3438 39.7344,159.4375 39.5156,159.75 L39.3438,159.6719 Z " fill="#000000"/><text fill="#000000" font-family="sans-serif" font-size="14" lengthAdjust="spacing" textLength="22" x="51" y="168.8467">Arr</text></g><!--MD5=[d9fa678074f7efba531b512ea1d4e763]
class 名前空間なし\\Str--><g id="elem_名前空間なし\\Str"><rect codeLine="8" fill="#F1F1F1" height="32" id="名前空間なし\\Str" rx="2.5" ry="2.5" style="stroke:#181818;stroke-width:0.5;" width="54" x="310" y="41"/><ellipse cx="325" cy="57" fill="#ADD1B2" rx="11" ry="11" style="stroke:#181818;stroke-width:1.0;"/><path d="M327.3438,52.6719 C326.4063,52.2344 325.8125,52.0938 324.9375,52.0938 C322.3125,52.0938 320.3125,54.1719 320.3125,56.8906 L320.3125,58.0156 C320.3125,60.5938 322.4219,62.4844 325.3125,62.4844 C326.5313,62.4844 327.6875,62.1875 328.4375,61.6406 C329.0156,61.2344 329.3438,60.7813 329.3438,60.3906 C329.3438,59.9375 328.9531,59.5469 328.4844,59.5469 C328.2656,59.5469 328.0625,59.625 327.875,59.8125 C327.4219,60.2969 327.4219,60.2969 327.2344,60.3906 C326.8125,60.6563 326.125,60.7813 325.3594,60.7813 C323.3125,60.7813 322.0156,59.6875 322.0156,57.9844 L322.0156,56.8906 C322.0156,55.1094 323.2656,53.7969 325,53.7969 C325.5781,53.7969 326.1875,53.9531 326.6563,54.2031 C327.1406,54.4844 327.3125,54.7031 327.4063,55.1094 C327.4688,55.5156 327.5,55.6406 327.6406,55.7656 C327.7813,55.9063 328.0156,56.0156 328.2344,56.0156 C328.5,56.0156 328.7656,55.875 328.9375,55.6563 C329.0469,55.5 329.0781,55.3125 329.0781,54.8906 L329.0781,53.4688 C329.0781,53.0313 329.0625,52.9063 328.9688,52.75 C328.8125,52.4844 328.5313,52.3438 328.2344,52.3438 C327.9375,52.3438 327.7344,52.4375 327.5156,52.75 L327.3438,52.6719 Z " fill="#000000"/><text fill="#000000" font-family="sans-serif" font-size="14" lengthAdjust="spacing" textLength="22" x="339" y="61.8467">Str</text></g><!--MD5=[59e49e5fed730eb0ba8f64d369cd7263]
class 名前空間なし\\Arr--><g id="elem_名前空間なし\\Arr"><rect codeLine="9" fill="#F1F1F1" height="32" id="名前空間なし\\Arr" rx="2.5" ry="2.5" style="stroke:#181818;stroke-width:0.5;" width="54" x="221" y="41"/><ellipse cx="236" cy="57" fill="#ADD1B2" rx="11" ry="11" style="stroke:#181818;stroke-width:1.0;"/><path d="M238.3438,52.6719 C237.4063,52.2344 236.8125,52.0938 235.9375,52.0938 C233.3125,52.0938 231.3125,54.1719 231.3125,56.8906 L231.3125,58.0156 C231.3125,60.5938 233.4219,62.4844 236.3125,62.4844 C237.5313,62.4844 238.6875,62.1875 239.4375,61.6406 C240.0156,61.2344 240.3438,60.7813 240.3438,60.3906 C240.3438,59.9375 239.9531,59.5469 239.4844,59.5469 C239.2656,59.5469 239.0625,59.625 238.875,59.8125 C238.4219,60.2969 238.4219,60.2969 238.2344,60.3906 C237.8125,60.6563 237.125,60.7813 236.3594,60.7813 C234.3125,60.7813 233.0156,59.6875 233.0156,57.9844 L233.0156,56.8906 C233.0156,55.1094 234.2656,53.7969 236,53.7969 C236.5781,53.7969 237.1875,53.9531 237.6563,54.2031 C238.1406,54.4844 238.3125,54.7031 238.4063,55.1094 C238.4688,55.5156 238.5,55.6406 238.6406,55.7656 C238.7813,55.9063 239.0156,56.0156 239.2344,56.0156 C239.5,56.0156 239.7656,55.875 239.9375,55.6563 C240.0469,55.5 240.0781,55.3125 240.0781,54.8906 L240.0781,53.4688 C240.0781,53.0313 240.0625,52.9063 239.9688,52.75 C239.8125,52.4844 239.5313,52.3438 239.2344,52.3438 C238.9375,52.3438 238.7344,52.4375 238.5156,52.75 L238.3438,52.6719 Z " fill="#000000"/><text fill="#000000" font-family="sans-serif" font-size="14" lengthAdjust="spacing" textLength="22" x="250" y="61.8467">Arr</text></g><!--MD5=[a6163bc7c85b1b8cf5cf89033f6c1c6d]
link Illuminate\\Support\\Arr to App\\Arr--><!--MD5=[be53418dce1ee1e504b97d860c49717f]
@startuml
hide members

set namespaceSeparator \\
class Illuminate\\Support\\Str 
class Illuminate\\Support\\Arr
class App\\Str
class App\\Arr
class 名前空間なし\\Str
class 名前空間なし\\Arr

Illuminate\\Support\\Arr - -[hidden]> App\\Arr
@enduml

PlantUML version 1.2022.10beta1(Unknown compile time)
(GPL source distribution)
Java Runtime: Java(TM) SE Runtime Environment
JVM: Java HotSpot(TM) 64-Bit Server VM
Default Encoding: UTF-8
Language: en
Country: US
--></g></svg>