<?xml version="1.0" encoding="UTF-8" standalone="no"?><svg xmlns="http://www.w3.org/2000/svg" xmlns:xlink="http://www.w3.org/1999/xlink" contentStyleType="text/css" height="416px" preserveAspectRatio="none" style="width:469px;height:416px;background:#FFFFFF;" version="1.1" viewBox="0 0 469 416" width="469px" zoomAndPan="magnify"><defs/><g><rect fill="#F1F1F1" height="60.8906" rx="5" ry="5" style="stroke:#F1F1F1;stroke-width:1.5;" width="22" x="10" y="148"/><text fill="#000000" font-family="sans-serif" font-size="14" lengthAdjust="spacing" textLength="12" x="15" y="162.9951">   </text><line style="stroke:#000000;stroke-width:1.0;" x1="10" x2="32" y1="168.2969" y2="168.2969"/><text fill="#000000" font-family="sans-serif" font-size="14" lengthAdjust="spacing" textLength="12" x="15" y="183.292">   </text><line style="stroke:#000000;stroke-width:1.0;" x1="10" x2="32" y1="188.5938" y2="188.5938"/><text fill="#000000" font-family="sans-serif" font-size="14" lengthAdjust="spacing" textLength="12" x="15" y="203.5889">   </text><rect fill="none" height="60.8906" rx="5" ry="5" style="stroke:#000000;stroke-width:1.5;" width="22" x="10" y="148"/><rect fill="#F1F1F1" height="81.1875" rx="5" ry="5" style="stroke:#F1F1F1;stroke-width:1.5;" width="139" x="71" y="29"/><text fill="#000000" font-family="sans-serif" font-size="14" font-weight="bold" lengthAdjust="spacing" textLength="15" x="76" y="43.9951">id</text><text fill="#000000" font-family="sans-serif" font-size="14" lengthAdjust="spacing" textLength="9" x="138" y="43.9951">1</text><line style="stroke:#000000;stroke-width:1.0;" x1="133" x2="133" y1="29" y2="49.2969"/><line style="stroke:#000000;stroke-width:1.0;" x1="71" x2="210" y1="49.2969" y2="49.2969"/><text fill="#000000" font-family="sans-serif" font-size="14" font-weight="bold" lengthAdjust="spacing" textLength="44" x="76" y="64.292">name</text><text fill="#000000" font-family="sans-serif" font-size="14" lengthAdjust="spacing" textLength="67" x="138" y="64.292">ALBUM01</text><line style="stroke:#000000;stroke-width:1.0;" x1="133" x2="133" y1="49.2969" y2="69.5938"/><line style="stroke:#000000;stroke-width:1.0;" x1="71" x2="210" y1="69.5938" y2="69.5938"/><text fill="#000000" font-family="sans-serif" font-size="14" font-weight="bold" lengthAdjust="spacing" textLength="37" x="76" y="84.5889">note</text><text fill="#000000" font-family="sans-serif" font-size="14" lengthAdjust="spacing" textLength="57" x="138" y="84.5889">NOTE01</text><line style="stroke:#000000;stroke-width:1.0;" x1="133" x2="133" y1="69.5938" y2="89.8906"/><line style="stroke:#000000;stroke-width:1.0;" x1="71" x2="210" y1="89.8906" y2="89.8906"/><text fill="#000000" font-family="sans-serif" font-size="14" font-weight="bold" lengthAdjust="spacing" textLength="52" x="76" y="104.8857">tracks</text><text fill="#000000" font-family="sans-serif" font-size="14" lengthAdjust="spacing" textLength="12" x="138" y="104.8857">   </text><line style="stroke:#000000;stroke-width:1.0;" x1="133" x2="133" y1="89.8906" y2="110.1875"/><rect fill="none" height="81.1875" rx="5" ry="5" style="stroke:#000000;stroke-width:1.5;" width="139" x="71" y="29"/><rect fill="#F1F1F1" height="60.8906" rx="5" ry="5" style="stroke:#F1F1F1;stroke-width:1.5;" width="22" x="247" y="64"/><text fill="#000000" font-family="sans-serif" font-size="14" lengthAdjust="spacing" textLength="12" x="252" y="78.9951">   </text><line style="stroke:#000000;stroke-width:1.0;" x1="247" x2="269" y1="84.2969" y2="84.2969"/><text fill="#000000" font-family="sans-serif" font-size="14" lengthAdjust="spacing" textLength="12" x="252" y="99.292">   </text><line style="stroke:#000000;stroke-width:1.0;" x1="247" x2="269" y1="104.5938" y2="104.5938"/><text fill="#000000" font-family="sans-serif" font-size="14" lengthAdjust="spacing" textLength="12" x="252" y="119.5889">   </text><rect fill="none" height="60.8906" rx="5" ry="5" style="stroke:#000000;stroke-width:1.5;" width="22" x="247" y="64"/><rect fill="#F1F1F1" height="40.5938" rx="5" ry="5" style="stroke:#F1F1F1;stroke-width:1.5;" width="149" x="308" y="10"/><text fill="#000000" font-family="sans-serif" font-size="14" font-weight="bold" lengthAdjust="spacing" textLength="15" x="313" y="24.9951">id</text><text fill="#000000" font-family="sans-serif" font-size="14" lengthAdjust="spacing" textLength="27" x="367" y="24.9951">101</text><line style="stroke:#000000;stroke-width:1.0;" x1="362" x2="362" y1="10" y2="30.2969"/><line style="stroke:#000000;stroke-width:1.0;" x1="308" x2="457" y1="30.2969" y2="30.2969"/><text fill="#000000" font-family="sans-serif" font-size="14" font-weight="bold" lengthAdjust="spacing" textLength="44" x="313" y="45.292">name</text><text fill="#000000" font-family="sans-serif" font-size="14" lengthAdjust="spacing" textLength="85" x="367" y="45.292">TRACK0101</text><line style="stroke:#000000;stroke-width:1.0;" x1="362" x2="362" y1="30.2969" y2="50.5938"/><rect fill="none" height="40.5938" rx="5" ry="5" style="stroke:#000000;stroke-width:1.5;" width="149" x="308" y="10"/><rect fill="#F1F1F1" height="40.5938" rx="5" ry="5" style="stroke:#F1F1F1;stroke-width:1.5;" width="148" x="308.5" y="69"/><text fill="#000000" font-family="sans-serif" font-size="14" font-weight="bold" lengthAdjust="spacing" textLength="15" x="313.5" y="83.9951">id</text><text fill="#000000" font-family="sans-serif" font-size="14" lengthAdjust="spacing" textLength="26" x="367.5" y="83.9951">102</text><line style="stroke:#000000;stroke-width:1.0;" x1="362.5" x2="362.5" y1="69" y2="89.2969"/><line style="stroke:#000000;stroke-width:1.0;" x1="308.5" x2="456.5" y1="89.2969" y2="89.2969"/><text fill="#000000" font-family="sans-serif" font-size="14" font-weight="bold" lengthAdjust="spacing" textLength="44" x="313.5" y="104.292">name</text><text fill="#000000" font-family="sans-serif" font-size="14" lengthAdjust="spacing" textLength="84" x="367.5" y="104.292">TRACK0102</text><line style="stroke:#000000;stroke-width:1.0;" x1="362.5" x2="362.5" y1="89.2969" y2="109.5938"/><rect fill="none" height="40.5938" rx="5" ry="5" style="stroke:#000000;stroke-width:1.5;" width="148" x="308.5" y="69"/><rect fill="#F1F1F1" height="40.5938" rx="5" ry="5" style="stroke:#F1F1F1;stroke-width:1.5;" width="149" x="308" y="128"/><text fill="#000000" font-family="sans-serif" font-size="14" font-weight="bold" lengthAdjust="spacing" textLength="15" x="313" y="142.9951">id</text><text fill="#000000" font-family="sans-serif" font-size="14" lengthAdjust="spacing" textLength="27" x="367" y="142.9951">103</text><line style="stroke:#000000;stroke-width:1.0;" x1="362" x2="362" y1="128" y2="148.2969"/><line style="stroke:#000000;stroke-width:1.0;" x1="308" x2="457" y1="148.2969" y2="148.2969"/><text fill="#000000" font-family="sans-serif" font-size="14" font-weight="bold" lengthAdjust="spacing" textLength="44" x="313" y="163.292">name</text><text fill="#000000" font-family="sans-serif" font-size="14" lengthAdjust="spacing" textLength="85" x="367" y="163.292">TRACK0103</text><line style="stroke:#000000;stroke-width:1.0;" x1="362" x2="362" y1="148.2969" y2="168.5938"/><rect fill="none" height="40.5938" rx="5" ry="5" style="stroke:#000000;stroke-width:1.5;" width="149" x="308" y="128"/><rect fill="#F1F1F1" height="81.1875" rx="5" ry="5" style="stroke:#F1F1F1;stroke-width:1.5;" width="138" x="71.5" y="137"/><text fill="#000000" font-family="sans-serif" font-size="14" font-weight="bold" lengthAdjust="spacing" textLength="15" x="76.5" y="151.9951">id</text><text fill="#000000" font-family="sans-serif" font-size="14" lengthAdjust="spacing" textLength="8" x="138.5" y="151.9951">2</text><line style="stroke:#000000;stroke-width:1.0;" x1="133.5" x2="133.5" y1="137" y2="157.2969"/><line style="stroke:#000000;stroke-width:1.0;" x1="71.5" x2="209.5" y1="157.2969" y2="157.2969"/><text fill="#000000" font-family="sans-serif" font-size="14" font-weight="bold" lengthAdjust="spacing" textLength="44" x="76.5" y="172.292">name</text><text fill="#000000" font-family="sans-serif" font-size="14" lengthAdjust="spacing" textLength="66" x="138.5" y="172.292">ALBUM02</text><line style="stroke:#000000;stroke-width:1.0;" x1="133.5" x2="133.5" y1="157.2969" y2="177.5938"/><line style="stroke:#000000;stroke-width:1.0;" x1="71.5" x2="209.5" y1="177.5938" y2="177.5938"/><text fill="#000000" font-family="sans-serif" font-size="14" font-weight="bold" lengthAdjust="spacing" textLength="37" x="76.5" y="192.5889">note</text><text fill="#000000" font-family="sans-serif" font-size="14" lengthAdjust="spacing" textLength="56" x="138.5" y="192.5889">NOTE02</text><line style="stroke:#000000;stroke-width:1.0;" x1="133.5" x2="133.5" y1="177.5938" y2="197.8906"/><line style="stroke:#000000;stroke-width:1.0;" x1="71.5" x2="209.5" y1="197.8906" y2="197.8906"/><text fill="#000000" font-family="sans-serif" font-size="14" font-weight="bold" lengthAdjust="spacing" textLength="52" x="76.5" y="212.8857">tracks</text><text fill="#000000" font-family="sans-serif" font-size="14" lengthAdjust="spacing" textLength="12" x="138.5" y="212.8857">   </text><line style="stroke:#000000;stroke-width:1.0;" x1="133.5" x2="133.5" y1="197.8906" y2="218.1875"/><rect fill="none" height="81.1875" rx="5" ry="5" style="stroke:#000000;stroke-width:1.5;" width="138" x="71.5" y="137"/><rect fill="#F1F1F1" height="20.2969" rx="5" ry="5" style="stroke:#F1F1F1;stroke-width:1.5;" width="22" x="247" y="197.5"/><text fill="#000000" font-family="sans-serif" font-size="14" lengthAdjust="spacing" textLength="12" x="252" y="212.4951">   </text><rect fill="none" height="20.2969" rx="5" ry="5" style="stroke:#000000;stroke-width:1.5;" width="22" x="247" y="197.5"/><rect fill="#F1F1F1" height="40.5938" rx="5" ry="5" style="stroke:#F1F1F1;stroke-width:1.5;" width="148" x="308.5" y="187"/><text fill="#000000" font-family="sans-serif" font-size="14" font-weight="bold" lengthAdjust="spacing" textLength="15" x="313.5" y="201.9951">id</text><text fill="#000000" font-family="sans-serif" font-size="14" lengthAdjust="spacing" textLength="26" x="367.5" y="201.9951">201</text><line style="stroke:#000000;stroke-width:1.0;" x1="362.5" x2="362.5" y1="187" y2="207.2969"/><line style="stroke:#000000;stroke-width:1.0;" x1="308.5" x2="456.5" y1="207.2969" y2="207.2969"/><text fill="#000000" font-family="sans-serif" font-size="14" font-weight="bold" lengthAdjust="spacing" textLength="44" x="313.5" y="222.292">name</text><text fill="#000000" font-family="sans-serif" font-size="14" lengthAdjust="spacing" textLength="84" x="367.5" y="222.292">TRACK0201</text><line style="stroke:#000000;stroke-width:1.0;" x1="362.5" x2="362.5" y1="207.2969" y2="227.5938"/><rect fill="none" height="40.5938" rx="5" ry="5" style="stroke:#000000;stroke-width:1.5;" width="148" x="308.5" y="187"/><rect fill="#F1F1F1" height="81.1875" rx="5" ry="5" style="stroke:#F1F1F1;stroke-width:1.5;" width="139" x="71" y="246"/><text fill="#000000" font-family="sans-serif" font-size="14" font-weight="bold" lengthAdjust="spacing" textLength="15" x="76" y="260.9951">id</text><text fill="#000000" font-family="sans-serif" font-size="14" lengthAdjust="spacing" textLength="9" x="138" y="260.9951">3</text><line style="stroke:#000000;stroke-width:1.0;" x1="133" x2="133" y1="246" y2="266.2969"/><line style="stroke:#000000;stroke-width:1.0;" x1="71" x2="210" y1="266.2969" y2="266.2969"/><text fill="#000000" font-family="sans-serif" font-size="14" font-weight="bold" lengthAdjust="spacing" textLength="37" x="76" y="281.292">note</text><text fill="#000000" font-family="sans-serif" font-size="14" lengthAdjust="spacing" textLength="57" x="138" y="281.292">NOTE03</text><line style="stroke:#000000;stroke-width:1.0;" x1="133" x2="133" y1="266.2969" y2="286.5938"/><line style="stroke:#000000;stroke-width:1.0;" x1="71" x2="210" y1="286.5938" y2="286.5938"/><text fill="#000000" font-family="sans-serif" font-size="14" font-weight="bold" lengthAdjust="spacing" textLength="44" x="76" y="301.5889">name</text><text fill="#000000" font-family="sans-serif" font-size="14" lengthAdjust="spacing" textLength="67" x="138" y="301.5889">ALBUM03</text><line style="stroke:#000000;stroke-width:1.0;" x1="133" x2="133" y1="286.5938" y2="306.8906"/><line style="stroke:#000000;stroke-width:1.0;" x1="71" x2="210" y1="306.8906" y2="306.8906"/><text fill="#000000" font-family="sans-serif" font-size="14" font-weight="bold" lengthAdjust="spacing" textLength="52" x="76" y="321.8857">tracks</text><text fill="#000000" font-family="sans-serif" font-size="14" lengthAdjust="spacing" textLength="12" x="138" y="321.8857">   </text><line style="stroke:#000000;stroke-width:1.0;" x1="133" x2="133" y1="306.8906" y2="327.1875"/><rect fill="none" height="81.1875" rx="5" ry="5" style="stroke:#000000;stroke-width:1.5;" width="139" x="71" y="246"/><rect fill="#F1F1F1" height="60.8906" rx="5" ry="5" style="stroke:#F1F1F1;stroke-width:1.5;" width="22" x="247" y="291"/><text fill="#000000" font-family="sans-serif" font-size="14" lengthAdjust="spacing" textLength="12" x="252" y="305.9951">   </text><line style="stroke:#000000;stroke-width:1.0;" x1="247" x2="269" y1="311.2969" y2="311.2969"/><text fill="#000000" font-family="sans-serif" font-size="14" lengthAdjust="spacing" textLength="12" x="252" y="326.292">   </text><line style="stroke:#000000;stroke-width:1.0;" x1="247" x2="269" y1="331.5938" y2="331.5938"/><text fill="#000000" font-family="sans-serif" font-size="14" lengthAdjust="spacing" textLength="12" x="252" y="346.5889">   </text><rect fill="none" height="60.8906" rx="5" ry="5" style="stroke:#000000;stroke-width:1.5;" width="22" x="247" y="291"/><rect fill="#F1F1F1" height="40.5938" rx="5" ry="5" style="stroke:#F1F1F1;stroke-width:1.5;" width="149" x="308" y="246"/><text fill="#000000" font-family="sans-serif" font-size="14" font-weight="bold" lengthAdjust="spacing" textLength="15" x="313" y="260.9951">id</text><text fill="#000000" font-family="sans-serif" font-size="14" lengthAdjust="spacing" textLength="27" x="367" y="260.9951">301</text><line style="stroke:#000000;stroke-width:1.0;" x1="362" x2="362" y1="246" y2="266.2969"/><line style="stroke:#000000;stroke-width:1.0;" x1="308" x2="457" y1="266.2969" y2="266.2969"/><text fill="#000000" font-family="sans-serif" font-size="14" font-weight="bold" lengthAdjust="spacing" textLength="44" x="313" y="281.292">name</text><text fill="#000000" font-family="sans-serif" font-size="14" lengthAdjust="spacing" textLength="85" x="367" y="281.292">TRACK0301</text><line style="stroke:#000000;stroke-width:1.0;" x1="362" x2="362" y1="266.2969" y2="286.5938"/><rect fill="none" height="40.5938" rx="5" ry="5" style="stroke:#000000;stroke-width:1.5;" width="149" x="308" y="246"/><rect fill="#F1F1F1" height="40.5938" rx="5" ry="5" style="stroke:#F1F1F1;stroke-width:1.5;" width="148" x="308.5" y="305"/><text fill="#000000" font-family="sans-serif" font-size="14" font-weight="bold" lengthAdjust="spacing" textLength="44" x="313.5" y="319.9951">name</text><text fill="#000000" font-family="sans-serif" font-size="14" lengthAdjust="spacing" textLength="84" x="367.5" y="319.9951">TRACK0302</text><line style="stroke:#000000;stroke-width:1.0;" x1="362.5" x2="362.5" y1="305" y2="325.2969"/><line style="stroke:#000000;stroke-width:1.0;" x1="308.5" x2="456.5" y1="325.2969" y2="325.2969"/><text fill="#000000" font-family="sans-serif" font-size="14" font-weight="bold" lengthAdjust="spacing" textLength="15" x="313.5" y="340.292">id</text><text fill="#000000" font-family="sans-serif" font-size="14" lengthAdjust="spacing" textLength="26" x="367.5" y="340.292">302</text><line style="stroke:#000000;stroke-width:1.0;" x1="362.5" x2="362.5" y1="325.2969" y2="345.5938"/><rect fill="none" height="40.5938" rx="5" ry="5" style="stroke:#000000;stroke-width:1.5;" width="148" x="308.5" y="305"/><rect fill="#F1F1F1" height="40.5938" rx="5" ry="5" style="stroke:#F1F1F1;stroke-width:1.5;" width="149" x="308" y="364"/><text fill="#000000" font-family="sans-serif" font-size="14" font-weight="bold" lengthAdjust="spacing" textLength="15" x="313" y="378.9951">id</text><text fill="#000000" font-family="sans-serif" font-size="14" lengthAdjust="spacing" textLength="27" x="367" y="378.9951">303</text><line style="stroke:#000000;stroke-width:1.0;" x1="362" x2="362" y1="364" y2="384.2969"/><line style="stroke:#000000;stroke-width:1.0;" x1="308" x2="457" y1="384.2969" y2="384.2969"/><text fill="#000000" font-family="sans-serif" font-size="14" font-weight="bold" lengthAdjust="spacing" textLength="44" x="313" y="399.292">name</text><text fill="#000000" font-family="sans-serif" font-size="14" lengthAdjust="spacing" textLength="85" x="367" y="399.292">TRACK0303</text><line style="stroke:#000000;stroke-width:1.0;" x1="362" x2="362" y1="384.2969" y2="404.5938"/><rect fill="none" height="40.5938" rx="5" ry="5" style="stroke:#000000;stroke-width:1.5;" width="149" x="308" y="364"/><path d="M259,73.5 L272,73.5 C272.1925,73.5 296.4545,64.0204 322.1409,53.963 " fill="none" style="stroke:#000000;stroke-width:1.0;stroke-dasharray:3.0,3.0;"/><path d="M323.2788,56.8685 L324.3201,53.1096 L321.0031,51.0575 L329.4048,51.1184 L323.2788,56.8685 " fill="#000000" style="stroke:#000000;stroke-width:1.0;"/><ellipse cx="259" cy="73.5" fill="#000000" rx="3" ry="3" style="stroke:#000000;stroke-width:1.0;"/><path d="M259,93.5 L272,93.5 C281.5176,93.5 291.4954,93.3486 301.394,93.1047 " fill="none" style="stroke:#000000;stroke-width:1.0;stroke-dasharray:3.0,3.0;"/><path d="M301.4754,96.1228 L303.6575,93.0436 L301.3126,90.0866 L308.9392,92.9012 L301.4754,96.1228 " fill="#000000" style="stroke:#000000;stroke-width:1.0;"/><ellipse cx="259" cy="93.5" fill="#000000" rx="3" ry="3" style="stroke:#000000;stroke-width:1.0;"/><path d="M259,114.5 L272,114.5 C291.2391,114.5 311.5607,119.3062 329.4312,125.3045 " fill="none" style="stroke:#000000;stroke-width:1.0;stroke-dasharray:3.0,3.0;"/><path d="M328.378,128.3039 L331.6808,126.0945 L330.4845,122.3052 L336.9297,127.9377 L328.378,128.3039 " fill="#000000" style="stroke:#000000;stroke-width:1.0;"/><ellipse cx="259" cy="114.5" fill="#000000" rx="3" ry="3" style="stroke:#000000;stroke-width:1.0;"/><path d="M198,99.5 L211,99.5 C220.4258,99.5 230.8461,98.5142 239.5194,97.418 " fill="none" style="stroke:#000000;stroke-width:1.0;stroke-dasharray:3.0,3.0;"/><path d="M239.9419,100.4943 L241.8267,97.1012 L239.0969,94.3417 L247.2102,96.3618 L239.9419,100.4943 " fill="#000000" style="stroke:#000000;stroke-width:1.0;"/><ellipse cx="198" cy="99.5" fill="#000000" rx="3" ry="3" style="stroke:#000000;stroke-width:1.0;"/><path d="M22,157.5 L35,157.5 C35.2324,157.5 60.2889,136.5047 85.8635,115.0244 " fill="none" style="stroke:#000000;stroke-width:1.0;stroke-dasharray:3.0,3.0;"/><path d="M87.8127,117.3449 L87.6038,113.5625 L83.9142,112.704 L91.6645,110.1513 L87.8127,117.3449 " fill="#000000" style="stroke:#000000;stroke-width:1.0;"/><ellipse cx="22" cy="157.5" fill="#000000" rx="3" ry="3" style="stroke:#000000;stroke-width:1.0;"/><path d="M258.6936,207.5 L271.6936,207.5 C279.2394,207.5 289.6519,207.5 301.0872,207.5 " fill="none" style="stroke:#000000;stroke-width:1.0;stroke-dasharray:3.0,3.0;"/><path d="M301.0872,210.557 L303.38,207.5 L301.0872,204.443 L308.7298,207.5 L301.0872,210.557 " fill="#000000" style="stroke:#000000;stroke-width:1.0;"/><ellipse cx="258.6936" cy="207.5" fill="#000000" rx="3" ry="3" style="stroke:#000000;stroke-width:1.0;"/><path d="M198,207.5 L211,207.5 C220.374,207.5 230.7885,207.5 239.4714,207.5 " fill="none" style="stroke:#000000;stroke-width:1.0;stroke-dasharray:3.0,3.0;"/><path d="M239.4714,210.5815 L241.7825,207.5 L239.4714,204.4185 L247.1751,207.5 L239.4714,210.5815 " fill="#000000" style="stroke:#000000;stroke-width:1.0;"/><ellipse cx="198" cy="207.5" fill="#000000" rx="3" ry="3" style="stroke:#000000;stroke-width:1.0;"/><path d="M22,177.5 L35,177.5 C44.5148,177.5 54.5145,177.5 64.406,177.5 " fill="none" style="stroke:#000000;stroke-width:1.0;stroke-dasharray:3.0,3.0;"/><path d="M64.406,180.5132 L66.6659,177.5 L64.406,174.4868 L71.9391,177.5 L64.406,180.5132 " fill="#000000" style="stroke:#000000;stroke-width:1.0;"/><ellipse cx="22" cy="177.5" fill="#000000" rx="3" ry="3" style="stroke:#000000;stroke-width:1.0;"/><path d="M259,300.5 L272,300.5 C281.7054,300.5 299.876,295.6076 318.6929,289.5345 " fill="none" style="stroke:#000000;stroke-width:1.0;stroke-dasharray:3.0,3.0;"/><path d="M319.6818,292.5383 L320.9457,288.7929 L317.7041,286.5308 L326.2023,287.0623 L319.6818,292.5383 " fill="#000000" style="stroke:#000000;stroke-width:1.0;"/><ellipse cx="259" cy="300.5" fill="#000000" rx="3" ry="3" style="stroke:#000000;stroke-width:1.0;"/><path d="M259,320.5 L272,320.5 C281.5211,320.5 291.501,320.6892 301.4009,320.9941 " fill="none" style="stroke:#000000;stroke-width:1.0;stroke-dasharray:3.0,3.0;"/><path d="M301.2991,324.0125 L303.6646,321.0704 L301.5026,317.9757 L308.9468,321.2486 L301.2991,324.0125 " fill="#000000" style="stroke:#000000;stroke-width:1.0;"/><ellipse cx="259" cy="320.5" fill="#000000" rx="3" ry="3" style="stroke:#000000;stroke-width:1.0;"/><path d="M259,341.5 L272,341.5 C272.1925,341.5 296.4545,350.9796 322.1409,361.037 " fill="none" style="stroke:#000000;stroke-width:1.0;stroke-dasharray:3.0,3.0;"/><path d="M321.0031,363.9425 L324.3201,361.8904 L323.2788,358.1315 L329.4048,363.8816 L321.0031,363.9425 " fill="#000000" style="stroke:#000000;stroke-width:1.0;"/><ellipse cx="259" cy="341.5" fill="#000000" rx="3" ry="3" style="stroke:#000000;stroke-width:1.0;"/><path d="M198,316.5 L211,316.5 C220.4258,316.5 230.8461,317.4858 239.5194,318.582 " fill="none" style="stroke:#000000;stroke-width:1.0;stroke-dasharray:3.0,3.0;"/><path d="M239.0969,321.6583 L241.8267,318.8988 L239.9419,315.5057 L247.2102,319.6382 L239.0969,321.6583 " fill="#000000" style="stroke:#000000;stroke-width:1.0;"/><ellipse cx="198" cy="316.5" fill="#000000" rx="3" ry="3" style="stroke:#000000;stroke-width:1.0;"/><path d="M22,198.5 L35,198.5 C36.8588,198.5 61.9529,219.4953 87.1403,240.9756 " fill="none" style="stroke:#000000;stroke-width:1.0;stroke-dasharray:3.0,3.0;"/><path d="M85.1911,243.2581 L88.8522,242.4375 L89.0896,238.693 L92.8467,245.8487 L85.1911,243.2581 " fill="#000000" style="stroke:#000000;stroke-width:1.0;"/><ellipse cx="22" cy="198.5" fill="#000000" rx="3" ry="3" style="stroke:#000000;stroke-width:1.0;"/><!--MD5=[b9a952740bb9c55b81ff662b695d2083]
@startjson
[
    {
        "id": 1,
        "name": "ALBUM01",
        "note": "NOTE01",
        "tracks": [
            {"id": 101, "name": "TRACK0101"},
            {"id": 102, "name": "TRACK0102"},
            {"id": 103, "name": "TRACK0103"}
        ]
    },
    {
        "id" : 2,
        "name" : "ALBUM02",
        "note" : "NOTE02",
        "tracks" : [
            {"id" : 201, "name" : "TRACK0201"}
        ]
    },
    {
        "id" : 3,
        "note" : "NOTE03",
        "name" : "ALBUM03",
        "tracks" : [
            {"id" : 301, "name" : "TRACK0301"},
            {"name" : "TRACK0302", "id" : 302},
            {"id" : 303, "name" : "TRACK0303"}
        ]
    }
]
@endjson

PlantUML version 1.2022.2beta11(Unknown compile time)
(GPL source distribution)
Java Runtime: Java(TM) SE Runtime Environment
JVM: Java HotSpot(TM) 64-Bit Server VM
Default Encoding: UTF-8
Language: en
Country: US
--></g></svg>