<svg aria-roledescription="er" role="graphics-document document" viewBox="0 0 289.859375 430" style="max-width: 100%;" xmlns="http://www.w3.org/2000/svg" width="100%" id="graph-div" height="100%" xmlns:xlink="http://www.w3.org/1999/xlink"><style>@import url("https://cdnjs.cloudflare.com/ajax/libs/font-awesome/6.2.1/css/all.min.css");'</style><style>#graph-div{font-family:"trebuchet ms",verdana,arial,sans-serif;font-size:16px;fill:#333;}#graph-div .error-icon{fill:#552222;}#graph-div .error-text{fill:#552222;stroke:#552222;}#graph-div .edge-thickness-normal{stroke-width:2px;}#graph-div .edge-thickness-thick{stroke-width:3.5px;}#graph-div .edge-pattern-solid{stroke-dasharray:0;}#graph-div .edge-pattern-dashed{stroke-dasharray:3;}#graph-div .edge-pattern-dotted{stroke-dasharray:2;}#graph-div .marker{fill:#333333;stroke:#333333;}#graph-div .marker.cross{stroke:#333333;}#graph-div svg{font-family:"trebuchet ms",verdana,arial,sans-serif;font-size:16px;}#graph-div .entityBox{fill:#ECECFF;stroke:#9370DB;}#graph-div .attributeBoxOdd{fill:#ffffff;stroke:#9370DB;}#graph-div .attributeBoxEven{fill:#f2f2f2;stroke:#9370DB;}#graph-div .relationshipLabelBox{fill:hsl(80, 100%, 96.2745098039%);opacity:0.7;background-color:hsl(80, 100%, 96.2745098039%);}#graph-div .relationshipLabelBox rect{opacity:0.5;}#graph-div .relationshipLine{stroke:#333333;}#graph-div .entityTitleText{text-anchor:middle;font-size:18px;fill:#333;}#graph-div :root{--mermaid-font-family:"trebuchet ms",verdana,arial,sans-serif;}</style><g></g><defs><marker orient="auto" markerHeight="18" markerWidth="18" refY="9" refX="0" id="ONLY_ONE_START"><path d="M9,0 L9,18 M15,0 L15,18" fill="none" stroke="gray"></path></marker></defs><defs><marker orient="auto" markerHeight="18" markerWidth="18" refY="9" refX="18" id="ONLY_ONE_END"><path d="M3,0 L3,18 M9,0 L9,18" fill="none" stroke="gray"></path></marker></defs><defs><marker orient="auto" markerHeight="18" markerWidth="30" refY="9" refX="0" id="ZERO_OR_ONE_START"><circle r="6" cy="9" cx="21" fill="white" stroke="gray"></circle><path d="M9,0 L9,18" fill="none" stroke="gray"></path></marker></defs><defs><marker orient="auto" markerHeight="18" markerWidth="30" refY="9" refX="30" id="ZERO_OR_ONE_END"><circle r="6" cy="9" cx="9" fill="white" stroke="gray"></circle><path d="M21,0 L21,18" fill="none" stroke="gray"></path></marker></defs><defs><marker orient="auto" markerHeight="36" markerWidth="45" refY="18" refX="18" id="ONE_OR_MORE_START"><path d="M0,18 Q 18,0 36,18 Q 18,36 0,18 M42,9 L42,27" fill="none" stroke="gray"></path></marker></defs><defs><marker orient="auto" markerHeight="36" markerWidth="45" refY="18" refX="27" id="ONE_OR_MORE_END"><path d="M3,9 L3,27 M9,18 Q27,0 45,18 Q27,36 9,18" fill="none" stroke="gray"></path></marker></defs><defs><marker orient="auto" markerHeight="36" markerWidth="57" refY="18" refX="18" id="ZERO_OR_MORE_START"><circle r="6" cy="18" cx="48" fill="white" stroke="gray"></circle><path d="M0,18 Q18,0 36,18 Q18,36 0,18" fill="none" stroke="gray"></path></marker></defs><defs><marker orient="auto" markerHeight="36" markerWidth="57" refY="18" refX="39" id="ZERO_OR_MORE_END"><circle r="6" cy="18" cx="9" fill="white" stroke="gray"></circle><path d="M21,18 Q39,0 57,18 Q39,36 21,18" fill="none" stroke="gray"></path></marker></defs><path style="stroke: gray; fill: none;" marker-start="url(#ONLY_ONE_START)" marker-end="url(#ONE_OR_MORE_END)" d="M144.9296875,154L144.9296875,162.33333333333334C144.9296875,170.66666666666666,144.9296875,187.33333333333334,144.9296875,204C144.9296875,220.66666666666666,144.9296875,237.33333333333334,144.9296875,245.66666666666666L144.9296875,254" class="er relationshipLine"></path><g transform="translate(48.23828125,20 )" id="entity-albums-90ff5ae2-b0a1-55f5-9fdb-b94c904af306"><rect height="134" width="193.3828125" y="0" x="0" class="er entityBox"></rect><text style="dominant-baseline: middle; text-anchor: middle; font-size: 12px;" transform="translate(96.69140625,12)" y="0" x="0" id="text-entity-albums-90ff5ae2-b0a1-55f5-9fdb-b94c904af306" class="er entityLabel">albums</text><rect height="22" width="58.671875" y="24" x="0" class="er attributeBoxOdd"></rect><text style="dominant-baseline: middle; font-size: 10.2px;" transform="translate(5,35)" y="0" x="0" id="text-entity-albums-90ff5ae2-b0a1-55f5-9fdb-b94c904af306-attr-1-type" class="er entityLabel">bigint</text><rect height="22" width="62.34375" y="24" x="58.671875" class="er attributeBoxOdd"></rect><text style="dominant-baseline: middle; font-size: 10.2px;" transform="translate(63.671875,35)" y="0" x="0" id="text-entity-albums-90ff5ae2-b0a1-55f5-9fdb-b94c904af306-attr-1-name" class="er entityLabel">id</text><rect height="22" width="21.5625" y="24" x="121.015625" class="er attributeBoxOdd"></rect><text style="dominant-baseline: middle; font-size: 10.2px;" transform="translate(126.015625,35)" y="0" x="0" id="text-entity-albums-90ff5ae2-b0a1-55f5-9fdb-b94c904af306-attr-1-key" class="er entityLabel">PK</text><rect height="22" width="50.8046875" y="24" x="142.578125" class="er attributeBoxOdd"></rect><text style="dominant-baseline: middle; font-size: 10.2px;" transform="translate(147.578125,35)" y="0" x="0" id="text-entity-albums-90ff5ae2-b0a1-55f5-9fdb-b94c904af306-attr-1-comment" class="er entityLabel">ID</text><rect height="22" width="58.671875" y="46" x="0" class="er attributeBoxEven"></rect><text style="dominant-baseline: middle; font-size: 10.2px;" transform="translate(5,57)" y="0" x="0" id="text-entity-albums-90ff5ae2-b0a1-55f5-9fdb-b94c904af306-attr-2-type" class="er entityLabel">varchar</text><rect height="22" width="62.34375" y="46" x="58.671875" class="er attributeBoxEven"></rect><text style="dominant-baseline: middle; font-size: 10.2px;" transform="translate(63.671875,57)" y="0" x="0" id="text-entity-albums-90ff5ae2-b0a1-55f5-9fdb-b94c904af306-attr-2-name" class="er entityLabel">name</text><rect height="22" width="21.5625" y="46" x="121.015625" class="er attributeBoxEven"></rect><text style="dominant-baseline: middle; font-size: 10.2px;" transform="translate(126.015625,57)" y="0" x="0" id="text-entity-albums-90ff5ae2-b0a1-55f5-9fdb-b94c904af306-attr-2-key" class="er entityLabel"></text><rect height="22" width="50.8046875" y="46" x="142.578125" class="er attributeBoxEven"></rect><text style="dominant-baseline: middle; font-size: 10.2px;" transform="translate(147.578125,57)" y="0" x="0" id="text-entity-albums-90ff5ae2-b0a1-55f5-9fdb-b94c904af306-attr-2-comment" class="er entityLabel">名称</text><rect height="22" width="58.671875" y="68" x="0" class="er attributeBoxOdd"></rect><text style="dominant-baseline: middle; font-size: 10.2px;" transform="translate(5,79)" y="0" x="0" id="text-entity-albums-90ff5ae2-b0a1-55f5-9fdb-b94c904af306-attr-3-type" class="er entityLabel">timestamp</text><rect height="22" width="62.34375" y="68" x="58.671875" class="er attributeBoxOdd"></rect><text style="dominant-baseline: middle; font-size: 10.2px;" transform="translate(63.671875,79)" y="0" x="0" id="text-entity-albums-90ff5ae2-b0a1-55f5-9fdb-b94c904af306-attr-3-name" class="er entityLabel">deleted_at</text><rect height="22" width="21.5625" y="68" x="121.015625" class="er attributeBoxOdd"></rect><text style="dominant-baseline: middle; font-size: 10.2px;" transform="translate(126.015625,79)" y="0" x="0" id="text-entity-albums-90ff5ae2-b0a1-55f5-9fdb-b94c904af306-attr-3-key" class="er entityLabel"></text><rect height="22" width="50.8046875" y="68" x="142.578125" class="er attributeBoxOdd"></rect><text style="dominant-baseline: middle; font-size: 10.2px;" transform="translate(147.578125,79)" y="0" x="0" id="text-entity-albums-90ff5ae2-b0a1-55f5-9fdb-b94c904af306-attr-3-comment" class="er entityLabel">削除日時</text><rect height="22" width="58.671875" y="90" x="0" class="er attributeBoxEven"></rect><text style="dominant-baseline: middle; font-size: 10.2px;" transform="translate(5,101)" y="0" x="0" id="text-entity-albums-90ff5ae2-b0a1-55f5-9fdb-b94c904af306-attr-4-type" class="er entityLabel">timestamp</text><rect height="22" width="62.34375" y="90" x="58.671875" class="er attributeBoxEven"></rect><text style="dominant-baseline: middle; font-size: 10.2px;" transform="translate(63.671875,101)" y="0" x="0" id="text-entity-albums-90ff5ae2-b0a1-55f5-9fdb-b94c904af306-attr-4-name" class="er entityLabel">created_at</text><rect height="22" width="21.5625" y="90" x="121.015625" class="er attributeBoxEven"></rect><text style="dominant-baseline: middle; font-size: 10.2px;" transform="translate(126.015625,101)" y="0" x="0" id="text-entity-albums-90ff5ae2-b0a1-55f5-9fdb-b94c904af306-attr-4-key" class="er entityLabel"></text><rect height="22" width="50.8046875" y="90" x="142.578125" class="er attributeBoxEven"></rect><text style="dominant-baseline: middle; font-size: 10.2px;" transform="translate(147.578125,101)" y="0" x="0" id="text-entity-albums-90ff5ae2-b0a1-55f5-9fdb-b94c904af306-attr-4-comment" class="er entityLabel">作成日時</text><rect height="22" width="58.671875" y="112" x="0" class="er attributeBoxOdd"></rect><text style="dominant-baseline: middle; font-size: 10.2px;" transform="translate(5,123)" y="0" x="0" id="text-entity-albums-90ff5ae2-b0a1-55f5-9fdb-b94c904af306-attr-5-type" class="er entityLabel">timestamp</text><rect height="22" width="62.34375" y="112" x="58.671875" class="er attributeBoxOdd"></rect><text style="dominant-baseline: middle; font-size: 10.2px;" transform="translate(63.671875,123)" y="0" x="0" id="text-entity-albums-90ff5ae2-b0a1-55f5-9fdb-b94c904af306-attr-5-name" class="er entityLabel">updated_at</text><rect height="22" width="21.5625" y="112" x="121.015625" class="er attributeBoxOdd"></rect><text style="dominant-baseline: middle; font-size: 10.2px;" transform="translate(126.015625,123)" y="0" x="0" id="text-entity-albums-90ff5ae2-b0a1-55f5-9fdb-b94c904af306-attr-5-key" class="er entityLabel"></text><rect height="22" width="50.8046875" y="112" x="142.578125" class="er attributeBoxOdd"></rect><text style="dominant-baseline: middle; font-size: 10.2px;" transform="translate(147.578125,123)" y="0" x="0" id="text-entity-albums-90ff5ae2-b0a1-55f5-9fdb-b94c904af306-attr-5-comment" class="er entityLabel">更新日時</text></g><g transform="translate(20,254 )" id="entity-tracks-7cb7a4f3-fd45-5cde-b530-acd0eed7ab3e"><rect height="156" width="249.859375" y="0" x="0" class="er entityBox"></rect><text style="dominant-baseline: middle; text-anchor: middle; font-size: 12px;" transform="translate(124.9296875,12)" y="0" x="0" id="text-entity-tracks-7cb7a4f3-fd45-5cde-b530-acd0eed7ab3e" class="er entityLabel">tracks</text><rect height="22" width="58.671875" y="24" x="0" class="er attributeBoxOdd"></rect><text style="dominant-baseline: middle; font-size: 10.2px;" transform="translate(5,35)" y="0" x="0" id="text-entity-tracks-7cb7a4f3-fd45-5cde-b530-acd0eed7ab3e-attr-1-type" class="er entityLabel">bigint</text><rect height="22" width="62.34375" y="24" x="58.671875" class="er attributeBoxOdd"></rect><text style="dominant-baseline: middle; font-size: 10.2px;" transform="translate(63.671875,35)" y="0" x="0" id="text-entity-tracks-7cb7a4f3-fd45-5cde-b530-acd0eed7ab3e-attr-1-name" class="er entityLabel">id</text><rect height="22" width="21.5625" y="24" x="121.015625" class="er attributeBoxOdd"></rect><text style="dominant-baseline: middle; font-size: 10.2px;" transform="translate(126.015625,35)" y="0" x="0" id="text-entity-tracks-7cb7a4f3-fd45-5cde-b530-acd0eed7ab3e-attr-1-key" class="er entityLabel">PK</text><rect height="22" width="107.28125" y="24" x="142.578125" class="er attributeBoxOdd"></rect><text style="dominant-baseline: middle; font-size: 10.2px;" transform="translate(147.578125,35)" y="0" x="0" id="text-entity-tracks-7cb7a4f3-fd45-5cde-b530-acd0eed7ab3e-attr-1-comment" class="er entityLabel">ID</text><rect height="22" width="58.671875" y="46" x="0" class="er attributeBoxEven"></rect><text style="dominant-baseline: middle; font-size: 10.2px;" transform="translate(5,57)" y="0" x="0" id="text-entity-tracks-7cb7a4f3-fd45-5cde-b530-acd0eed7ab3e-attr-2-type" class="er entityLabel">bigint</text><rect height="22" width="62.34375" y="46" x="58.671875" class="er attributeBoxEven"></rect><text style="dominant-baseline: middle; font-size: 10.2px;" transform="translate(63.671875,57)" y="0" x="0" id="text-entity-tracks-7cb7a4f3-fd45-5cde-b530-acd0eed7ab3e-attr-2-name" class="er entityLabel">album_id</text><rect height="22" width="21.5625" y="46" x="121.015625" class="er attributeBoxEven"></rect><text style="dominant-baseline: middle; font-size: 10.2px;" transform="translate(126.015625,57)" y="0" x="0" id="text-entity-tracks-7cb7a4f3-fd45-5cde-b530-acd0eed7ab3e-attr-2-key" class="er entityLabel">FK</text><rect height="22" width="107.28125" y="46" x="142.578125" class="er attributeBoxEven"></rect><text style="dominant-baseline: middle; font-size: 10.2px;" transform="translate(147.578125,57)" y="0" x="0" id="text-entity-tracks-7cb7a4f3-fd45-5cde-b530-acd0eed7ab3e-attr-2-comment" class="er entityLabel">アルバムID:albums.id</text><rect height="22" width="58.671875" y="68" x="0" class="er attributeBoxOdd"></rect><text style="dominant-baseline: middle; font-size: 10.2px;" transform="translate(5,79)" y="0" x="0" id="text-entity-tracks-7cb7a4f3-fd45-5cde-b530-acd0eed7ab3e-attr-3-type" class="er entityLabel">varchar</text><rect height="22" width="62.34375" y="68" x="58.671875" class="er attributeBoxOdd"></rect><text style="dominant-baseline: middle; font-size: 10.2px;" transform="translate(63.671875,79)" y="0" x="0" id="text-entity-tracks-7cb7a4f3-fd45-5cde-b530-acd0eed7ab3e-attr-3-name" class="er entityLabel">name</text><rect height="22" width="21.5625" y="68" x="121.015625" class="er attributeBoxOdd"></rect><text style="dominant-baseline: middle; font-size: 10.2px;" transform="translate(126.015625,79)" y="0" x="0" id="text-entity-tracks-7cb7a4f3-fd45-5cde-b530-acd0eed7ab3e-attr-3-key" class="er entityLabel"></text><rect height="22" width="107.28125" y="68" x="142.578125" class="er attributeBoxOdd"></rect><text style="dominant-baseline: middle; font-size: 10.2px;" transform="translate(147.578125,79)" y="0" x="0" id="text-entity-tracks-7cb7a4f3-fd45-5cde-b530-acd0eed7ab3e-attr-3-comment" class="er entityLabel">名称</text><rect height="22" width="58.671875" y="90" x="0" class="er attributeBoxEven"></rect><text style="dominant-baseline: middle; font-size: 10.2px;" transform="translate(5,101)" y="0" x="0" id="text-entity-tracks-7cb7a4f3-fd45-5cde-b530-acd0eed7ab3e-attr-4-type" class="er entityLabel">timestamp</text><rect height="22" width="62.34375" y="90" x="58.671875" class="er attributeBoxEven"></rect><text style="dominant-baseline: middle; font-size: 10.2px;" transform="translate(63.671875,101)" y="0" x="0" id="text-entity-tracks-7cb7a4f3-fd45-5cde-b530-acd0eed7ab3e-attr-4-name" class="er entityLabel">deleted_at</text><rect height="22" width="21.5625" y="90" x="121.015625" class="er attributeBoxEven"></rect><text style="dominant-baseline: middle; font-size: 10.2px;" transform="translate(126.015625,101)" y="0" x="0" id="text-entity-tracks-7cb7a4f3-fd45-5cde-b530-acd0eed7ab3e-attr-4-key" class="er entityLabel"></text><rect height="22" width="107.28125" y="90" x="142.578125" class="er attributeBoxEven"></rect><text style="dominant-baseline: middle; font-size: 10.2px;" transform="translate(147.578125,101)" y="0" x="0" id="text-entity-tracks-7cb7a4f3-fd45-5cde-b530-acd0eed7ab3e-attr-4-comment" class="er entityLabel">削除日時</text><rect height="22" width="58.671875" y="112" x="0" class="er attributeBoxOdd"></rect><text style="dominant-baseline: middle; font-size: 10.2px;" transform="translate(5,123)" y="0" x="0" id="text-entity-tracks-7cb7a4f3-fd45-5cde-b530-acd0eed7ab3e-attr-5-type" class="er entityLabel">timestamp</text><rect height="22" width="62.34375" y="112" x="58.671875" class="er attributeBoxOdd"></rect><text style="dominant-baseline: middle; font-size: 10.2px;" transform="translate(63.671875,123)" y="0" x="0" id="text-entity-tracks-7cb7a4f3-fd45-5cde-b530-acd0eed7ab3e-attr-5-name" class="er entityLabel">created_at</text><rect height="22" width="21.5625" y="112" x="121.015625" class="er attributeBoxOdd"></rect><text style="dominant-baseline: middle; font-size: 10.2px;" transform="translate(126.015625,123)" y="0" x="0" id="text-entity-tracks-7cb7a4f3-fd45-5cde-b530-acd0eed7ab3e-attr-5-key" class="er entityLabel"></text><rect height="22" width="107.28125" y="112" x="142.578125" class="er attributeBoxOdd"></rect><text style="dominant-baseline: middle; font-size: 10.2px;" transform="translate(147.578125,123)" y="0" x="0" id="text-entity-tracks-7cb7a4f3-fd45-5cde-b530-acd0eed7ab3e-attr-5-comment" class="er entityLabel">作成日時</text><rect height="22" width="58.671875" y="134" x="0" class="er attributeBoxEven"></rect><text style="dominant-baseline: middle; font-size: 10.2px;" transform="translate(5,145)" y="0" x="0" id="text-entity-tracks-7cb7a4f3-fd45-5cde-b530-acd0eed7ab3e-attr-6-type" class="er entityLabel">timestamp</text><rect height="22" width="62.34375" y="134" x="58.671875" class="er attributeBoxEven"></rect><text style="dominant-baseline: middle; font-size: 10.2px;" transform="translate(63.671875,145)" y="0" x="0" id="text-entity-tracks-7cb7a4f3-fd45-5cde-b530-acd0eed7ab3e-attr-6-name" class="er entityLabel">updated_at</text><rect height="22" width="21.5625" y="134" x="121.015625" class="er attributeBoxEven"></rect><text style="dominant-baseline: middle; font-size: 10.2px;" transform="translate(126.015625,145)" y="0" x="0" id="text-entity-tracks-7cb7a4f3-fd45-5cde-b530-acd0eed7ab3e-attr-6-key" class="er entityLabel"></text><rect height="22" width="107.28125" y="134" x="142.578125" class="er attributeBoxEven"></rect><text style="dominant-baseline: middle; font-size: 10.2px;" transform="translate(147.578125,145)" y="0" x="0" id="text-entity-tracks-7cb7a4f3-fd45-5cde-b530-acd0eed7ab3e-attr-6-comment" class="er entityLabel">更新日時</text></g><rect height="0" width="0" y="204" x="144.9296875" class="er relationshipLabelBox"></rect><text style="text-anchor: middle; dominant-baseline: middle; font-size: 12px;" y="204" x="144.9296875" id="rel1" class="er relationshipLabel"></text></svg>