<?xml version="1.0" encoding="UTF-8" standalone="no"?><svg xmlns="http://www.w3.org/2000/svg" xmlns:xlink="http://www.w3.org/1999/xlink" contentStyleType="text/css" height="277px" preserveAspectRatio="none" style="width:772px;height:277px;background:#FFFFFF;" version="1.1" viewBox="0 0 772 277" width="772px" zoomAndPan="magnify"><defs/><g><!--MD5=[42591781c74864aa6bd8b9830e23a81c]
cluster Docker--><g id="cluster_Docker"><path d="M226.1092,53.8375 C233.4569,35.4836 248.6082,34.0582 259.4795,50.4538 C267.7692,31.2448 285.9181,32.025 295.7942,48.8553 C303.8771,31.6557 320.5654,25.6808 334.0668,42.8152 C344.416,28.2272 359.8687,30.5188 367.9467,45.4241 C377.3218,26.2509 393.9786,29.7485 403.87,44.8834 C412.014,28.9309 427.2942,28.146 436.9011,43.3316 C446.1651,26.1282 465.85,25.3673 476.8305,41.2607 C487.2367,23.5501 502.0096,26.301 512.8132,40.817 C527.4435,25.0456 537.9361,27.4688 547.8803,45.6561 C555.8243,30.396 569.4073,27.2588 579.966,42.9453 C594.6712,27.5477 608.8627,28.8194 620.1872,46.9954 C631.1514,32.5687 642.4922,30.6661 653.0377,47.4364 C664.541,30.5655 679.0007,29.6882 691.6512,46.1056 C705.089,33.0462 722.1825,35.3849 728.1462,54.5659 C729.8338,54.2717 730.361,55.1465 730.0932,56.6656 C752.5705,61.5272 764.0182,76.7109 746.8289,97.7361 C765.2683,126.8001 752.0174,143.9169 721.1462,147.5659 C725.0609,148.663 725.4426,150.7256 722.8689,153.6576 C712.5421,171.8208 694.635,168.3936 685.869,151.9871 C676.6692,168.583 665.7529,169.2053 652.904,156.0274 C639.9951,177.0732 627.6157,173.1793 614.4992,156.2372 C602.029,172.1494 589.4216,172.7624 579.0331,154.1016 C572.8003,173.114 560.5327,174.8554 547.3613,160.7341 C534.7576,178.3442 522.1615,181.8628 508.589,161.7294 C497.0398,173.1164 486.0539,175.5665 477.9557,158.0694 C469.7852,176.4332 453.8577,175.513 442.4896,161.5808 C430.4304,178.7435 415.0767,176.5356 403.9226,160.5285 C391.2817,174.3628 378.2839,173.5174 367.5556,158.1468 C355.3849,174.5304 340.4437,171.6477 331.9732,154.2494 C320.4838,167.5078 310.7304,166.1563 300.5509,152.7081 C286.1812,171.6909 271.2527,171.1573 260.3434,149.3013 C244.7861,169.5014 223.4046,162.3545 216.1462,140.5659 C220.4103,138.963 222.2037,140.7821 222.6304,144.9087 C201.0298,136.6315 195.6142,117.2958 212.0846,100.0655 C190.6102,78.2115 195.8327,59.1403 223.1462,47.5659 C226.7282,48.0492 228.5862,50.4918 226.1092,53.8375 " fill="#9DCCE0" style="stroke:#181818;stroke-width:1.0;"/><text fill="#000000" font-family="sans-serif" font-size="14" font-weight="bold" lengthAdjust="spacing" textLength="55" x="444.6462" y="65.561">Docker</text></g><!--MD5=[08af8945a84acfe1eabc0963aa87c412]
entity web--><g id="elem_web"><polygon fill="#F1F1F1" points="224.1462,103.5659,234.1462,93.5659,294.1462,93.5659,294.1462,129.8628,284.1462,139.8628,224.1462,139.8628,224.1462,103.5659" style="stroke:#181818;stroke-width:0.5;"/><line style="stroke:#181818;stroke-width:0.5;" x1="284.1462" x2="294.1462" y1="103.5659" y2="93.5659"/><line style="stroke:#181818;stroke-width:0.5;" x1="224.1462" x2="284.1462" y1="103.5659" y2="103.5659"/><line style="stroke:#181818;stroke-width:0.5;" x1="284.1462" x2="284.1462" y1="103.5659" y2="139.8628"/><text fill="#000000" font-family="sans-serif" font-size="14" lengthAdjust="spacing" textLength="30" x="239.1462" y="126.561">web</text></g><!--MD5=[7468467f3b6b392f1d176d828c753b77]
entity db--><g id="elem_db"><polygon fill="#F1F1F1" points="409.6462,103.5659,419.6462,93.5659,468.6462,93.5659,468.6462,129.8628,458.6462,139.8628,409.6462,139.8628,409.6462,103.5659" style="stroke:#181818;stroke-width:0.5;"/><line style="stroke:#181818;stroke-width:0.5;" x1="458.6462" x2="468.6462" y1="103.5659" y2="93.5659"/><line style="stroke:#181818;stroke-width:0.5;" x1="409.6462" x2="458.6462" y1="103.5659" y2="103.5659"/><line style="stroke:#181818;stroke-width:0.5;" x1="458.6462" x2="458.6462" y1="103.5659" y2="139.8628"/><text fill="#000000" font-family="sans-serif" font-size="14" lengthAdjust="spacing" textLength="19" x="424.6462" y="126.561">db</text></g><!--MD5=[18b82e70f4f9737a7037a413025c0620]
entity phpMyAdmin--><g id="elem_phpMyAdmin"><polygon fill="#F1F1F1" points="584.6462,103.5659,594.6462,93.5659,719.6462,93.5659,719.6462,129.8628,709.6462,139.8628,584.6462,139.8628,584.6462,103.5659" style="stroke:#181818;stroke-width:0.5;"/><line style="stroke:#181818;stroke-width:0.5;" x1="709.6462" x2="719.6462" y1="103.5659" y2="93.5659"/><line style="stroke:#181818;stroke-width:0.5;" x1="584.6462" x2="709.6462" y1="103.5659" y2="103.5659"/><line style="stroke:#181818;stroke-width:0.5;" x1="709.6462" x2="709.6462" y1="103.5659" y2="139.8628"/><text fill="#000000" font-family="sans-serif" font-size="14" lengthAdjust="spacing" textLength="95" x="599.6462" y="126.561">phpMyAdmin</text></g><!--MD5=[df72caad19033bb922ab6b65bf40b25f]
entity SQLクライアントソフト--><g id="elem_SQLクライアントソフト"><path d="M13.5761,103.5522 C16.9098,96.6545 21.6301,95.6094 26.5729,101.9755 C30.7698,96.674 34.8695,96.4061 39.0276,102.0196 C42.5879,96.9278 46.1051,97.6565 49.437,102.2647 C53.0499,96.177 58.4397,94.9067 62.7521,101.5321 C65.1015,94.7347 71.4039,94.3856 75.3024,99.9608 C77.7761,94.0782 82.6537,94.5972 85.875,99.2076 C89.9552,93.369 94.6536,92.7547 98.7017,99.2411 C102.2679,92.5933 107.201,92.2184 111.2422,98.7905 C115.3197,92.7481 119.3806,94.1922 122.835,99.4307 C126.1854,94.657 131.1888,95.6624 133.2697,100.7711 C137.5605,96.087 141.6685,94.8757 145.3571,101.4193 C149.0653,96.7814 154.4337,96.918 157.2357,102.4752 C160.7455,95.4025 165.3494,95.4513 169.6946,101.6935 C173.4008,95.6438 179.6146,95.4937 183.4015,101.6025 C190.8689,105.4605 192.8487,110.0258 186.5128,116.7239 C191.112,123.5873 190.4031,128.7768 182.117,131.9106 C179.3548,138.1585 174.1163,138.2367 170.1649,133.1663 C166.7539,139.5794 161.3056,138.7057 158.1162,132.9469 C156.0006,138.9826 150.2465,139.363 146.6261,134.539 C142.898,140.1835 137.9441,140.5778 134.4941,134.257 C130.6323,140.0677 125.477,139.8325 121.4198,134.4861 C118.341,138.2904 113.6434,138.1198 111.3312,133.5613 C107.7276,140.4106 100.8405,139.531 97.2612,133.5347 C93.8437,138.576 90.1871,138.253 87.0327,133.2664 C84.3729,138.4882 78.6181,139.1223 74.9322,134.5317 C70.4206,141.4204 66.3033,140.9944 62.0464,134.2902 C57.0283,139.7861 52.5089,139.7676 49.3611,132.4401 C47.0891,138.3641 43.1223,138.0661 39.3035,133.9967 C34.176,139.3177 28.8735,139.7461 25.2588,132.3288 C21.7563,138.3654 17.911,138.8068 13.9249,132.7832 C7.9597,128.2345 6.3755,122.8517 14.024,118.3967 C6,113.4618 6.0172,108.9573 13.5761,103.5522 " fill="#FFFF00" style="stroke:#181818;stroke-width:0.5;"/><text fill="#000000" font-family="sans-serif" font-size="14" lengthAdjust="spacing" textLength="154" x="20.1462" y="121.561">SQLクライアントソフト</text></g><!--MD5=[97ccaff76e2c68c5bb050ebab81f73c3]
entity ブラウザ--><g id="elem_ブラウザ"><path d="M453.583,227.1198 C456.1362,221.2513 461.2249,221.248 464.5821,226.3108 C467.7446,219.1074 473.0685,220.1308 477.3003,225.203 C481.4307,219.226 485.1641,219.841 488.9949,225.504 C492.4494,220.6817 495.7369,221.0408 498.8638,225.84 C503.1155,220.792 507.1991,219.6243 511.2584,226.0479 C514.7091,221.3415 520.6234,221.6199 523.1443,227.1296 C532.9843,228.3763 534.5884,234.1092 529.4154,241.7816 C534.4055,249.0279 533.7421,255.8814 523.4953,257.324 C521.5937,264.0255 516.6649,265.2938 511.7311,260.4003 C509.3829,267.9785 504.4958,268.6899 498.9646,263.6108 C496.3002,269.6635 492.149,270.0742 487.4682,265.8712 C482.485,270.2956 478.5412,267.9542 477.1605,262.2169 C471.7817,268.2259 467.3666,268.1762 463.8238,260.4361 C460.1634,264.2599 455.9395,264.251 453.7611,258.824 C442.9235,258.2691 440.0712,251.1483 444.9488,242.2418 C439.8252,233.1687 444.4521,228.0539 453.583,227.1198 " fill="#FFFF00" style="stroke:#181818;stroke-width:0.5;"/><text fill="#000000" font-family="sans-serif" font-size="14" lengthAdjust="spacing" textLength="56" x="459.1462" y="246.561">ブラウザ</text></g><!--MD5=[7f8cb4f31c80578b02bea1f2ba5d290e]
reverse link web to ブラウザ--><g id="link_web_ブラウザ"><path d="M298.6892,138.8989 C339.9682,161.1679 404.3992,195.9258 446.1952,218.4739 " fill="none" id="web-backto-ブラウザ" style="stroke:#181818;stroke-width:1.0;"/><polygon fill="#181818" points="294.2712,136.5149,300.2921,144.3091,298.6715,138.8893,304.0912,137.2687,294.2712,136.5149" style="stroke:#181818;stroke-width:1.0;"/><text fill="#000000" font-family="sans-serif" font-size="13" lengthAdjust="spacing" textLength="94" x="388.1462" y="184.6328">localhost:8001</text></g><!--MD5=[ce0fa36060f0ad90e32862b9f0e4c27f]
reverse link phpMyAdmin to ブラウザ--><g id="link_phpMyAdmin_ブラウザ"><path d="M617.9592,143.0499 C588.1102,165.3021 545.2312,197.2664 516.8042,218.4572 " fill="none" id="phpMyAdmin-backto-ブラウザ" style="stroke:#181818;stroke-width:1.0;"/><polygon fill="#181818" points="622.2662,139.8399,612.66,142.0125,618.2577,142.8285,617.4417,148.4262,622.2662,139.8399" style="stroke:#181818;stroke-width:1.0;"/><text fill="#000000" font-family="sans-serif" font-size="13" lengthAdjust="spacing" textLength="94" x="580.1462" y="184.6328">localhost:8888</text></g><!--MD5=[fa4c4497f362bd97e6683ae7b9cc1101]
link SQLクライアントソフト to db--><g id="link_SQLクライアントソフト_db"><path d="M118.8432,93.3379 C139.5682,72.9049 172.8052,44.4659 208.1462,31.5659 C231.9622,22.8719 324.4802,20.5459 347.1462,29.5659 C377.2092,41.5299 403.1152,68.4959 419.7062,89.2579 " fill="none" id="SQLクライアントソフト-to-db" style="stroke:#181818;stroke-width:1.0;"/><polygon fill="#181818" points="422.8982,93.3219,420.4854,83.7732,419.8101,89.3896,414.1937,88.7142,422.8982,93.3219" style="stroke:#181818;stroke-width:1.0;"/><text fill="#000000" font-family="sans-serif" font-size="13" lengthAdjust="spacing" textLength="94" x="252.1462" y="19.6328">localhost:3307</text></g><!--MD5=[44d8fab9c03fce0248c23b256ee4abe4]
link web to db--><g id="link_web_db"><path d="M294.2792,116.5659 C326.0022,116.5659 372.4312,116.5659 404.1212,116.5659 " fill="none" id="web-to-db" style="stroke:#181818;stroke-width:1.0;"/><polygon fill="#181818" points="409.4672,116.5659,400.4672,112.5659,404.4672,116.5659,400.4672,120.5659,409.4672,116.5659" style="stroke:#181818;stroke-width:1.0;"/><text fill="#000000" font-family="sans-serif" font-size="13" lengthAdjust="spacing" textLength="79" x="312.3962" y="109.6328">my-db:3306</text></g><!--MD5=[0353158ea2c987504b7b609596cede4d]
reverse link db to phpMyAdmin--><g id="link_db_phpMyAdmin"><path d="M473.7882,116.5659 C503.5812,116.5659 547.4362,116.5659 584.2022,116.5659 " fill="none" id="db-backto-phpMyAdmin" style="stroke:#181818;stroke-width:1.0;"/><polygon fill="#181818" points="468.7632,116.5659,477.7632,120.5659,473.7632,116.5659,477.7632,112.5659,468.7632,116.5659" style="stroke:#181818;stroke-width:1.0;"/><text fill="#000000" font-family="sans-serif" font-size="13" lengthAdjust="spacing" textLength="79" x="487.1462" y="109.6328">my-db:3306</text></g><!--MD5=[f746aa2f635bf4500fe96819a43c4ebb]
@startuml
cloud Docker #9DCCE0 {
  node web
  node db
  node phpMyAdmin
}

cloud SQLクライアントソフト #FFFF00
cloud ブラウザ #FFFF00

ブラウザ -up-> web: localhost:8001
ブラウザ -up-> phpMyAdmin: localhost:8888
SQLクライアントソフト  -> db: localhost:3307

web -> db: my-db:3306
phpMyAdmin -left-> db: my-db:3306
@enduml

PlantUML version 1.2022.4beta2(Unknown compile time)
(GPL source distribution)
Java Runtime: Java(TM) SE Runtime Environment
JVM: Java HotSpot(TM) 64-Bit Server VM
Default Encoding: UTF-8
Language: en
Country: US
--></g></svg>