<?xml version="1.0" encoding="UTF-8" standalone="no"?><svg xmlns="http://www.w3.org/2000/svg" xmlns:xlink="http://www.w3.org/1999/xlink" contentStyleType="text/css" height="834px" preserveAspectRatio="none" style="width:713px;height:834px;background:#FFFFFF;" version="1.1" viewBox="0 0 713 834" width="713px" zoomAndPan="magnify"><defs/><g><rect fill="#DDDDDD" height="822.5156" style="stroke:#181818;stroke-width:0.5;" width="152.5" x="1" y="6"/><text fill="#000000" font-family="sans-serif" font-size="13" font-weight="bold" lengthAdjust="spacing" textLength="99" x="27.75" y="18.0669">Web browser</text><rect fill="#DDDDDD" height="822.5156" style="stroke:#181818;stroke-width:0.5;" width="337" x="186" y="6"/><text fill="#000000" font-family="sans-serif" font-size="13" font-weight="bold" lengthAdjust="spacing" textLength="85" x="312" y="18.0669">Web server</text><rect fill="#DDDDDD" height="822.5156" style="stroke:#181818;stroke-width:0.5;" width="80" x="552.5" y="6"/><text fill="#000000" font-family="sans-serif" font-size="13" font-weight="bold" lengthAdjust="spacing" textLength="74" x="555.5" y="18.0669">DB server</text><rect fill="#DDDDDD" height="822.5156" style="stroke:#181818;stroke-width:0.5;" width="73" x="634.5" y="6"/><text fill="#000000" font-family="sans-serif" font-size="13" font-weight="bold" lengthAdjust="spacing" textLength="42" x="650" y="18.0669">Cloud</text><line style="stroke:#181818;stroke-width:0.5;stroke-dasharray:5.0,5.0;" x1="36" x2="36" y1="101.4297" y2="749.2188"/><line style="stroke:#181818;stroke-width:0.5;stroke-dasharray:5.0,5.0;" x1="124.5" x2="124.5" y1="101.4297" y2="749.2188"/><line style="stroke:#181818;stroke-width:0.5;stroke-dasharray:5.0,5.0;" x1="214" x2="214" y1="101.4297" y2="749.2188"/><line style="stroke:#181818;stroke-width:0.5;stroke-dasharray:5.0,5.0;" x1="287" x2="287" y1="101.4297" y2="749.2188"/><line style="stroke:#181818;stroke-width:0.5;stroke-dasharray:5.0,5.0;" x1="376" x2="376" y1="101.4297" y2="749.2188"/><line style="stroke:#181818;stroke-width:0.5;stroke-dasharray:5.0,5.0;" x1="472" x2="472" y1="101.4297" y2="749.2188"/><line style="stroke:#181818;stroke-width:0.5;stroke-dasharray:5.0,5.0;" x1="592.5" x2="592.5" y1="101.4297" y2="749.2188"/><line style="stroke:#181818;stroke-width:0.5;stroke-dasharray:5.0,5.0;" x1="670.5" x2="670.5" y1="101.4297" y2="749.2188"/><text fill="#000000" font-family="sans-serif" font-size="14" lengthAdjust="spacing" textLength="56" x="5" y="98.1279">ユーザー</text><ellipse cx="36" cy="33.6328" fill="#E2E2F0" rx="8" ry="8" style="stroke:#181818;stroke-width:0.5;"/><path d="M36,41.6328 L36,68.6328 M23,49.6328 L49,49.6328 M36,68.6328 L23,83.6328 M36,68.6328 L49,83.6328 " fill="none" style="stroke:#181818;stroke-width:0.5;"/><text fill="#000000" font-family="sans-serif" font-size="14" lengthAdjust="spacing" textLength="56" x="5" y="761.2139">ユーザー</text><ellipse cx="36" cy="773.0156" fill="#E2E2F0" rx="8" ry="8" style="stroke:#181818;stroke-width:0.5;"/><path d="M36,781.0156 L36,808.0156 M23,789.0156 L49,789.0156 M36,808.0156 L23,823.0156 M36,808.0156 L49,823.0156 " fill="none" style="stroke:#181818;stroke-width:0.5;"/><text fill="#000000" font-family="sans-serif" font-size="14" lengthAdjust="spacing" textLength="28" x="108" y="98.1279">画面</text><path d="M104.5,57.1328 L104.5,81.1328 M104.5,69.1328 L121.5,69.1328 " fill="none" style="stroke:#181818;stroke-width:0.5;"/><ellipse cx="133.5" cy="69.1328" fill="#E2E2F0" rx="12" ry="12" style="stroke:#181818;stroke-width:0.5;"/><text fill="#000000" font-family="sans-serif" font-size="14" lengthAdjust="spacing" textLength="28" x="108" y="761.2139">画面</text><path d="M104.5,768.5156 L104.5,792.5156 M104.5,780.5156 L121.5,780.5156 " fill="none" style="stroke:#181818;stroke-width:0.5;"/><ellipse cx="133.5" cy="780.5156" fill="#E2E2F0" rx="12" ry="12" style="stroke:#181818;stroke-width:0.5;"/><rect fill="#E2E2F0" height="30.2969" rx="2.5" ry="2.5" style="stroke:#181818;stroke-width:0.5;" width="48" x="190" y="70.1328"/><text fill="#000000" font-family="sans-serif" font-size="14" lengthAdjust="spacing" textLength="34" x="197" y="90.1279">View</text><rect fill="#E2E2F0" height="30.2969" rx="2.5" ry="2.5" style="stroke:#181818;stroke-width:0.5;" width="48" x="190" y="748.2188"/><text fill="#000000" font-family="sans-serif" font-size="14" lengthAdjust="spacing" textLength="34" x="197" y="768.2139">View</text><text fill="#000000" font-family="sans-serif" font-size="14" lengthAdjust="spacing" textLength="73" x="248" y="98.1279">Controller</text><ellipse cx="287.5" cy="69.1328" fill="#E2E2F0" rx="12" ry="12" style="stroke:#181818;stroke-width:0.5;"/><polygon fill="#181818" points="283.5,57.1328,289.5,52.1328,287.5,57.1328,289.5,62.1328,283.5,57.1328" style="stroke:#181818;stroke-width:1.0;"/><text fill="#000000" font-family="sans-serif" font-size="14" lengthAdjust="spacing" textLength="73" x="248" y="761.2139">Controller</text><ellipse cx="287.5" cy="780.5156" fill="#E2E2F0" rx="12" ry="12" style="stroke:#181818;stroke-width:0.5;"/><polygon fill="#181818" points="283.5,768.5156,289.5,763.5156,287.5,768.5156,289.5,773.5156,283.5,768.5156" style="stroke:#181818;stroke-width:1.0;"/><rect fill="#E2E2F0" height="30.2969" rx="2.5" ry="2.5" style="stroke:#181818;stroke-width:0.5;" width="67" x="343" y="70.1328"/><text fill="#000000" font-family="sans-serif" font-size="14" lengthAdjust="spacing" textLength="53" x="350" y="90.1279">Service</text><rect fill="#E2E2F0" height="30.2969" rx="2.5" ry="2.5" style="stroke:#181818;stroke-width:0.5;" width="67" x="343" y="748.2188"/><text fill="#000000" font-family="sans-serif" font-size="14" lengthAdjust="spacing" textLength="53" x="350" y="768.2139">Service</text><rect fill="#E2E2F0" height="30.2969" rx="2.5" ry="2.5" style="stroke:#181818;stroke-width:0.5;" width="93" x="426" y="70.1328"/><text fill="#000000" font-family="sans-serif" font-size="14" lengthAdjust="spacing" textLength="79" x="433" y="90.1279">Repository</text><rect fill="#E2E2F0" height="30.2969" rx="2.5" ry="2.5" style="stroke:#181818;stroke-width:0.5;" width="93" x="426" y="748.2188"/><text fill="#000000" font-family="sans-serif" font-size="14" lengthAdjust="spacing" textLength="79" x="433" y="768.2139">Repository</text><text fill="#000000" font-family="sans-serif" font-size="14" lengthAdjust="spacing" textLength="21" x="579" y="98.1279">DB</text><path d="M574.5,49.1328 C574.5,39.1328 592.5,39.1328 592.5,39.1328 C592.5,39.1328 610.5,39.1328 610.5,49.1328 L610.5,75.1328 C610.5,85.1328 592.5,85.1328 592.5,85.1328 C592.5,85.1328 574.5,85.1328 574.5,75.1328 L574.5,49.1328 " fill="#E2E2F0" style="stroke:#181818;stroke-width:1.5;"/><path d="M574.5,49.1328 C574.5,59.1328 592.5,59.1328 592.5,59.1328 C592.5,59.1328 610.5,59.1328 610.5,49.1328 " fill="none" style="stroke:#181818;stroke-width:1.5;"/><text fill="#000000" font-family="sans-serif" font-size="14" lengthAdjust="spacing" textLength="21" x="579" y="761.2139">DB</text><path d="M574.5,774.5156 C574.5,764.5156 592.5,764.5156 592.5,764.5156 C592.5,764.5156 610.5,764.5156 610.5,774.5156 L610.5,800.5156 C610.5,810.5156 592.5,810.5156 592.5,810.5156 C592.5,810.5156 574.5,810.5156 574.5,800.5156 L574.5,774.5156 " fill="#E2E2F0" style="stroke:#181818;stroke-width:1.5;"/><path d="M574.5,774.5156 C574.5,784.5156 592.5,784.5156 592.5,784.5156 C592.5,784.5156 610.5,784.5156 610.5,774.5156 " fill="none" style="stroke:#181818;stroke-width:1.5;"/><rect fill="#E2E2F0" height="30.2969" rx="2.5" ry="2.5" style="stroke:#181818;stroke-width:0.5;" width="65" x="638.5" y="70.1328"/><text fill="#000000" font-family="sans-serif" font-size="14" lengthAdjust="spacing" textLength="51" x="645.5" y="90.1279">外部API</text><rect fill="#E2E2F0" height="30.2969" rx="2.5" ry="2.5" style="stroke:#181818;stroke-width:0.5;" width="65" x="638.5" y="748.2188"/><text fill="#000000" font-family="sans-serif" font-size="14" lengthAdjust="spacing" textLength="51" x="645.5" y="768.2139">外部API</text><polygon fill="#181818" points="113,128.5625,123,132.5625,113,136.5625,117,132.5625" style="stroke:#181818;stroke-width:1.0;"/><line style="stroke:#181818;stroke-width:1.0;" x1="36" x2="119" y1="132.5625" y2="132.5625"/><text fill="#000000" font-family="sans-serif" font-size="13" lengthAdjust="spacing" textLength="65" x="43" y="127.4966">アクション</text><polygon fill="#181818" points="275.5,157.6953,285.5,161.6953,275.5,165.6953,279.5,161.6953" style="stroke:#181818;stroke-width:1.0;"/><line style="stroke:#181818;stroke-width:1.0;" x1="125" x2="281.5" y1="161.6953" y2="161.6953"/><text fill="#000000" font-family="sans-serif" font-size="13" lengthAdjust="spacing" textLength="65" x="132" y="156.6294">リクエスト</text><path d="M231,174.6953 L231,214.6953 L343,214.6953 L343,184.6953 L333,174.6953 L231,174.6953 " fill="#FEFFDD" style="stroke:#181818;stroke-width:0.5;"/><path d="M333,174.6953 L333,184.6953 L343,184.6953 L333,174.6953 " fill="#FEFFDD" style="stroke:#181818;stroke-width:0.5;"/><text fill="#000000" font-family="sans-serif" font-size="13" lengthAdjust="spacing" textLength="78" x="237" y="191.7622">フォーマット</text><text fill="#000000" font-family="sans-serif" font-size="13" lengthAdjust="spacing" textLength="91" x="237" y="206.895">バリデーション</text><polygon fill="#181818" points="364.5,237.0938,374.5,241.0938,364.5,245.0938,368.5,241.0938" style="stroke:#181818;stroke-width:1.0;"/><line style="stroke:#181818;stroke-width:1.0;" x1="287.5" x2="370.5" y1="241.0938" y2="241.0938"/><text fill="#000000" font-family="sans-serif" font-size="13" lengthAdjust="spacing" textLength="65" x="294.5" y="236.0278">データ取得</text><polygon fill="#181818" points="460.5,266.2266,470.5,270.2266,460.5,274.2266,464.5,270.2266" style="stroke:#181818;stroke-width:1.0;"/><line style="stroke:#181818;stroke-width:1.0;" x1="376.5" x2="466.5" y1="270.2266" y2="270.2266"/><text fill="#000000" font-family="sans-serif" font-size="13" lengthAdjust="spacing" textLength="70" x="383.5" y="265.1606">DB情報取得</text><path d="M429,283.2266 L429,308.2266 L515,308.2266 L515,293.2266 L505,283.2266 L429,283.2266 " fill="#FEFFDD" style="stroke:#181818;stroke-width:0.5;"/><path d="M505,283.2266 L505,293.2266 L515,293.2266 L505,283.2266 " fill="#FEFFDD" style="stroke:#181818;stroke-width:0.5;"/><text fill="#000000" font-family="sans-serif" font-size="13" lengthAdjust="spacing" textLength="65" x="435" y="300.2935">クエリ生成</text><polygon fill="#181818" points="580.5,330.4922,590.5,334.4922,580.5,338.4922,584.5,334.4922" style="stroke:#181818;stroke-width:1.0;"/><line style="stroke:#181818;stroke-width:1.0;" x1="472.5" x2="586.5" y1="334.4922" y2="334.4922"/><text fill="#000000" font-family="sans-serif" font-size="13" lengthAdjust="spacing" textLength="78" x="479.5" y="329.4263">レコード取得</text><polygon fill="#181818" points="483.5,359.625,473.5,363.625,483.5,367.625,479.5,363.625" style="stroke:#181818;stroke-width:1.0;"/><line style="stroke:#181818;stroke-width:1.0;" x1="477.5" x2="591.5" y1="363.625" y2="363.625"/><text fill="#000000" font-family="sans-serif" font-size="13" lengthAdjust="spacing" textLength="52" x="489.5" y="358.5591">レコード</text><polygon fill="#181818" points="387.5,388.7578,377.5,392.7578,387.5,396.7578,383.5,392.7578" style="stroke:#181818;stroke-width:1.0;"/><line style="stroke:#181818;stroke-width:1.0;" x1="381.5" x2="471.5" y1="392.7578" y2="392.7578"/><text fill="#000000" font-family="sans-serif" font-size="13" lengthAdjust="spacing" textLength="44" x="393.5" y="387.6919">DB情報</text><polygon fill="#181818" points="460.5,417.8906,470.5,421.8906,460.5,425.8906,464.5,421.8906" style="stroke:#181818;stroke-width:1.0;"/><line style="stroke:#181818;stroke-width:1.0;" x1="376.5" x2="466.5" y1="421.8906" y2="421.8906"/><text fill="#000000" font-family="sans-serif" font-size="13" lengthAdjust="spacing" textLength="72" x="383.5" y="416.8247">API情報取得</text><path d="M397,434.8906 L397,459.8906 L548,459.8906 L548,444.8906 L538,434.8906 L397,434.8906 " fill="#FEFFDD" style="stroke:#181818;stroke-width:0.5;"/><path d="M538,434.8906 L538,444.8906 L548,444.8906 L538,434.8906 " fill="#FEFFDD" style="stroke:#181818;stroke-width:0.5;"/><text fill="#000000" font-family="sans-serif" font-size="13" lengthAdjust="spacing" textLength="130" x="403" y="451.9575">リクエストデータ生成</text><polygon fill="#181818" points="659,482.1563,669,486.1563,659,490.1563,663,486.1563" style="stroke:#181818;stroke-width:1.0;"/><line style="stroke:#181818;stroke-width:1.0;" x1="472.5" x2="665" y1="486.1563" y2="486.1563"/><text fill="#000000" font-family="sans-serif" font-size="13" lengthAdjust="spacing" textLength="65" x="479.5" y="481.0903">リクエスト</text><polygon fill="#181818" points="483.5,511.2891,473.5,515.2891,483.5,519.2891,479.5,515.2891" style="stroke:#181818;stroke-width:1.0;"/><line style="stroke:#181818;stroke-width:1.0;" x1="477.5" x2="670" y1="515.2891" y2="515.2891"/><text fill="#000000" font-family="sans-serif" font-size="13" lengthAdjust="spacing" textLength="65" x="489.5" y="510.2231">レスポンス</text><polygon fill="#181818" points="387.5,540.4219,377.5,544.4219,387.5,548.4219,383.5,544.4219" style="stroke:#181818;stroke-width:1.0;"/><line style="stroke:#181818;stroke-width:1.0;" x1="381.5" x2="471.5" y1="544.4219" y2="544.4219"/><text fill="#000000" font-family="sans-serif" font-size="13" lengthAdjust="spacing" textLength="46" x="393.5" y="539.356">API情報</text><path d="M301,557.4219 L301,582.4219 L452,582.4219 L452,567.4219 L442,557.4219 L301,557.4219 " fill="#FEFFDD" style="stroke:#181818;stroke-width:0.5;"/><path d="M442,557.4219 L442,567.4219 L452,567.4219 L442,557.4219 " fill="#FEFFDD" style="stroke:#181818;stroke-width:0.5;"/><text fill="#000000" font-family="sans-serif" font-size="13" lengthAdjust="spacing" textLength="130" x="307" y="574.4888">各情報からデータ生成</text><polygon fill="#181818" points="298.5,604.6875,288.5,608.6875,298.5,612.6875,294.5,608.6875" style="stroke:#181818;stroke-width:1.0;"/><line style="stroke:#181818;stroke-width:1.0;" x1="292.5" x2="375.5" y1="608.6875" y2="608.6875"/><text fill="#000000" font-family="sans-serif" font-size="13" lengthAdjust="spacing" textLength="39" x="304.5" y="603.6216">データ</text><polygon fill="#181818" points="225,633.8203,215,637.8203,225,641.8203,221,637.8203" style="stroke:#181818;stroke-width:1.0;"/><line style="stroke:#181818;stroke-width:1.0;" x1="219" x2="286.5" y1="637.8203" y2="637.8203"/><text fill="#000000" font-family="sans-serif" font-size="13" lengthAdjust="spacing" textLength="39" x="231" y="632.7544">データ</text><path d="M190,650.8203 L190,675.8203 L237,675.8203 L237,660.8203 L227,650.8203 L190,650.8203 " fill="#FEFFDD" style="stroke:#181818;stroke-width:0.5;"/><path d="M227,650.8203 L227,660.8203 L237,660.8203 L227,650.8203 " fill="#FEFFDD" style="stroke:#181818;stroke-width:0.5;"/><text fill="#000000" font-family="sans-serif" font-size="13" lengthAdjust="spacing" textLength="26" x="196" y="667.8872">描画</text><polygon fill="#181818" points="136,698.0859,126,702.0859,136,706.0859,132,702.0859" style="stroke:#181818;stroke-width:1.0;"/><line style="stroke:#181818;stroke-width:1.0;" x1="130" x2="213" y1="702.0859" y2="702.0859"/><text fill="#000000" font-family="sans-serif" font-size="13" lengthAdjust="spacing" textLength="65" x="142" y="697.02">レスポンス</text><polygon fill="#181818" points="47,727.2188,37,731.2188,47,735.2188,43,731.2188" style="stroke:#181818;stroke-width:1.0;"/><line style="stroke:#181818;stroke-width:1.0;" x1="41" x2="124" y1="731.2188" y2="731.2188"/><text fill="#000000" font-family="sans-serif" font-size="13" lengthAdjust="spacing" textLength="52" x="53" y="726.1528">画面表示</text><!--SRC=[VPFBIiD058RtynI7x7s1BWGl6tUYe1itCqaMWP8fCqdKfHd55XVjmilAAqLh4KG4nGlwC4DQVGlFJDecgU8c3EUR_pz_paaOtm9dtMV01D-Kld0807KZBi3HwbghTvq-uTC1AY56ndWSUbHiWpCyVFi-lRA04J_q46qHDhP3goHtQr0H1MxGe644pbhWRrf9WiJbOIHu7Po5_517WM7kj6eLpGBNjr1EmnM_mMM0YRSj5zKiY_EbA1wDAAFIDsLxsQjUNgZpsFkLEUiUVwlUtFAIbT29XCGmCmiCQg3JAvtUw_HPgnkj7Wapm3L0zItewVH5goO9UUG3npJW6dYaqripOdMcbKA-4MhLCHgrRoS_zdEDdxH-EVZCsiVPnmcH1WW4Y_C3jPTTF8pgHHzXqja4gZyyF1yqEqGOaMVTxdJwQ0EqHa9lR5XckKAMsXIDSIp_TAw-_YHzEGZzOqoqaW9BfpW5F1H19crB3MKDiivkNjOx1pfjJJUKnLv681zjKYaLZaaD1kqsVkWacQnwAf5TTOmW_ns-Bdl3xkiF]--></g></svg>