<?xml version="1.0" encoding="UTF-8" standalone="no"?><svg xmlns="http://www.w3.org/2000/svg" xmlns:xlink="http://www.w3.org/1999/xlink" contentStyleType="text/css" height="499px" preserveAspectRatio="none" style="width:661px;height:499px;background:#FFFFFF;" version="1.1" viewBox="0 0 661 499" width="661px" zoomAndPan="magnify"><defs/><g><!--cluster Illuminate--><g id="cluster_Illuminate"><path d="M398.5,228 L481.5,228 A3.75,3.75 0 0 1 484,230.5 L491,250.2969 L651.5,250.2969 A2.5,2.5 0 0 1 654,252.7969 L654,489.5 A2.5,2.5 0 0 1 651.5,492 L398.5,492 A2.5,2.5 0 0 1 396,489.5 L396,230.5 A2.5,2.5 0 0 1 398.5,228 " fill="none" style="stroke:#000000;stroke-width:1.5;"/><line style="stroke:#000000;stroke-width:1.5;" x1="396" x2="491" y1="250.2969" y2="250.2969"/><text fill="#000000" font-family="sans-serif" font-size="14" font-weight="bold" lengthAdjust="spacing" textLength="82" x="400" y="242.9951">Illuminate</text></g><!--cluster Validation--><g id="cluster_Validation"><path d="M422.5,271 L507.5,271 A3.75,3.75 0 0 1 510,273.5 L517,293.2969 L627.5,293.2969 A2.5,2.5 0 0 1 630,295.7969 L630,465.5 A2.5,2.5 0 0 1 627.5,468 L422.5,468 A2.5,2.5 0 0 1 420,465.5 L420,273.5 A2.5,2.5 0 0 1 422.5,271 " fill="none" style="stroke:#000000;stroke-width:1.5;"/><line style="stroke:#000000;stroke-width:1.5;" x1="420" x2="517" y1="293.2969" y2="293.2969"/><text fill="#000000" font-family="sans-serif" font-size="14" font-weight="bold" lengthAdjust="spacing" textLength="84" x="424" y="285.9951">Validation</text></g><!--class ValidationException--><g id="elem_ValidationException"><rect codeLine="35" fill="#F1F1F1" height="145.7813" id="ValidationException" rx="2.5" ry="2.5" style="stroke:#181818;stroke-width:0.5;" width="177" x="436.5" y="306"/><ellipse cx="451.5" cy="322" fill="#ADD1B2" rx="11" ry="11" style="stroke:#181818;stroke-width:1.0;"/><path d="M453.8438,317.6719 C452.9063,317.2344 452.3125,317.0938 451.4375,317.0938 C448.8125,317.0938 446.8125,319.1719 446.8125,321.8906 L446.8125,323.0156 C446.8125,325.5938 448.9219,327.4844 451.8125,327.4844 C453.0313,327.4844 454.1875,327.1875 454.9375,326.6406 C455.5156,326.2344 455.8438,325.7813 455.8438,325.3906 C455.8438,324.9375 455.4531,324.5469 454.9844,324.5469 C454.7656,324.5469 454.5625,324.625 454.375,324.8125 C453.9219,325.2969 453.9219,325.2969 453.7344,325.3906 C453.3125,325.6563 452.625,325.7813 451.8594,325.7813 C449.8125,325.7813 448.5156,324.6875 448.5156,322.9844 L448.5156,321.8906 C448.5156,320.1094 449.7656,318.7969 451.5,318.7969 C452.0781,318.7969 452.6875,318.9531 453.1563,319.2031 C453.6406,319.4844 453.8125,319.7031 453.9063,320.1094 C453.9688,320.5156 454,320.6406 454.1406,320.7656 C454.2813,320.9063 454.5156,321.0156 454.7344,321.0156 C455,321.0156 455.2656,320.875 455.4375,320.6563 C455.5469,320.5 455.5781,320.3125 455.5781,319.8906 L455.5781,318.4688 C455.5781,318.0313 455.5625,317.9063 455.4688,317.75 C455.3125,317.4844 455.0313,317.3438 454.7344,317.3438 C454.4375,317.3438 454.2344,317.4375 454.0156,317.75 L453.8438,317.6719 Z " fill="#000000"/><text fill="#000000" font-family="sans-serif" font-size="14" lengthAdjust="spacing" textLength="145" x="465.5" y="326.8467">ValidationException</text><line style="stroke:#181818;stroke-width:0.5;" x1="437.5" x2="612.5" y1="338" y2="338"/><polygon fill="none" points="447.5,346.6484,451.5,350.6484,447.5,354.6484,443.5,350.6484" style="stroke:#B38D22;stroke-width:1.0;"/><text fill="#000000" font-family="sans-serif" font-size="14" lengthAdjust="spacing" textLength="132" x="456.5" y="354.9951">Validator validator</text><polygon fill="none" points="447.5,362.9453,451.5,366.9453,447.5,370.9453,443.5,366.9453" style="stroke:#B38D22;stroke-width:1.0;"/><text fill="#000000" font-family="sans-serif" font-size="14" lengthAdjust="spacing" textLength="109" x="456.5" y="371.292">string message</text><polygon fill="none" points="447.5,379.2422,451.5,383.2422,447.5,387.2422,443.5,383.2422" style="stroke:#B38D22;stroke-width:1.0;"/><text fill="#000000" font-family="sans-serif" font-size="14" lengthAdjust="spacing" textLength="59" x="456.5" y="387.5889">int code</text><line style="stroke:#181818;stroke-width:0.5;" x1="437.5" x2="612.5" y1="394.8906" y2="394.8906"/><ellipse cx="447.5" cy="408.5391" fill="#84BE84" rx="3" ry="3" style="stroke:#038048;stroke-width:1.0;"/><text fill="#000000" font-family="sans-serif" font-size="14" lengthAdjust="spacing" textLength="142" x="456.5" y="411.8857">string getMessage()</text><ellipse cx="447.5" cy="424.8359" fill="#84BE84" rx="3" ry="3" style="stroke:#038048;stroke-width:1.0;"/><text fill="#000000" font-family="sans-serif" font-size="14" lengthAdjust="spacing" textLength="96" x="456.5" y="428.1826">int getCode()</text><ellipse cx="447.5" cy="441.1328" fill="#84BE84" rx="3" ry="3" style="stroke:#038048;stroke-width:1.0;"/><text fill="#000000" font-family="sans-serif" font-size="14" lengthAdjust="spacing" textLength="109" x="456.5" y="444.4795">string[] errors()</text></g><!--class Throwable--><g id="elem_Throwable"><rect codeLine="1" fill="#F1F1F1" height="32" id="Throwable" rx="2.5" ry="2.5" style="stroke:#181818;stroke-width:0.5;" width="107" x="140.5" y="7"/><ellipse cx="155.5" cy="23" fill="#B4A7E5" rx="11" ry="11" style="stroke:#181818;stroke-width:1.0;"/><path d="M156.4531,19.7813 L158.1719,19.7813 C158.5625,19.7813 158.75,19.75 158.875,19.6719 C159.1406,19.5156 159.2813,19.2344 159.2813,18.9375 C159.2813,18.6719 159.1719,18.4063 158.9375,18.2344 C158.7656,18.125 158.625,18.0938 158.1719,18.0938 L153.0313,18.0938 C152.5938,18.0938 152.4688,18.1094 152.3125,18.2031 C152.0625,18.3594 151.9063,18.6563 151.9063,18.9375 C151.9063,19.2188 152.0469,19.4688 152.2656,19.6406 C152.4219,19.75 152.6094,19.7813 153.0313,19.7813 L154.75,19.7813 L154.75,26.2969 L153.0313,26.2969 C152.5938,26.2969 152.4688,26.3125 152.3125,26.4219 C152.0625,26.5781 151.9063,26.8594 151.9063,27.1563 C151.9063,27.4063 152.0469,27.6719 152.2656,27.8281 C152.4219,27.9531 152.625,28 153.0313,28 L158.1719,28 C158.9219,28 159.2813,27.7188 159.2813,27.1563 C159.2813,26.875 159.1719,26.625 158.9375,26.4531 C158.7656,26.3281 158.625,26.2969 158.1719,26.2969 L156.4531,26.2969 L156.4531,19.7813 Z " fill="#000000"/><text fill="#000000" font-family="sans-serif" font-size="14" font-style="italic" lengthAdjust="spacing" textLength="75" x="169.5" y="27.8467">Throwable</text></g><!--class Error--><g id="elem_Error"><rect codeLine="5" fill="#F1F1F1" height="113.1875" id="Error" rx="2.5" ry="2.5" style="stroke:#181818;stroke-width:0.5;" width="168" x="9" y="99"/><ellipse cx="70.75" cy="115" fill="#ADD1B2" rx="11" ry="11" style="stroke:#181818;stroke-width:1.0;"/><path d="M73.0938,110.6719 C72.1563,110.2344 71.5625,110.0938 70.6875,110.0938 C68.0625,110.0938 66.0625,112.1719 66.0625,114.8906 L66.0625,116.0156 C66.0625,118.5938 68.1719,120.4844 71.0625,120.4844 C72.2813,120.4844 73.4375,120.1875 74.1875,119.6406 C74.7656,119.2344 75.0938,118.7813 75.0938,118.3906 C75.0938,117.9375 74.7031,117.5469 74.2344,117.5469 C74.0156,117.5469 73.8125,117.625 73.625,117.8125 C73.1719,118.2969 73.1719,118.2969 72.9844,118.3906 C72.5625,118.6563 71.875,118.7813 71.1094,118.7813 C69.0625,118.7813 67.7656,117.6875 67.7656,115.9844 L67.7656,114.8906 C67.7656,113.1094 69.0156,111.7969 70.75,111.7969 C71.3281,111.7969 71.9375,111.9531 72.4063,112.2031 C72.8906,112.4844 73.0625,112.7031 73.1563,113.1094 C73.2188,113.5156 73.25,113.6406 73.3906,113.7656 C73.5313,113.9063 73.7656,114.0156 73.9844,114.0156 C74.25,114.0156 74.5156,113.875 74.6875,113.6563 C74.7969,113.5 74.8281,113.3125 74.8281,112.8906 L74.8281,111.4688 C74.8281,111.0313 74.8125,110.9063 74.7188,110.75 C74.5625,110.4844 74.2813,110.3438 73.9844,110.3438 C73.6875,110.3438 73.4844,110.4375 73.2656,110.75 L73.0938,110.6719 Z " fill="#000000"/><text fill="#000000" font-family="sans-serif" font-size="14" lengthAdjust="spacing" textLength="36" x="91.25" y="119.8467">Error</text><line style="stroke:#181818;stroke-width:0.5;" x1="10" x2="176" y1="131" y2="131"/><polygon fill="none" points="20,139.6484,24,143.6484,20,147.6484,16,143.6484" style="stroke:#B38D22;stroke-width:1.0;"/><text fill="#000000" font-family="sans-serif" font-size="14" lengthAdjust="spacing" textLength="109" x="29" y="147.9951">string message</text><polygon fill="none" points="20,155.9453,24,159.9453,20,163.9453,16,159.9453" style="stroke:#B38D22;stroke-width:1.0;"/><text fill="#000000" font-family="sans-serif" font-size="14" lengthAdjust="spacing" textLength="59" x="29" y="164.292">int code</text><line style="stroke:#181818;stroke-width:0.5;" x1="10" x2="176" y1="171.5938" y2="171.5938"/><ellipse cx="20" cy="185.2422" fill="#84BE84" rx="3" ry="3" style="stroke:#038048;stroke-width:1.0;"/><text fill="#000000" font-family="sans-serif" font-size="14" lengthAdjust="spacing" textLength="142" x="29" y="188.5889">string getMessage()</text><ellipse cx="20" cy="201.5391" fill="#84BE84" rx="3" ry="3" style="stroke:#038048;stroke-width:1.0;"/><text fill="#000000" font-family="sans-serif" font-size="14" lengthAdjust="spacing" textLength="96" x="29" y="204.8857">int getCode()</text></g><!--class Exception--><g id="elem_Exception"><rect codeLine="12" fill="#F1F1F1" height="113.1875" id="Exception" rx="2.5" ry="2.5" style="stroke:#181818;stroke-width:0.5;" width="168" x="212" y="99"/><ellipse cx="255.35" cy="115" fill="#ADD1B2" rx="11" ry="11" style="stroke:#181818;stroke-width:1.0;"/><path d="M257.6938,110.6719 C256.7563,110.2344 256.1625,110.0938 255.2875,110.0938 C252.6625,110.0938 250.6625,112.1719 250.6625,114.8906 L250.6625,116.0156 C250.6625,118.5938 252.7719,120.4844 255.6625,120.4844 C256.8813,120.4844 258.0375,120.1875 258.7875,119.6406 C259.3656,119.2344 259.6938,118.7813 259.6938,118.3906 C259.6938,117.9375 259.3031,117.5469 258.8344,117.5469 C258.6156,117.5469 258.4125,117.625 258.225,117.8125 C257.7719,118.2969 257.7719,118.2969 257.5844,118.3906 C257.1625,118.6563 256.475,118.7813 255.7094,118.7813 C253.6625,118.7813 252.3656,117.6875 252.3656,115.9844 L252.3656,114.8906 C252.3656,113.1094 253.6156,111.7969 255.35,111.7969 C255.9281,111.7969 256.5375,111.9531 257.0063,112.2031 C257.4906,112.4844 257.6625,112.7031 257.7563,113.1094 C257.8188,113.5156 257.85,113.6406 257.9906,113.7656 C258.1313,113.9063 258.3656,114.0156 258.5844,114.0156 C258.85,114.0156 259.1156,113.875 259.2875,113.6563 C259.3969,113.5 259.4281,113.3125 259.4281,112.8906 L259.4281,111.4688 C259.4281,111.0313 259.4125,110.9063 259.3188,110.75 C259.1625,110.4844 258.8813,110.3438 258.5844,110.3438 C258.2875,110.3438 258.0844,110.4375 257.8656,110.75 L257.6938,110.6719 Z " fill="#000000"/><text fill="#000000" font-family="sans-serif" font-size="14" lengthAdjust="spacing" textLength="73" x="275.65" y="119.8467">Exception</text><line style="stroke:#181818;stroke-width:0.5;" x1="213" x2="379" y1="131" y2="131"/><polygon fill="none" points="223,139.6484,227,143.6484,223,147.6484,219,143.6484" style="stroke:#B38D22;stroke-width:1.0;"/><text fill="#000000" font-family="sans-serif" font-size="14" lengthAdjust="spacing" textLength="109" x="232" y="147.9951">string message</text><polygon fill="none" points="223,155.9453,227,159.9453,223,163.9453,219,159.9453" style="stroke:#B38D22;stroke-width:1.0;"/><text fill="#000000" font-family="sans-serif" font-size="14" lengthAdjust="spacing" textLength="59" x="232" y="164.292">int code</text><line style="stroke:#181818;stroke-width:0.5;" x1="213" x2="379" y1="171.5938" y2="171.5938"/><ellipse cx="223" cy="185.2422" fill="#84BE84" rx="3" ry="3" style="stroke:#038048;stroke-width:1.0;"/><text fill="#000000" font-family="sans-serif" font-size="14" lengthAdjust="spacing" textLength="142" x="232" y="188.5889">string getMessage()</text><ellipse cx="223" cy="201.5391" fill="#84BE84" rx="3" ry="3" style="stroke:#038048;stroke-width:1.0;"/><text fill="#000000" font-family="sans-serif" font-size="14" lengthAdjust="spacing" textLength="96" x="232" y="204.8857">int getCode()</text></g><!--class TypeError--><g id="elem_TypeError"><rect codeLine="19" fill="#F1F1F1" height="113.1875" id="TypeError" rx="2.5" ry="2.5" style="stroke:#181818;stroke-width:0.5;" width="168" x="9" y="322.5"/><ellipse cx="52.8" cy="338.5" fill="#ADD1B2" rx="11" ry="11" style="stroke:#181818;stroke-width:1.0;"/><path d="M55.1438,334.1719 C54.2063,333.7344 53.6125,333.5938 52.7375,333.5938 C50.1125,333.5938 48.1125,335.6719 48.1125,338.3906 L48.1125,339.5156 C48.1125,342.0938 50.2219,343.9844 53.1125,343.9844 C54.3313,343.9844 55.4875,343.6875 56.2375,343.1406 C56.8156,342.7344 57.1438,342.2813 57.1438,341.8906 C57.1438,341.4375 56.7531,341.0469 56.2844,341.0469 C56.0656,341.0469 55.8625,341.125 55.675,341.3125 C55.2219,341.7969 55.2219,341.7969 55.0344,341.8906 C54.6125,342.1563 53.925,342.2813 53.1594,342.2813 C51.1125,342.2813 49.8156,341.1875 49.8156,339.4844 L49.8156,338.3906 C49.8156,336.6094 51.0656,335.2969 52.8,335.2969 C53.3781,335.2969 53.9875,335.4531 54.4563,335.7031 C54.9406,335.9844 55.1125,336.2031 55.2063,336.6094 C55.2688,337.0156 55.3,337.1406 55.4406,337.2656 C55.5813,337.4063 55.8156,337.5156 56.0344,337.5156 C56.3,337.5156 56.5656,337.375 56.7375,337.1563 C56.8469,337 56.8781,336.8125 56.8781,336.3906 L56.8781,334.9688 C56.8781,334.5313 56.8625,334.4063 56.7688,334.25 C56.6125,333.9844 56.3313,333.8438 56.0344,333.8438 C55.7375,333.8438 55.5344,333.9375 55.3156,334.25 L55.1438,334.1719 Z " fill="#000000"/><text fill="#000000" font-family="sans-serif" font-size="14" lengthAdjust="spacing" textLength="72" x="73.2" y="343.3467">TypeError</text><line style="stroke:#181818;stroke-width:0.5;" x1="10" x2="176" y1="354.5" y2="354.5"/><polygon fill="none" points="20,363.1484,24,367.1484,20,371.1484,16,367.1484" style="stroke:#B38D22;stroke-width:1.0;"/><text fill="#000000" font-family="sans-serif" font-size="14" lengthAdjust="spacing" textLength="109" x="29" y="371.4951">string message</text><polygon fill="none" points="20,379.4453,24,383.4453,20,387.4453,16,383.4453" style="stroke:#B38D22;stroke-width:1.0;"/><text fill="#000000" font-family="sans-serif" font-size="14" lengthAdjust="spacing" textLength="59" x="29" y="387.792">int code</text><line style="stroke:#181818;stroke-width:0.5;" x1="10" x2="176" y1="395.0938" y2="395.0938"/><ellipse cx="20" cy="408.7422" fill="#84BE84" rx="3" ry="3" style="stroke:#038048;stroke-width:1.0;"/><text fill="#000000" font-family="sans-serif" font-size="14" lengthAdjust="spacing" textLength="142" x="29" y="412.0889">string getMessage()</text><ellipse cx="20" cy="425.0391" fill="#84BE84" rx="3" ry="3" style="stroke:#038048;stroke-width:1.0;"/><text fill="#000000" font-family="sans-serif" font-size="14" lengthAdjust="spacing" textLength="96" x="29" y="428.3857">int getCode()</text></g><!--class LogicException--><g id="elem_LogicException"><rect codeLine="26" fill="#F1F1F1" height="113.1875" id="LogicException" rx="2.5" ry="2.5" style="stroke:#181818;stroke-width:0.5;" width="168" x="212" y="322.5"/><ellipse cx="238.25" cy="338.5" fill="#ADD1B2" rx="11" ry="11" style="stroke:#181818;stroke-width:1.0;"/><path d="M240.5938,334.1719 C239.6563,333.7344 239.0625,333.5938 238.1875,333.5938 C235.5625,333.5938 233.5625,335.6719 233.5625,338.3906 L233.5625,339.5156 C233.5625,342.0938 235.6719,343.9844 238.5625,343.9844 C239.7813,343.9844 240.9375,343.6875 241.6875,343.1406 C242.2656,342.7344 242.5938,342.2813 242.5938,341.8906 C242.5938,341.4375 242.2031,341.0469 241.7344,341.0469 C241.5156,341.0469 241.3125,341.125 241.125,341.3125 C240.6719,341.7969 240.6719,341.7969 240.4844,341.8906 C240.0625,342.1563 239.375,342.2813 238.6094,342.2813 C236.5625,342.2813 235.2656,341.1875 235.2656,339.4844 L235.2656,338.3906 C235.2656,336.6094 236.5156,335.2969 238.25,335.2969 C238.8281,335.2969 239.4375,335.4531 239.9063,335.7031 C240.3906,335.9844 240.5625,336.2031 240.6563,336.6094 C240.7188,337.0156 240.75,337.1406 240.8906,337.2656 C241.0313,337.4063 241.2656,337.5156 241.4844,337.5156 C241.75,337.5156 242.0156,337.375 242.1875,337.1563 C242.2969,337 242.3281,336.8125 242.3281,336.3906 L242.3281,334.9688 C242.3281,334.5313 242.3125,334.4063 242.2188,334.25 C242.0625,333.9844 241.7813,333.8438 241.4844,333.8438 C241.1875,333.8438 240.9844,333.9375 240.7656,334.25 L240.5938,334.1719 Z " fill="#000000"/><text fill="#000000" font-family="sans-serif" font-size="14" lengthAdjust="spacing" textLength="111" x="254.75" y="343.3467">LogicException</text><line style="stroke:#181818;stroke-width:0.5;" x1="213" x2="379" y1="354.5" y2="354.5"/><polygon fill="none" points="223,363.1484,227,367.1484,223,371.1484,219,367.1484" style="stroke:#B38D22;stroke-width:1.0;"/><text fill="#000000" font-family="sans-serif" font-size="14" lengthAdjust="spacing" textLength="109" x="232" y="371.4951">string message</text><polygon fill="none" points="223,379.4453,227,383.4453,223,387.4453,219,383.4453" style="stroke:#B38D22;stroke-width:1.0;"/><text fill="#000000" font-family="sans-serif" font-size="14" lengthAdjust="spacing" textLength="59" x="232" y="387.792">int code</text><line style="stroke:#181818;stroke-width:0.5;" x1="213" x2="379" y1="395.0938" y2="395.0938"/><ellipse cx="223" cy="408.7422" fill="#84BE84" rx="3" ry="3" style="stroke:#038048;stroke-width:1.0;"/><text fill="#000000" font-family="sans-serif" font-size="14" lengthAdjust="spacing" textLength="142" x="232" y="412.0889">string getMessage()</text><ellipse cx="223" cy="425.0391" fill="#84BE84" rx="3" ry="3" style="stroke:#038048;stroke-width:1.0;"/><text fill="#000000" font-family="sans-serif" font-size="14" lengthAdjust="spacing" textLength="96" x="232" y="428.3857">int getCode()</text></g><!--reverse link Throwable to Error--><g id="link_Throwable_Error"><path d="M169.842,55.214 C159.7,68.318 147.59,83.966 136.016,98.92 " fill="none" id="Throwable-backto-Error" style="stroke:#181818;stroke-width:1.0;stroke-dasharray:7.0,7.0;"/><polygon fill="none" points="164.44,50.757,182.216,39.225,175.511,59.326,164.44,50.757" style="stroke:#181818;stroke-width:1.0;"/></g><!--reverse link Throwable to Exception--><g id="link_Throwable_Exception"><path d="M218.397,55.214 C228.64,68.318 240.87,83.966 252.559,98.92 " fill="none" id="Throwable-backto-Exception" style="stroke:#181818;stroke-width:1.0;stroke-dasharray:7.0,7.0;"/><polygon fill="none" points="212.702,59.294,205.9,39.225,223.732,50.672,212.702,59.294" style="stroke:#181818;stroke-width:1.0;"/></g><!--reverse link Error to TypeError--><g id="link_Error_TypeError"><path d="M93,232.338 C93,261.88 93,295.114 93,322.369 " fill="none" id="Error-backto-TypeError" style="stroke:#181818;stroke-width:1.0;"/><polygon fill="none" points="86.0001,232.108,93,212.108,100.0001,232.108,86.0001,232.108" style="stroke:#181818;stroke-width:1.0;"/></g><!--reverse link Exception to LogicException--><g id="link_Exception_LogicException"><path d="M296,232.338 C296,261.88 296,295.114 296,322.369 " fill="none" id="Exception-backto-LogicException" style="stroke:#181818;stroke-width:1.0;"/><polygon fill="none" points="289,232.108,296,212.108,303,232.108,289,232.108" style="stroke:#181818;stroke-width:1.0;"/></g><!--reverse link Exception to ValidationException--><g id="link_Exception_ValidationException"><path d="M395.873,218.139 C396.588,218.757 397.298,219.377 398,220 C426.442,245.213 453.49,277.273 475.257,305.916 " fill="none" id="Exception-backto-ValidationException" style="stroke:#181818;stroke-width:1.0;"/><polygon fill="none" points="391.349,223.485,380.066,205.549,400.071,212.534,391.349,223.485" style="stroke:#181818;stroke-width:1.0;"/></g><!--SRC=[lP7D2i8m48JlUOe5BugF8Hu4lHKluY6cQxkOdvB4FwJlRj8srIBYfHW8X6ycp4v2sgCzSe6GbTPS-K4YF5ZDIihVaK9rGEiO4v8x1qjhZGLIbKI5shl1PO29yvPq4MuvnmkCXBG7OV9uddTgWNxJ6gQpYACbi4Lm1L3tMJU1bIUZ_vINtIji- -7DeyvJsz63rgOWyMhNf_LanCIAYrDGOINbMP7cldsuXBTSKixxK81smXV-DMPSayuUtkgIJadwQD7GjoPnVMdJICD60_zk3nX_o7L2pUAkdm00]--></g></svg>