<?xml version="1.0" encoding="UTF-8" standalone="no"?><svg xmlns="http://www.w3.org/2000/svg" xmlns:xlink="http://www.w3.org/1999/xlink" contentStyleType="text/css" height="310px" preserveAspectRatio="none" style="width:552px;height:310px;background:#FFFFFF;" version="1.1" viewBox="0 0 552 310" width="552px" zoomAndPan="magnify"><defs/><g><!--cluster Carbon--><g id="cluster_Carbon"><path d="M8.5,188 L66.5,188 A3.75,3.75 0 0 1 69,190.5 L76,210.2969 L542.5,210.2969 A2.5,2.5 0 0 1 545,212.7969 L545,300.5 A2.5,2.5 0 0 1 542.5,303 L8.5,303 A2.5,2.5 0 0 1 6,300.5 L6,190.5 A2.5,2.5 0 0 1 8.5,188 " fill="none" style="stroke:#000000;stroke-width:1.5;"/><line style="stroke:#000000;stroke-width:1.5;" x1="6" x2="76" y1="210.2969" y2="210.2969"/><text fill="#000000" font-family="sans-serif" font-size="14" font-weight="bold" lengthAdjust="spacing" textLength="57" x="10" y="202.9951">Carbon</text></g><!--class Carbon--><g id="elem_Carbon"><rect codeLine="14" fill="#F1F1F1" height="64.2969" id="Carbon" rx="2.5" ry="2.5" style="stroke:#181818;stroke-width:0.5;" width="236" x="22" y="223"/><ellipse cx="109.75" cy="239" fill="#ADD1B2" rx="11" ry="11" style="stroke:#181818;stroke-width:1.0;"/><path d="M112.0938,234.6719 C111.1563,234.2344 110.5625,234.0938 109.6875,234.0938 C107.0625,234.0938 105.0625,236.1719 105.0625,238.8906 L105.0625,240.0156 C105.0625,242.5938 107.1719,244.4844 110.0625,244.4844 C111.2813,244.4844 112.4375,244.1875 113.1875,243.6406 C113.7656,243.2344 114.0938,242.7813 114.0938,242.3906 C114.0938,241.9375 113.7031,241.5469 113.2344,241.5469 C113.0156,241.5469 112.8125,241.625 112.625,241.8125 C112.1719,242.2969 112.1719,242.2969 111.9844,242.3906 C111.5625,242.6563 110.875,242.7813 110.1094,242.7813 C108.0625,242.7813 106.7656,241.6875 106.7656,239.9844 L106.7656,238.8906 C106.7656,237.1094 108.0156,235.7969 109.75,235.7969 C110.3281,235.7969 110.9375,235.9531 111.4063,236.2031 C111.8906,236.4844 112.0625,236.7031 112.1563,237.1094 C112.2188,237.5156 112.25,237.6406 112.3906,237.7656 C112.5313,237.9063 112.7656,238.0156 112.9844,238.0156 C113.25,238.0156 113.5156,237.875 113.6875,237.6563 C113.7969,237.5 113.8281,237.3125 113.8281,236.8906 L113.8281,235.4688 C113.8281,235.0313 113.8125,234.9063 113.7188,234.75 C113.5625,234.4844 113.2813,234.3438 112.9844,234.3438 C112.6875,234.3438 112.4844,234.4375 112.2656,234.75 L112.0938,234.6719 Z " fill="#000000"/><text fill="#000000" font-family="sans-serif" font-size="14" lengthAdjust="spacing" textLength="52" x="130.25" y="243.8467">Carbon</text><line style="stroke:#181818;stroke-width:0.5;" x1="23" x2="257" y1="255" y2="255"/><line style="stroke:#181818;stroke-width:0.5;" x1="23" x2="257" y1="263" y2="263"/><ellipse cx="33" cy="276.6484" fill="#84BE84" rx="3" ry="3" style="stroke:#038048;stroke-width:1.0;"/><text fill="#000000" font-family="sans-serif" font-size="14" lengthAdjust="spacing" textLength="210" x="42" y="279.9951">string format(string $format)</text></g><!--class CarbonImmutable--><g id="elem_CarbonImmutable"><rect codeLine="17" fill="#F1F1F1" height="64.2969" id="CarbonImmutable" rx="2.5" ry="2.5" style="stroke:#181818;stroke-width:0.5;" width="236" x="293" y="223"/><ellipse cx="341.75" cy="239" fill="#ADD1B2" rx="11" ry="11" style="stroke:#181818;stroke-width:1.0;"/><path d="M344.0938,234.6719 C343.1563,234.2344 342.5625,234.0938 341.6875,234.0938 C339.0625,234.0938 337.0625,236.1719 337.0625,238.8906 L337.0625,240.0156 C337.0625,242.5938 339.1719,244.4844 342.0625,244.4844 C343.2813,244.4844 344.4375,244.1875 345.1875,243.6406 C345.7656,243.2344 346.0938,242.7813 346.0938,242.3906 C346.0938,241.9375 345.7031,241.5469 345.2344,241.5469 C345.0156,241.5469 344.8125,241.625 344.625,241.8125 C344.1719,242.2969 344.1719,242.2969 343.9844,242.3906 C343.5625,242.6563 342.875,242.7813 342.1094,242.7813 C340.0625,242.7813 338.7656,241.6875 338.7656,239.9844 L338.7656,238.8906 C338.7656,237.1094 340.0156,235.7969 341.75,235.7969 C342.3281,235.7969 342.9375,235.9531 343.4063,236.2031 C343.8906,236.4844 344.0625,236.7031 344.1563,237.1094 C344.2188,237.5156 344.25,237.6406 344.3906,237.7656 C344.5313,237.9063 344.7656,238.0156 344.9844,238.0156 C345.25,238.0156 345.5156,237.875 345.6875,237.6563 C345.7969,237.5 345.8281,237.3125 345.8281,236.8906 L345.8281,235.4688 C345.8281,235.0313 345.8125,234.9063 345.7188,234.75 C345.5625,234.4844 345.2813,234.3438 344.9844,234.3438 C344.6875,234.3438 344.4844,234.4375 344.2656,234.75 L344.0938,234.6719 Z " fill="#000000"/><text fill="#000000" font-family="sans-serif" font-size="14" lengthAdjust="spacing" textLength="130" x="362.25" y="243.8467">CarbonImmutable</text><line style="stroke:#181818;stroke-width:0.5;" x1="294" x2="528" y1="255" y2="255"/><line style="stroke:#181818;stroke-width:0.5;" x1="294" x2="528" y1="263" y2="263"/><ellipse cx="304" cy="276.6484" fill="#84BE84" rx="3" ry="3" style="stroke:#038048;stroke-width:1.0;"/><text fill="#000000" font-family="sans-serif" font-size="14" lengthAdjust="spacing" textLength="210" x="313" y="279.9951">string format(string $format)</text></g><!--class DateTimeInterface--><g id="elem_DateTimeInterface"><rect codeLine="1" fill="#F1F1F1" height="32" id="DateTimeInterface" rx="2.5" ry="2.5" style="stroke:#181818;stroke-width:0.5;" width="166" x="192" y="7"/><ellipse cx="207" cy="23" fill="#B4A7E5" rx="11" ry="11" style="stroke:#181818;stroke-width:1.0;"/><path d="M207.9531,19.7813 L209.6719,19.7813 C210.0625,19.7813 210.25,19.75 210.375,19.6719 C210.6406,19.5156 210.7813,19.2344 210.7813,18.9375 C210.7813,18.6719 210.6719,18.4063 210.4375,18.2344 C210.2656,18.125 210.125,18.0938 209.6719,18.0938 L204.5313,18.0938 C204.0938,18.0938 203.9688,18.1094 203.8125,18.2031 C203.5625,18.3594 203.4063,18.6563 203.4063,18.9375 C203.4063,19.2188 203.5469,19.4688 203.7656,19.6406 C203.9219,19.75 204.1094,19.7813 204.5313,19.7813 L206.25,19.7813 L206.25,26.2969 L204.5313,26.2969 C204.0938,26.2969 203.9688,26.3125 203.8125,26.4219 C203.5625,26.5781 203.4063,26.8594 203.4063,27.1563 C203.4063,27.4063 203.5469,27.6719 203.7656,27.8281 C203.9219,27.9531 204.125,28 204.5313,28 L209.6719,28 C210.4219,28 210.7813,27.7188 210.7813,27.1563 C210.7813,26.875 210.6719,26.625 210.4375,26.4531 C210.2656,26.3281 210.125,26.2969 209.6719,26.2969 L207.9531,26.2969 L207.9531,19.7813 Z " fill="#000000"/><text fill="#000000" font-family="sans-serif" font-size="14" font-style="italic" lengthAdjust="spacing" textLength="134" x="221" y="27.8467">DateTimeInterface</text></g><!--class DateTime--><g id="elem_DateTime"><rect codeLine="5" fill="#F1F1F1" height="64.2969" id="DateTime" rx="2.5" ry="2.5" style="stroke:#181818;stroke-width:0.5;" width="236" x="22" y="99"/><ellipse cx="100.25" cy="115" fill="#ADD1B2" rx="11" ry="11" style="stroke:#181818;stroke-width:1.0;"/><path d="M102.5938,110.6719 C101.6563,110.2344 101.0625,110.0938 100.1875,110.0938 C97.5625,110.0938 95.5625,112.1719 95.5625,114.8906 L95.5625,116.0156 C95.5625,118.5938 97.6719,120.4844 100.5625,120.4844 C101.7813,120.4844 102.9375,120.1875 103.6875,119.6406 C104.2656,119.2344 104.5938,118.7813 104.5938,118.3906 C104.5938,117.9375 104.2031,117.5469 103.7344,117.5469 C103.5156,117.5469 103.3125,117.625 103.125,117.8125 C102.6719,118.2969 102.6719,118.2969 102.4844,118.3906 C102.0625,118.6563 101.375,118.7813 100.6094,118.7813 C98.5625,118.7813 97.2656,117.6875 97.2656,115.9844 L97.2656,114.8906 C97.2656,113.1094 98.5156,111.7969 100.25,111.7969 C100.8281,111.7969 101.4375,111.9531 101.9063,112.2031 C102.3906,112.4844 102.5625,112.7031 102.6563,113.1094 C102.7188,113.5156 102.75,113.6406 102.8906,113.7656 C103.0313,113.9063 103.2656,114.0156 103.4844,114.0156 C103.75,114.0156 104.0156,113.875 104.1875,113.6563 C104.2969,113.5 104.3281,113.3125 104.3281,112.8906 L104.3281,111.4688 C104.3281,111.0313 104.3125,110.9063 104.2188,110.75 C104.0625,110.4844 103.7813,110.3438 103.4844,110.3438 C103.1875,110.3438 102.9844,110.4375 102.7656,110.75 L102.5938,110.6719 Z " fill="#000000"/><text fill="#000000" font-family="sans-serif" font-size="14" lengthAdjust="spacing" textLength="71" x="120.75" y="119.8467">DateTime</text><line style="stroke:#181818;stroke-width:0.5;" x1="23" x2="257" y1="131" y2="131"/><line style="stroke:#181818;stroke-width:0.5;" x1="23" x2="257" y1="139" y2="139"/><ellipse cx="33" cy="152.6484" fill="#84BE84" rx="3" ry="3" style="stroke:#038048;stroke-width:1.0;"/><text fill="#000000" font-family="sans-serif" font-size="14" lengthAdjust="spacing" textLength="210" x="42" y="155.9951">string format(string $format)</text></g><!--class DateTimeImmutable--><g id="elem_DateTimeImmutable"><rect codeLine="9" fill="#F1F1F1" height="64.2969" id="DateTimeImmutable" rx="2.5" ry="2.5" style="stroke:#181818;stroke-width:0.5;" width="236" x="293" y="99"/><ellipse cx="332.75" cy="115" fill="#ADD1B2" rx="11" ry="11" style="stroke:#181818;stroke-width:1.0;"/><path d="M335.0938,110.6719 C334.1563,110.2344 333.5625,110.0938 332.6875,110.0938 C330.0625,110.0938 328.0625,112.1719 328.0625,114.8906 L328.0625,116.0156 C328.0625,118.5938 330.1719,120.4844 333.0625,120.4844 C334.2813,120.4844 335.4375,120.1875 336.1875,119.6406 C336.7656,119.2344 337.0938,118.7813 337.0938,118.3906 C337.0938,117.9375 336.7031,117.5469 336.2344,117.5469 C336.0156,117.5469 335.8125,117.625 335.625,117.8125 C335.1719,118.2969 335.1719,118.2969 334.9844,118.3906 C334.5625,118.6563 333.875,118.7813 333.1094,118.7813 C331.0625,118.7813 329.7656,117.6875 329.7656,115.9844 L329.7656,114.8906 C329.7656,113.1094 331.0156,111.7969 332.75,111.7969 C333.3281,111.7969 333.9375,111.9531 334.4063,112.2031 C334.8906,112.4844 335.0625,112.7031 335.1563,113.1094 C335.2188,113.5156 335.25,113.6406 335.3906,113.7656 C335.5313,113.9063 335.7656,114.0156 335.9844,114.0156 C336.25,114.0156 336.5156,113.875 336.6875,113.6563 C336.7969,113.5 336.8281,113.3125 336.8281,112.8906 L336.8281,111.4688 C336.8281,111.0313 336.8125,110.9063 336.7188,110.75 C336.5625,110.4844 336.2813,110.3438 335.9844,110.3438 C335.6875,110.3438 335.4844,110.4375 335.2656,110.75 L335.0938,110.6719 Z " fill="#000000"/><text fill="#000000" font-family="sans-serif" font-size="14" lengthAdjust="spacing" textLength="149" x="352.25" y="119.8467">DateTimeImmutable</text><line style="stroke:#181818;stroke-width:0.5;" x1="294" x2="528" y1="131" y2="131"/><line style="stroke:#181818;stroke-width:0.5;" x1="294" x2="528" y1="139" y2="139"/><ellipse cx="304" cy="152.6484" fill="#84BE84" rx="3" ry="3" style="stroke:#038048;stroke-width:1.0;"/><text fill="#000000" font-family="sans-serif" font-size="14" lengthAdjust="spacing" textLength="210" x="313" y="155.9951">string format(string $format)</text></g><!--reverse link DateTimeInterface to DateTime--><g id="link_DateTimeInterface_DateTime"><path d="M239.817,51.625 C221.362,66.115 198.69,83.918 179.619,98.892 " fill="none" id="DateTimeInterface-backto-DateTime" style="stroke:#181818;stroke-width:1.0;stroke-dasharray:7.0,7.0;"/><polygon fill="none" points="235.604,46.033,255.658,39.187,244.25,57.044,235.604,46.033" style="stroke:#181818;stroke-width:1.0;"/></g><!--reverse link DateTimeInterface to DateTimeImmutable--><g id="link_DateTimeInterface_DateTimeImmutable"><path d="M310.444,51.625 C329.035,66.115 351.876,83.918 371.087,98.892 " fill="none" id="DateTimeInterface-backto-DateTimeImmutable" style="stroke:#181818;stroke-width:1.0;stroke-dasharray:7.0,7.0;"/><polygon fill="none" points="305.957,57.003,294.485,39.187,314.563,45.961,305.957,57.003" style="stroke:#181818;stroke-width:1.0;"/></g><!--reverse link DateTime to Carbon--><g id="link_DateTime_Carbon"><path d="M140,183.341 C140,196.806 140,210.916 140,222.9554 " fill="none" id="DateTime-backto-Carbon" style="stroke:#181818;stroke-width:1.0;"/><polygon fill="none" points="133,183.101,140,163.101,147,183.101,133,183.101" style="stroke:#181818;stroke-width:1.0;"/></g><!--reverse link DateTimeImmutable to CarbonImmutable--><g id="link_DateTimeImmutable_CarbonImmutable"><path d="M411,183.341 C411,196.806 411,210.916 411,222.9554 " fill="none" id="DateTimeImmutable-backto-CarbonImmutable" style="stroke:#181818;stroke-width:1.0;"/><polygon fill="none" points="404,183.101,411,163.101,418,183.101,404,183.101" style="stroke:#181818;stroke-width:1.0;"/></g><!--SRC=[hO-z3i8m38JtF8K71X2F0KjtNi1fhoKYJgl4I4WexyvFgnP5bM1WzDtvEzi5HMov1XrPSNA2QbRk9fkpQzOiWLZ4P4pjEQKvG4u63q7GjCeZsYUDBdJKzb5OjzEq6SVTix0WLY9NPUl_WXwuld07Ed2qVNWlZMsJW9iYD1_ll19VmKIv02r7byJ5-HcT7m00]--></g></svg>