<?xml version="1.0" standalone="no"?>
<!DOCTYPE svg PUBLIC "-//W3C//DTD SVG 20010904//EN"
 "http://www.w3.org/TR/2001/REC-SVG-20010904/DTD/svg10.dtd">
<svg version="1.0" xmlns="http://www.w3.org/2000/svg"
 width="832.000000pt" height="250.000000pt" viewBox="0 0 832.000000 250.000000"
 preserveAspectRatio="xMidYMid meet">

<g transform="translate(0.000000,250.000000) scale(0.100000,-0.100000)"
fill="#000000" stroke="none">
    <!-- E -->
    <g transform="translate(0,0)">
        <path d="
            M0 1635 L1635 1635
            M0 1255 L1635 1255
            M0 870 L1635 870
        " fill="none" stroke="#000000" stroke-width="200"/>
    </g>
    <!-- P -->
    <g transform="translate(2100,0)">
        <path d="
            M0 1920
                L0 2020
                L800 2020
            M800 1250
                L0 1250
                L0 400
        " fill="none" stroke="#000000" stroke-width="200"/>
        <g transform="translate(780,0)">
            <clipPath id="cut-off-bottom">
                <rect x="0" y="1150" width="500" height="1000" />
            </clipPath>
            <circle cx="0" cy="1635" r="385" fill="none" stroke="#000000" stroke-width="200" clip-path="url(#cut-off-bottom)"/>
        </g>
    </g>
    <!-- K -->
    <g transform="translate(3780,0)">
        <path d="
            M0 0 L0 2500
            M850 -100 L290 1250 850 2600
        " fill="none" stroke="#000000" stroke-width="200"/>
    </g>
    <!-- O -->
    <g transform="translate(4745,0)">
        <circle cx="765" cy="1250" r="765" fill="none" stroke="#000000" stroke-width="200" />
    </g>
    <!-- T -->
    <g transform="translate(6600,0)">
        <path d="
            M0 1635 L1715 1635
            M858 1635 L858 770
        " fill="none" stroke="#000000" stroke-width="200"/>
    </g>
</g>
</svg>
