<?xml version="1.0" encoding="UTF-8" standalone="no"?><svg xmlns="http://www.w3.org/2000/svg" xmlns:xlink="http://www.w3.org/1999/xlink" contentScriptType="application/ecmascript" contentStyleType="text/css" height="180px" preserveAspectRatio="none" style="width:434px;height:180px;background:#FFFFFF;" version="1.1" viewBox="0 0 434 180" width="434px" zoomAndPan="magnify"><defs/><g><rect fill="#E0E8E8" height="100.8281" style="stroke:none;stroke-width:1.0;" width="32" x="48" y="41"/><rect fill="#E0E8E8" height="100.8281" style="stroke:none;stroke-width:1.0;" width="32" x="160" y="41"/><rect fill="#E0E8E8" height="100.8281" style="stroke:none;stroke-width:1.0;" width="32" x="272" y="41"/><rect fill="#E0E8E8" height="100.8281" style="stroke:none;stroke-width:1.0;" width="32" x="384" y="41"/><text fill="#000000" font-family="Serif" font-size="10" lengthAdjust="spacing" textLength="10" x="3" y="25.2822">水</text><text fill="#000000" font-family="Serif" font-size="10" lengthAdjust="spacing" textLength="10" x="19" y="25.2822">木</text><text fill="#000000" font-family="Serif" font-size="10" lengthAdjust="spacing" textLength="10" x="35" y="25.2822">金</text><text fill="#909898" font-family="Serif" font-size="10" lengthAdjust="spacing" textLength="10" x="51" y="25.2822">土</text><text fill="#909898" font-family="Serif" font-size="10" lengthAdjust="spacing" textLength="10" x="67" y="25.2822">日</text><text fill="#000000" font-family="Serif" font-size="10" lengthAdjust="spacing" textLength="10" x="83" y="25.2822">月</text><text fill="#000000" font-family="Serif" font-size="10" lengthAdjust="spacing" textLength="10" x="99" y="25.2822">火</text><text fill="#000000" font-family="Serif" font-size="10" lengthAdjust="spacing" textLength="10" x="115" y="25.2822">水</text><text fill="#000000" font-family="Serif" font-size="10" lengthAdjust="spacing" textLength="10" x="131" y="25.2822">木</text><text fill="#000000" font-family="Serif" font-size="10" lengthAdjust="spacing" textLength="10" x="147" y="25.2822">金</text><text fill="#909898" font-family="Serif" font-size="10" lengthAdjust="spacing" textLength="10" x="163" y="25.2822">土</text><text fill="#909898" font-family="Serif" font-size="10" lengthAdjust="spacing" textLength="10" x="179" y="25.2822">日</text><text fill="#000000" font-family="Serif" font-size="10" lengthAdjust="spacing" textLength="10" x="195" y="25.2822">月</text><text fill="#000000" font-family="Serif" font-size="10" lengthAdjust="spacing" textLength="10" x="211" y="25.2822">火</text><text fill="#000000" font-family="Serif" font-size="10" lengthAdjust="spacing" textLength="10" x="227" y="25.2822">水</text><text fill="#000000" font-family="Serif" font-size="10" lengthAdjust="spacing" textLength="10" x="243" y="25.2822">木</text><text fill="#000000" font-family="Serif" font-size="10" lengthAdjust="spacing" textLength="10" x="259" y="25.2822">金</text><text fill="#909898" font-family="Serif" font-size="10" lengthAdjust="spacing" textLength="10" x="275" y="25.2822">土</text><text fill="#909898" font-family="Serif" font-size="10" lengthAdjust="spacing" textLength="10" x="291" y="25.2822">日</text><text fill="#000000" font-family="Serif" font-size="10" lengthAdjust="spacing" textLength="10" x="307" y="25.2822">月</text><text fill="#000000" font-family="Serif" font-size="10" lengthAdjust="spacing" textLength="10" x="323" y="25.2822">火</text><text fill="#000000" font-family="Serif" font-size="10" lengthAdjust="spacing" textLength="10" x="339" y="25.2822">水</text><text fill="#000000" font-family="Serif" font-size="10" lengthAdjust="spacing" textLength="10" x="355" y="25.2822">木</text><text fill="#000000" font-family="Serif" font-size="10" lengthAdjust="spacing" textLength="10" x="371" y="25.2822">金</text><text fill="#909898" font-family="Serif" font-size="10" lengthAdjust="spacing" textLength="10" x="387" y="25.2822">土</text><text fill="#909898" font-family="Serif" font-size="10" lengthAdjust="spacing" textLength="10" x="403" y="25.2822">日</text><text fill="#000000" font-family="Serif" font-size="10" lengthAdjust="spacing" textLength="10" x="419" y="25.2822">月</text><text fill="#000000" font-family="Serif" font-size="10" lengthAdjust="spacing" textLength="7" x="4.5" y="37.2822">1</text><text fill="#000000" font-family="Serif" font-size="10" lengthAdjust="spacing" textLength="6" x="21" y="37.2822">2</text><text fill="#000000" font-family="Serif" font-size="10" lengthAdjust="spacing" textLength="7" x="36.5" y="37.2822">3</text><text fill="#909898" font-family="Serif" font-size="10" lengthAdjust="spacing" textLength="7" x="52.5" y="37.2822">4</text><text fill="#909898" font-family="Serif" font-size="10" lengthAdjust="spacing" textLength="6" x="69" y="37.2822">5</text><text fill="#000000" font-family="Serif" font-size="10" lengthAdjust="spacing" textLength="7" x="84.5" y="37.2822">6</text><text fill="#000000" font-family="Serif" font-size="10" lengthAdjust="spacing" textLength="7" x="100.5" y="37.2822">7</text><text fill="#000000" font-family="Serif" font-size="10" lengthAdjust="spacing" textLength="7" x="116.5" y="37.2822">8</text><text fill="#000000" font-family="Serif" font-size="10" lengthAdjust="spacing" textLength="7" x="132.5" y="37.2822">9</text><text fill="#000000" font-family="Serif" font-size="10" lengthAdjust="spacing" textLength="14" x="145" y="37.2822">10</text><text fill="#909898" font-family="Serif" font-size="10" lengthAdjust="spacing" textLength="14" x="161" y="37.2822">11</text><text fill="#909898" font-family="Serif" font-size="10" lengthAdjust="spacing" textLength="13" x="177.5" y="37.2822">12</text><text fill="#000000" font-family="Serif" font-size="10" lengthAdjust="spacing" textLength="14" x="193" y="37.2822">13</text><text fill="#000000" font-family="Serif" font-size="10" lengthAdjust="spacing" textLength="14" x="209" y="37.2822">14</text><text fill="#000000" font-family="Serif" font-size="10" lengthAdjust="spacing" textLength="13" x="225.5" y="37.2822">15</text><text fill="#000000" font-family="Serif" font-size="10" lengthAdjust="spacing" textLength="14" x="241" y="37.2822">16</text><text fill="#000000" font-family="Serif" font-size="10" lengthAdjust="spacing" textLength="14" x="257" y="37.2822">17</text><text fill="#909898" font-family="Serif" font-size="10" lengthAdjust="spacing" textLength="14" x="273" y="37.2822">18</text><text fill="#909898" font-family="Serif" font-size="10" lengthAdjust="spacing" textLength="14" x="289" y="37.2822">19</text><text fill="#000000" font-family="Serif" font-size="10" lengthAdjust="spacing" textLength="13" x="305.5" y="37.2822">20</text><text fill="#000000" font-family="Serif" font-size="10" lengthAdjust="spacing" textLength="13" x="321.5" y="37.2822">21</text><text fill="#000000" font-family="Serif" font-size="10" lengthAdjust="spacing" textLength="12" x="338" y="37.2822">22</text><text fill="#000000" font-family="Serif" font-size="10" lengthAdjust="spacing" textLength="13" x="353.5" y="37.2822">23</text><text fill="#000000" font-family="Serif" font-size="10" lengthAdjust="spacing" textLength="13" x="369.5" y="37.2822">24</text><text fill="#909898" font-family="Serif" font-size="10" lengthAdjust="spacing" textLength="12" x="386" y="37.2822">25</text><text fill="#909898" font-family="Serif" font-size="10" lengthAdjust="spacing" textLength="13" x="401.5" y="37.2822">26</text><text fill="#000000" font-family="Serif" font-size="10" lengthAdjust="spacing" textLength="13" x="417.5" y="37.2822">27</text><text fill="#000000" font-family="Serif" font-size="12" font-weight="bold" lengthAdjust="spacing" textLength="69" x="181.5" y="11.2676">12月 2021</text><line style="stroke:#C0C0C0;stroke-width:1.0;" x1="0" x2="0" y1="41" y2="141.8281"/><line style="stroke:#C0C0C0;stroke-width:1.0;" x1="16" x2="16" y1="41" y2="141.8281"/><line style="stroke:#C0C0C0;stroke-width:1.0;" x1="32" x2="32" y1="41" y2="141.8281"/><line style="stroke:#C0C0C0;stroke-width:1.0;" x1="48" x2="48" y1="41" y2="141.8281"/><line style="stroke:#C0C0C0;stroke-width:1.0;" x1="64" x2="64" y1="41" y2="141.8281"/><line style="stroke:#C0C0C0;stroke-width:1.0;" x1="80" x2="80" y1="41" y2="141.8281"/><line style="stroke:#C0C0C0;stroke-width:1.0;" x1="96" x2="96" y1="41" y2="141.8281"/><line style="stroke:#C0C0C0;stroke-width:1.0;" x1="112" x2="112" y1="41" y2="141.8281"/><line style="stroke:#C0C0C0;stroke-width:1.0;" x1="128" x2="128" y1="41" y2="141.8281"/><line style="stroke:#C0C0C0;stroke-width:1.0;" x1="144" x2="144" y1="41" y2="141.8281"/><line style="stroke:#C0C0C0;stroke-width:1.0;" x1="160" x2="160" y1="41" y2="141.8281"/><line style="stroke:#C0C0C0;stroke-width:1.0;" x1="176" x2="176" y1="41" y2="141.8281"/><line style="stroke:#C0C0C0;stroke-width:1.0;" x1="192" x2="192" y1="41" y2="141.8281"/><line style="stroke:#C0C0C0;stroke-width:1.0;" x1="208" x2="208" y1="41" y2="141.8281"/><line style="stroke:#C0C0C0;stroke-width:1.0;" x1="224" x2="224" y1="41" y2="141.8281"/><line style="stroke:#C0C0C0;stroke-width:1.0;" x1="240" x2="240" y1="41" y2="141.8281"/><line style="stroke:#C0C0C0;stroke-width:1.0;" x1="256" x2="256" y1="41" y2="141.8281"/><line style="stroke:#C0C0C0;stroke-width:1.0;" x1="272" x2="272" y1="41" y2="141.8281"/><line style="stroke:#C0C0C0;stroke-width:1.0;" x1="288" x2="288" y1="41" y2="141.8281"/><line style="stroke:#C0C0C0;stroke-width:1.0;" x1="304" x2="304" y1="41" y2="141.8281"/><line style="stroke:#C0C0C0;stroke-width:1.0;" x1="320" x2="320" y1="41" y2="141.8281"/><line style="stroke:#C0C0C0;stroke-width:1.0;" x1="336" x2="336" y1="41" y2="141.8281"/><line style="stroke:#C0C0C0;stroke-width:1.0;" x1="352" x2="352" y1="41" y2="141.8281"/><line style="stroke:#C0C0C0;stroke-width:1.0;" x1="368" x2="368" y1="41" y2="141.8281"/><line style="stroke:#C0C0C0;stroke-width:1.0;" x1="384" x2="384" y1="41" y2="141.8281"/><line style="stroke:#C0C0C0;stroke-width:1.0;" x1="400" x2="400" y1="41" y2="141.8281"/><line style="stroke:#C0C0C0;stroke-width:1.0;" x1="416" x2="416" y1="41" y2="141.8281"/><line style="stroke:#C0C0C0;stroke-width:1.0;" x1="432" x2="432" y1="41" y2="141.8281"/><line style="stroke:#C0C0C0;stroke-width:1.0;" x1="0" x2="432" y1="41" y2="41"/><line style="stroke:#C0C0C0;stroke-width:1.0;" x1="0" x2="432" y1="141.8281" y2="141.8281"/><line style="stroke:#A80036;stroke-width:1.5;" x1="119" x2="119" y1="55.8047" y2="99.8164"/><line style="stroke:#A80036;stroke-width:1.5;" x1="119" x2="127" y1="99.8164" y2="99.8164"/><polygon fill="#A80036" points="123,95.8164,123,99.8164,123,103.8164,127,99.8164" style="stroke:#A80036;stroke-width:1.5;"/><line style="stroke:#A80036;stroke-width:1.5;" x1="104" x2="104" y1="72.6094" y2="99.8164"/><line style="stroke:#A80036;stroke-width:1.5;" x1="104" x2="127" y1="99.8164" y2="99.8164"/><polygon fill="#A80036" points="123,95.8164,123,99.8164,123,103.8164,127,99.8164" style="stroke:#A80036;stroke-width:1.5;"/><line style="stroke:#A80036;stroke-width:1.5;" x1="311" x2="311" y1="89.4141" y2="116.6211"/><line style="stroke:#A80036;stroke-width:1.5;" x1="311" x2="319" y1="116.6211" y2="116.6211"/><polygon fill="#A80036" points="315,112.6211,315,116.6211,315,120.6211,319,116.6211" style="stroke:#A80036;stroke-width:1.5;"/><line style="stroke:#A80036;stroke-width:1.5;" x1="311" x2="311" y1="89.4141" y2="133.4258"/><line style="stroke:#A80036;stroke-width:1.5;" x1="311" x2="319" y1="133.4258" y2="133.4258"/><polygon fill="#A80036" points="315,129.4258,315,133.4258,315,137.4258,319,133.4258" style="stroke:#A80036;stroke-width:1.5;"/><line style="stroke:#A80036;stroke-width:1.5;" x1="216" x2="216" y1="106.2188" y2="116.6211"/><line style="stroke:#A80036;stroke-width:1.5;" x1="216" x2="319" y1="116.6211" y2="116.6211"/><polygon fill="#A80036" points="315,112.6211,315,116.6211,315,120.6211,319,116.6211" style="stroke:#A80036;stroke-width:1.5;"/><line style="stroke:#A80036;stroke-width:1.5;" x1="216" x2="216" y1="106.2188" y2="133.4258"/><line style="stroke:#A80036;stroke-width:1.5;" x1="216" x2="319" y1="133.4258" y2="133.4258"/><polygon fill="#A80036" points="315,129.4258,315,133.4258,315,137.4258,319,133.4258" style="stroke:#A80036;stroke-width:1.5;"/><rect fill="#FEFECE" height="12.8047" style="stroke:none;stroke-width:1.0;" width="47" x="2" y="43"/><line style="stroke:#A80036;stroke-width:1.0;" x1="2" x2="47" y1="43" y2="43"/><line style="stroke:#A80036;stroke-width:1.0;" x1="2" x2="47" y1="55.8047" y2="55.8047"/><line style="stroke:#A80036;stroke-width:1.0;" x1="2" x2="2" y1="43" y2="55.8047"/><rect fill="#FEFECE" height="12.8047" style="stroke:none;stroke-width:1.0;" width="46" x="80" y="43"/><line style="stroke:#A80036;stroke-width:1.0;" x1="81" x2="126" y1="43" y2="43"/><line style="stroke:#A80036;stroke-width:1.0;" x1="81" x2="126" y1="55.8047" y2="55.8047"/><line style="stroke:#A80036;stroke-width:1.0;" x1="126" x2="126" y1="43" y2="55.8047"/><line style="stroke:#A80036;stroke-width:1.0;stroke-dasharray:2.0,3.0;" x1="51" x2="77" y1="43" y2="43"/><line style="stroke:#A80036;stroke-width:1.0;stroke-dasharray:2.0,3.0;" x1="51" x2="77" y1="55.8047" y2="55.8047"/><rect fill="#FEFECE" height="12.8047" style="stroke:none;stroke-width:1.0;" width="31" x="18" y="59.8047"/><line style="stroke:#A80036;stroke-width:1.0;" x1="18" x2="47" y1="59.8047" y2="59.8047"/><line style="stroke:#A80036;stroke-width:1.0;" x1="18" x2="47" y1="72.6094" y2="72.6094"/><line style="stroke:#A80036;stroke-width:1.0;" x1="18" x2="18" y1="59.8047" y2="72.6094"/><rect fill="#FEFECE" height="12.8047" style="stroke:none;stroke-width:1.0;" width="30" x="80" y="59.8047"/><line style="stroke:#A80036;stroke-width:1.0;" x1="81" x2="110" y1="59.8047" y2="59.8047"/><line style="stroke:#A80036;stroke-width:1.0;" x1="81" x2="110" y1="72.6094" y2="72.6094"/><line style="stroke:#A80036;stroke-width:1.0;" x1="110" x2="110" y1="59.8047" y2="72.6094"/><line style="stroke:#A80036;stroke-width:1.0;stroke-dasharray:2.0,3.0;" x1="51" x2="77" y1="59.8047" y2="59.8047"/><line style="stroke:#A80036;stroke-width:1.0;stroke-dasharray:2.0,3.0;" x1="51" x2="77" y1="72.6094" y2="72.6094"/><rect fill="#FEFECE" height="12.8047" style="stroke:none;stroke-width:1.0;" width="15" x="146" y="76.6094"/><line style="stroke:#A80036;stroke-width:1.0;" x1="146" x2="159" y1="76.6094" y2="76.6094"/><line style="stroke:#A80036;stroke-width:1.0;" x1="146" x2="159" y1="89.4141" y2="89.4141"/><line style="stroke:#A80036;stroke-width:1.0;" x1="146" x2="146" y1="76.6094" y2="89.4141"/><rect fill="#FEFECE" height="12.8047" style="stroke:none;stroke-width:1.0;" width="81" x="192" y="76.6094"/><line style="stroke:#A80036;stroke-width:1.0;" x1="193" x2="272" y1="76.6094" y2="76.6094"/><line style="stroke:#A80036;stroke-width:1.0;" x1="193" x2="272" y1="89.4141" y2="89.4141"/><rect fill="#FEFECE" height="12.8047" style="stroke:none;stroke-width:1.0;" width="14" x="304" y="76.6094"/><line style="stroke:#A80036;stroke-width:1.0;" x1="305" x2="318" y1="76.6094" y2="76.6094"/><line style="stroke:#A80036;stroke-width:1.0;" x1="305" x2="318" y1="89.4141" y2="89.4141"/><line style="stroke:#A80036;stroke-width:1.0;" x1="318" x2="318" y1="76.6094" y2="89.4141"/><line style="stroke:#A80036;stroke-width:1.0;stroke-dasharray:2.0,3.0;" x1="163" x2="189" y1="76.6094" y2="76.6094"/><line style="stroke:#A80036;stroke-width:1.0;stroke-dasharray:2.0,3.0;" x1="163" x2="189" y1="89.4141" y2="89.4141"/><line style="stroke:#A80036;stroke-width:1.0;stroke-dasharray:2.0,3.0;" x1="275" x2="301" y1="76.6094" y2="76.6094"/><line style="stroke:#A80036;stroke-width:1.0;stroke-dasharray:2.0,3.0;" x1="275" x2="301" y1="89.4141" y2="89.4141"/><rect fill="#FEFECE" height="12.8047" style="stroke:none;stroke-width:1.0;" width="31" x="130" y="93.4141"/><line style="stroke:#A80036;stroke-width:1.0;" x1="130" x2="159" y1="93.4141" y2="93.4141"/><line style="stroke:#A80036;stroke-width:1.0;" x1="130" x2="159" y1="106.2188" y2="106.2188"/><line style="stroke:#A80036;stroke-width:1.0;" x1="130" x2="130" y1="93.4141" y2="106.2188"/><rect fill="#FEFECE" height="12.8047" style="stroke:none;stroke-width:1.0;" width="30" x="192" y="93.4141"/><line style="stroke:#A80036;stroke-width:1.0;" x1="193" x2="222" y1="93.4141" y2="93.4141"/><line style="stroke:#A80036;stroke-width:1.0;" x1="193" x2="222" y1="106.2188" y2="106.2188"/><line style="stroke:#A80036;stroke-width:1.0;" x1="222" x2="222" y1="93.4141" y2="106.2188"/><line style="stroke:#A80036;stroke-width:1.0;stroke-dasharray:2.0,3.0;" x1="163" x2="189" y1="93.4141" y2="93.4141"/><line style="stroke:#A80036;stroke-width:1.0;stroke-dasharray:2.0,3.0;" x1="163" x2="189" y1="106.2188" y2="106.2188"/><rect fill="#FEFECE" height="12.8047" style="stroke:none;stroke-width:1.0;" width="63" x="322" y="110.2188"/><line style="stroke:#A80036;stroke-width:1.0;" x1="322" x2="383" y1="110.2188" y2="110.2188"/><line style="stroke:#A80036;stroke-width:1.0;" x1="322" x2="383" y1="123.0234" y2="123.0234"/><line style="stroke:#A80036;stroke-width:1.0;" x1="322" x2="322" y1="110.2188" y2="123.0234"/><rect fill="#FEFECE" height="12.8047" style="stroke:none;stroke-width:1.0;" width="14" x="416" y="110.2188"/><line style="stroke:#A80036;stroke-width:1.0;" x1="417" x2="430" y1="110.2188" y2="110.2188"/><line style="stroke:#A80036;stroke-width:1.0;" x1="417" x2="430" y1="123.0234" y2="123.0234"/><line style="stroke:#A80036;stroke-width:1.0;" x1="430" x2="430" y1="110.2188" y2="123.0234"/><line style="stroke:#A80036;stroke-width:1.0;stroke-dasharray:2.0,3.0;" x1="387" x2="413" y1="110.2188" y2="110.2188"/><line style="stroke:#A80036;stroke-width:1.0;stroke-dasharray:2.0,3.0;" x1="387" x2="413" y1="123.0234" y2="123.0234"/><rect fill="#FEFECE" height="12.8047" style="stroke:none;stroke-width:1.0;" width="60" x="322" y="127.0234"/><line style="stroke:#A80036;stroke-width:1.0;" x1="322" x2="382" y1="127.0234" y2="127.0234"/><line style="stroke:#A80036;stroke-width:1.0;" x1="322" x2="382" y1="139.8281" y2="139.8281"/><line style="stroke:#A80036;stroke-width:1.0;" x1="322" x2="322" y1="127.0234" y2="139.8281"/><line style="stroke:#A80036;stroke-width:1.0;" x1="382" x2="382" y1="127.0234" y2="139.8281"/><text fill="#000000" font-family="sans-serif" font-size="11" lengthAdjust="spacing" textLength="51" x="6" y="53.2104">タスク1-1</text><text fill="#000000" font-family="sans-serif" font-size="11" lengthAdjust="spacing" textLength="51" x="22" y="70.0151">タスク1-2</text><text fill="#000000" font-family="sans-serif" font-size="11" lengthAdjust="spacing" textLength="51" x="150" y="86.8198">タスク1-3</text><text fill="#000000" font-family="sans-serif" font-size="11" lengthAdjust="spacing" textLength="51" x="134" y="103.6245">タスク2-1</text><text fill="#000000" font-family="sans-serif" font-size="11" lengthAdjust="spacing" textLength="51" x="326" y="120.4292">タスク3-1</text><text fill="#000000" font-family="sans-serif" font-size="11" lengthAdjust="spacing" textLength="51" x="326" y="137.2339">タスク3-2</text><text fill="#000000" font-family="Serif" font-size="10" lengthAdjust="spacing" textLength="7" x="4.5" y="163.1104">1</text><text fill="#000000" font-family="Serif" font-size="10" lengthAdjust="spacing" textLength="6" x="21" y="163.1104">2</text><text fill="#000000" font-family="Serif" font-size="10" lengthAdjust="spacing" textLength="7" x="36.5" y="163.1104">3</text><text fill="#909898" font-family="Serif" font-size="10" lengthAdjust="spacing" textLength="7" x="52.5" y="163.1104">4</text><text fill="#909898" font-family="Serif" font-size="10" lengthAdjust="spacing" textLength="6" x="69" y="163.1104">5</text><text fill="#000000" font-family="Serif" font-size="10" lengthAdjust="spacing" textLength="7" x="84.5" y="163.1104">6</text><text fill="#000000" font-family="Serif" font-size="10" lengthAdjust="spacing" textLength="7" x="100.5" y="163.1104">7</text><text fill="#000000" font-family="Serif" font-size="10" lengthAdjust="spacing" textLength="7" x="116.5" y="163.1104">8</text><text fill="#000000" font-family="Serif" font-size="10" lengthAdjust="spacing" textLength="7" x="132.5" y="163.1104">9</text><text fill="#000000" font-family="Serif" font-size="10" lengthAdjust="spacing" textLength="14" x="145" y="163.1104">10</text><text fill="#909898" font-family="Serif" font-size="10" lengthAdjust="spacing" textLength="14" x="161" y="163.1104">11</text><text fill="#909898" font-family="Serif" font-size="10" lengthAdjust="spacing" textLength="13" x="177.5" y="163.1104">12</text><text fill="#000000" font-family="Serif" font-size="10" lengthAdjust="spacing" textLength="14" x="193" y="163.1104">13</text><text fill="#000000" font-family="Serif" font-size="10" lengthAdjust="spacing" textLength="14" x="209" y="163.1104">14</text><text fill="#000000" font-family="Serif" font-size="10" lengthAdjust="spacing" textLength="13" x="225.5" y="163.1104">15</text><text fill="#000000" font-family="Serif" font-size="10" lengthAdjust="spacing" textLength="14" x="241" y="163.1104">16</text><text fill="#000000" font-family="Serif" font-size="10" lengthAdjust="spacing" textLength="14" x="257" y="163.1104">17</text><text fill="#909898" font-family="Serif" font-size="10" lengthAdjust="spacing" textLength="14" x="273" y="163.1104">18</text><text fill="#909898" font-family="Serif" font-size="10" lengthAdjust="spacing" textLength="14" x="289" y="163.1104">19</text><text fill="#000000" font-family="Serif" font-size="10" lengthAdjust="spacing" textLength="13" x="305.5" y="163.1104">20</text><text fill="#000000" font-family="Serif" font-size="10" lengthAdjust="spacing" textLength="13" x="321.5" y="163.1104">21</text><text fill="#000000" font-family="Serif" font-size="10" lengthAdjust="spacing" textLength="12" x="338" y="163.1104">22</text><text fill="#000000" font-family="Serif" font-size="10" lengthAdjust="spacing" textLength="13" x="353.5" y="163.1104">23</text><text fill="#000000" font-family="Serif" font-size="10" lengthAdjust="spacing" textLength="13" x="369.5" y="163.1104">24</text><text fill="#909898" font-family="Serif" font-size="10" lengthAdjust="spacing" textLength="12" x="386" y="163.1104">25</text><text fill="#909898" font-family="Serif" font-size="10" lengthAdjust="spacing" textLength="13" x="401.5" y="163.1104">26</text><text fill="#000000" font-family="Serif" font-size="10" lengthAdjust="spacing" textLength="13" x="417.5" y="163.1104">27</text><text fill="#000000" font-family="Serif" font-size="10" lengthAdjust="spacing" textLength="10" x="3" y="151.1104">水</text><text fill="#000000" font-family="Serif" font-size="10" lengthAdjust="spacing" textLength="10" x="19" y="151.1104">木</text><text fill="#000000" font-family="Serif" font-size="10" lengthAdjust="spacing" textLength="10" x="35" y="151.1104">金</text><text fill="#909898" font-family="Serif" font-size="10" lengthAdjust="spacing" textLength="10" x="51" y="151.1104">土</text><text fill="#909898" font-family="Serif" font-size="10" lengthAdjust="spacing" textLength="10" x="67" y="151.1104">日</text><text fill="#000000" font-family="Serif" font-size="10" lengthAdjust="spacing" textLength="10" x="83" y="151.1104">月</text><text fill="#000000" font-family="Serif" font-size="10" lengthAdjust="spacing" textLength="10" x="99" y="151.1104">火</text><text fill="#000000" font-family="Serif" font-size="10" lengthAdjust="spacing" textLength="10" x="115" y="151.1104">水</text><text fill="#000000" font-family="Serif" font-size="10" lengthAdjust="spacing" textLength="10" x="131" y="151.1104">木</text><text fill="#000000" font-family="Serif" font-size="10" lengthAdjust="spacing" textLength="10" x="147" y="151.1104">金</text><text fill="#909898" font-family="Serif" font-size="10" lengthAdjust="spacing" textLength="10" x="163" y="151.1104">土</text><text fill="#909898" font-family="Serif" font-size="10" lengthAdjust="spacing" textLength="10" x="179" y="151.1104">日</text><text fill="#000000" font-family="Serif" font-size="10" lengthAdjust="spacing" textLength="10" x="195" y="151.1104">月</text><text fill="#000000" font-family="Serif" font-size="10" lengthAdjust="spacing" textLength="10" x="211" y="151.1104">火</text><text fill="#000000" font-family="Serif" font-size="10" lengthAdjust="spacing" textLength="10" x="227" y="151.1104">水</text><text fill="#000000" font-family="Serif" font-size="10" lengthAdjust="spacing" textLength="10" x="243" y="151.1104">木</text><text fill="#000000" font-family="Serif" font-size="10" lengthAdjust="spacing" textLength="10" x="259" y="151.1104">金</text><text fill="#909898" font-family="Serif" font-size="10" lengthAdjust="spacing" textLength="10" x="275" y="151.1104">土</text><text fill="#909898" font-family="Serif" font-size="10" lengthAdjust="spacing" textLength="10" x="291" y="151.1104">日</text><text fill="#000000" font-family="Serif" font-size="10" lengthAdjust="spacing" textLength="10" x="307" y="151.1104">月</text><text fill="#000000" font-family="Serif" font-size="10" lengthAdjust="spacing" textLength="10" x="323" y="151.1104">火</text><text fill="#000000" font-family="Serif" font-size="10" lengthAdjust="spacing" textLength="10" x="339" y="151.1104">水</text><text fill="#000000" font-family="Serif" font-size="10" lengthAdjust="spacing" textLength="10" x="355" y="151.1104">木</text><text fill="#000000" font-family="Serif" font-size="10" lengthAdjust="spacing" textLength="10" x="371" y="151.1104">金</text><text fill="#909898" font-family="Serif" font-size="10" lengthAdjust="spacing" textLength="10" x="387" y="151.1104">土</text><text fill="#909898" font-family="Serif" font-size="10" lengthAdjust="spacing" textLength="10" x="403" y="151.1104">日</text><text fill="#000000" font-family="Serif" font-size="10" lengthAdjust="spacing" textLength="10" x="419" y="151.1104">月</text><text fill="#000000" font-family="Serif" font-size="12" font-weight="bold" lengthAdjust="spacing" textLength="69" x="181.5" y="177.0957">12月 2021</text><!--MD5=[ea690d35b0bd3f578aab435e92e1977f]
@startuml
language ja
printscale daily

'休日
saturday are closed
sunday are closed
2021-11-03 is closed
2021-11-23 is closed
2021-12-29 to 2022-01-03 is closed
2022-01-10 is closed
2022-02-11 is closed
2022-02-23 is closed
2022-03-21 is closed


[タスク1-1] as [T01-1] lasts 6 days
[タスク1-2] as [T01-2] lasts 4 days
[タスク1-3] as [T01-3] lasts 7 days
[タスク2-1] as [T02-1] lasts 4 days
[タスク3-1] as [T03-1] lasts 5 days
[タスク3-2] as [T03-2] lasts 4 days

Project starts 2021-12-01
  [T01-1] starts 2021-12-01
  [T01-2] starts 2021-12-02
  [T01-3] starts 2021-12-10
  [T01-1] -> [T02-1]
  [T01-2] -> [T02-1]
  [T01-3] -> [T03-1]
  [T01-3] -> [T03-2]
  [T02-1] -> [T03-1]
  [T02-1] -> [T03-2]
@enduml

@startuml
language ja
printscale daily

saturday are closed
sunday are closed
2021-11-03 is closed
2021-11-23 is closed
2021-12-29 to 2022-01-03 is closed
2022-01-10 is closed
2022-02-11 is closed
2022-02-23 is closed
2022-03-21 is closed


[タスク1-1] as [T01-1] lasts 6 days
[タスク1-2] as [T01-2] lasts 4 days
[タスク1-3] as [T01-3] lasts 7 days
[タスク2-1] as [T02-1] lasts 4 days
[タスク3-1] as [T03-1] lasts 5 days
[タスク3-2] as [T03-2] lasts 4 days

Project starts 2021-12-01
  [T01-1] starts 2021-12-01
  [T01-2] starts 2021-12-02
  [T01-3] starts 2021-12-10
  [T01-1] -> [T02-1]
  [T01-2] -> [T02-1]
  [T01-3] -> [T03-1]
  [T01-3] -> [T03-2]
  [T02-1] -> [T03-1]
  [T02-1] -> [T03-2]
@enduml

PlantUML version 1.2021.15beta6(Unknown compile time)
(GPL source distribution)
Java Runtime: Java(TM) SE Runtime Environment
JVM: Java HotSpot(TM) 64-Bit Server VM
Default Encoding: UTF-8
Language: en
Country: US
--></g></svg>