<?xml version="1.0" encoding="UTF-8" standalone="no"?><svg xmlns="http://www.w3.org/2000/svg" xmlns:xlink="http://www.w3.org/1999/xlink" contentScriptType="application/ecmascript" contentStyleType="text/css" height="464px" preserveAspectRatio="none" style="width:585px;height:464px;background:#FFFFFF;" version="1.1" viewBox="0 0 585 464" width="585px" zoomAndPan="magnify"><defs><filter height="300%" id="fd5v3j30m1tb" width="300%" x="-1" y="-1"><feGaussianBlur result="blurOut" stdDeviation="2.0"/><feColorMatrix in="blurOut" result="blurOut2" type="matrix" values="0 0 0 0 0 0 0 0 0 0 0 0 0 0 0 0 0 0 .4 0"/><feOffset dx="4.0" dy="4.0" in="blurOut2" result="blurOut3"/><feBlend in="SourceGraphic" in2="blurOut3" mode="normal"/></filter></defs><g><!--MD5=[c54bcf2ac27aae1194a032d2d75d4781]
cluster Illuminate--><polygon fill="#FFFFFF" filter="url(#fd5v3j30m1tb)" points="338.5,214,426.5,214,433.5,236.2969,568.5,236.2969,568.5,457,338.5,457,338.5,214" style="stroke:#000000;stroke-width:1.5;"/><line style="stroke:#000000;stroke-width:1.5;" x1="338.5" x2="433.5" y1="236.2969" y2="236.2969"/><text fill="#000000" font-family="sans-serif" font-size="14" font-weight="bold" lengthAdjust="spacing" textLength="82" x="342.5" y="228.9951">Illuminate</text><!--MD5=[f85ea1e2177e5adb5db234deb17b37e1]
cluster Validation--><polygon fill="#FFFFFF" filter="url(#fd5v3j30m1tb)" points="362.5,257,452.5,257,459.5,279.2969,544.5,279.2969,544.5,433,362.5,433,362.5,257" style="stroke:#000000;stroke-width:1.5;"/><line style="stroke:#000000;stroke-width:1.5;" x1="362.5" x2="459.5" y1="279.2969" y2="279.2969"/><text fill="#000000" font-family="sans-serif" font-size="14" font-weight="bold" lengthAdjust="spacing" textLength="84" x="366.5" y="271.9951">Validation</text><!--MD5=[6fc27bdb16febdb188a9742425b96ec7]
class ValidationException--><rect codeLine="35" fill="#FEFECE" filter="url(#fd5v3j30m1tb)" height="124.8281" id="ValidationException" style="stroke:#A80036;stroke-width:1.5;" width="149" x="379" y="292"/><ellipse cx="394" cy="308" fill="#ADD1B2" rx="11" ry="11" style="stroke:#A80036;stroke-width:1.0;"/><path d="M396.3438,303.6719 C395.4063,303.2344 394.8125,303.0938 393.9375,303.0938 C391.3125,303.0938 389.3125,305.1719 389.3125,307.8906 L389.3125,309.0156 C389.3125,311.5938 391.4219,313.4844 394.3125,313.4844 C395.5313,313.4844 396.6875,313.1875 397.4375,312.6406 C398.0156,312.2344 398.3438,311.7813 398.3438,311.3906 C398.3438,310.9375 397.9531,310.5469 397.4844,310.5469 C397.2656,310.5469 397.0625,310.625 396.875,310.8125 C396.4219,311.2969 396.4219,311.2969 396.2344,311.3906 C395.8125,311.6563 395.125,311.7813 394.3594,311.7813 C392.3125,311.7813 391.0156,310.6875 391.0156,308.9844 L391.0156,307.8906 C391.0156,306.1094 392.2656,304.7969 394,304.7969 C394.5781,304.7969 395.1875,304.9531 395.6563,305.2031 C396.1406,305.4844 396.3125,305.7031 396.4063,306.1094 C396.4688,306.5156 396.5,306.6406 396.6406,306.7656 C396.7813,306.9063 397.0156,307.0156 397.2344,307.0156 C397.5,307.0156 397.7656,306.875 397.9375,306.6563 C398.0469,306.5 398.0781,306.3125 398.0781,305.8906 L398.0781,304.4688 C398.0781,304.0313 398.0625,303.9063 397.9688,303.75 C397.8125,303.4844 397.5313,303.3438 397.2344,303.3438 C396.9375,303.3438 396.7344,303.4375 396.5156,303.75 L396.3438,303.6719 Z " fill="#000000"/><text fill="#000000" font-family="sans-serif" font-size="12" lengthAdjust="spacing" textLength="117" x="408" y="312.1543">ValidationException</text><line style="stroke:#A80036;stroke-width:1.5;" x1="380" x2="527" y1="324" y2="324"/><polygon fill="none" points="390,330,394,334,390,338,386,334" style="stroke:#B38D22;stroke-width:1.0;"/><text fill="#000000" font-family="sans-serif" font-size="11" lengthAdjust="spacing" textLength="103" x="399" y="338.2104">Validator validator</text><polygon fill="none" points="390,342.8047,394,346.8047,390,350.8047,386,346.8047" style="stroke:#B38D22;stroke-width:1.0;"/><text fill="#000000" font-family="sans-serif" font-size="11" lengthAdjust="spacing" textLength="88" x="399" y="351.0151">string message</text><polygon fill="none" points="390,355.6094,394,359.6094,390,363.6094,386,359.6094" style="stroke:#B38D22;stroke-width:1.0;"/><text fill="#000000" font-family="sans-serif" font-size="11" lengthAdjust="spacing" textLength="46" x="399" y="363.8198">int code</text><line style="stroke:#A80036;stroke-width:1.5;" x1="380" x2="527" y1="370.4141" y2="370.4141"/><ellipse cx="390" cy="381.4141" fill="#84BE84" rx="3" ry="3" style="stroke:#038048;stroke-width:1.0;"/><text fill="#000000" font-family="sans-serif" font-size="11" lengthAdjust="spacing" textLength="113" x="399" y="384.6245">string getMessage()</text><ellipse cx="390" cy="394.2188" fill="#84BE84" rx="3" ry="3" style="stroke:#038048;stroke-width:1.0;"/><text fill="#000000" font-family="sans-serif" font-size="11" lengthAdjust="spacing" textLength="75" x="399" y="397.4292">int getCode()</text><ellipse cx="390" cy="407.0234" fill="#84BE84" rx="3" ry="3" style="stroke:#038048;stroke-width:1.0;"/><text fill="#000000" font-family="sans-serif" font-size="11" lengthAdjust="spacing" textLength="84" x="399" y="410.2339">string[] errors()</text><!--MD5=[1171ddf7f6a3c83b7d2312c80850c25d]
class Throwable--><rect codeLine="1" fill="#FEFECE" filter="url(#fd5v3j30m1tb)" height="32" id="Throwable" style="stroke:#A80036;stroke-width:1.5;" width="94" x="118.5" y="7"/><ellipse cx="133.5" cy="23" fill="#B4A7E5" rx="11" ry="11" style="stroke:#A80036;stroke-width:1.0;"/><path d="M134.4531,19.7813 L136.1719,19.7813 C136.5625,19.7813 136.75,19.75 136.875,19.6719 C137.1406,19.5156 137.2813,19.2344 137.2813,18.9375 C137.2813,18.6719 137.1719,18.4063 136.9375,18.2344 C136.7656,18.125 136.625,18.0938 136.1719,18.0938 L131.0313,18.0938 C130.5938,18.0938 130.4688,18.1094 130.3125,18.2031 C130.0625,18.3594 129.9063,18.6563 129.9063,18.9375 C129.9063,19.2188 130.0469,19.4688 130.2656,19.6406 C130.4219,19.75 130.6094,19.7813 131.0313,19.7813 L132.75,19.7813 L132.75,26.2969 L131.0313,26.2969 C130.5938,26.2969 130.4688,26.3125 130.3125,26.4219 C130.0625,26.5781 129.9063,26.8594 129.9063,27.1563 C129.9063,27.4063 130.0469,27.6719 130.2656,27.8281 C130.4219,27.9531 130.625,28 131.0313,28 L136.1719,28 C136.9219,28 137.2813,27.7188 137.2813,27.1563 C137.2813,26.875 137.1719,26.625 136.9375,26.4531 C136.7656,26.3281 136.625,26.2969 136.1719,26.2969 L134.4531,26.2969 L134.4531,19.7813 Z " fill="#000000"/><text fill="#000000" font-family="sans-serif" font-size="12" font-style="italic" lengthAdjust="spacing" textLength="62" x="147.5" y="27.1543">Throwable</text><!--MD5=[b8cfd8c4119a3b0a7a46bfc5fc780f85]
class Error--><rect codeLine="5" fill="#FEFECE" filter="url(#fd5v3j30m1tb)" height="99.2188" id="Error" style="stroke:#A80036;stroke-width:1.5;" width="139" x="9" y="99"/><ellipse cx="59.25" cy="115" fill="#ADD1B2" rx="11" ry="11" style="stroke:#A80036;stroke-width:1.0;"/><path d="M61.5938,110.6719 C60.6563,110.2344 60.0625,110.0938 59.1875,110.0938 C56.5625,110.0938 54.5625,112.1719 54.5625,114.8906 L54.5625,116.0156 C54.5625,118.5938 56.6719,120.4844 59.5625,120.4844 C60.7813,120.4844 61.9375,120.1875 62.6875,119.6406 C63.2656,119.2344 63.5938,118.7813 63.5938,118.3906 C63.5938,117.9375 63.2031,117.5469 62.7344,117.5469 C62.5156,117.5469 62.3125,117.625 62.125,117.8125 C61.6719,118.2969 61.6719,118.2969 61.4844,118.3906 C61.0625,118.6563 60.375,118.7813 59.6094,118.7813 C57.5625,118.7813 56.2656,117.6875 56.2656,115.9844 L56.2656,114.8906 C56.2656,113.1094 57.5156,111.7969 59.25,111.7969 C59.8281,111.7969 60.4375,111.9531 60.9063,112.2031 C61.3906,112.4844 61.5625,112.7031 61.6563,113.1094 C61.7188,113.5156 61.75,113.6406 61.8906,113.7656 C62.0313,113.9063 62.2656,114.0156 62.4844,114.0156 C62.75,114.0156 63.0156,113.875 63.1875,113.6563 C63.2969,113.5 63.3281,113.3125 63.3281,112.8906 L63.3281,111.4688 C63.3281,111.0313 63.3125,110.9063 63.2188,110.75 C63.0625,110.4844 62.7813,110.3438 62.4844,110.3438 C62.1875,110.3438 61.9844,110.4375 61.7656,110.75 L61.5938,110.6719 Z " fill="#000000"/><text fill="#000000" font-family="sans-serif" font-size="12" lengthAdjust="spacing" textLength="30" x="79.75" y="119.1543">Error</text><line style="stroke:#A80036;stroke-width:1.5;" x1="10" x2="147" y1="131" y2="131"/><polygon fill="none" points="20,137,24,141,20,145,16,141" style="stroke:#B38D22;stroke-width:1.0;"/><text fill="#000000" font-family="sans-serif" font-size="11" lengthAdjust="spacing" textLength="88" x="29" y="145.2104">string message</text><polygon fill="none" points="20,149.8047,24,153.8047,20,157.8047,16,153.8047" style="stroke:#B38D22;stroke-width:1.0;"/><text fill="#000000" font-family="sans-serif" font-size="11" lengthAdjust="spacing" textLength="46" x="29" y="158.0151">int code</text><line style="stroke:#A80036;stroke-width:1.5;" x1="10" x2="147" y1="164.6094" y2="164.6094"/><ellipse cx="20" cy="175.6094" fill="#84BE84" rx="3" ry="3" style="stroke:#038048;stroke-width:1.0;"/><text fill="#000000" font-family="sans-serif" font-size="11" lengthAdjust="spacing" textLength="113" x="29" y="178.8198">string getMessage()</text><ellipse cx="20" cy="188.4141" fill="#84BE84" rx="3" ry="3" style="stroke:#038048;stroke-width:1.0;"/><text fill="#000000" font-family="sans-serif" font-size="11" lengthAdjust="spacing" textLength="75" x="29" y="191.6245">int getCode()</text><!--MD5=[8db60afef7a3447bbe27c5ed187fdac2]
class Exception--><rect codeLine="12" fill="#FEFECE" filter="url(#fd5v3j30m1tb)" height="99.2188" id="Exception" style="stroke:#A80036;stroke-width:1.5;" width="139" x="183" y="99"/><ellipse cx="219.6" cy="115" fill="#ADD1B2" rx="11" ry="11" style="stroke:#A80036;stroke-width:1.0;"/><path d="M221.9438,110.6719 C221.0063,110.2344 220.4125,110.0938 219.5375,110.0938 C216.9125,110.0938 214.9125,112.1719 214.9125,114.8906 L214.9125,116.0156 C214.9125,118.5938 217.0219,120.4844 219.9125,120.4844 C221.1313,120.4844 222.2875,120.1875 223.0375,119.6406 C223.6156,119.2344 223.9438,118.7813 223.9438,118.3906 C223.9438,117.9375 223.5531,117.5469 223.0844,117.5469 C222.8656,117.5469 222.6625,117.625 222.475,117.8125 C222.0219,118.2969 222.0219,118.2969 221.8344,118.3906 C221.4125,118.6563 220.725,118.7813 219.9594,118.7813 C217.9125,118.7813 216.6156,117.6875 216.6156,115.9844 L216.6156,114.8906 C216.6156,113.1094 217.8656,111.7969 219.6,111.7969 C220.1781,111.7969 220.7875,111.9531 221.2563,112.2031 C221.7406,112.4844 221.9125,112.7031 222.0063,113.1094 C222.0688,113.5156 222.1,113.6406 222.2406,113.7656 C222.3813,113.9063 222.6156,114.0156 222.8344,114.0156 C223.1,114.0156 223.3656,113.875 223.5375,113.6563 C223.6469,113.5 223.6781,113.3125 223.6781,112.8906 L223.6781,111.4688 C223.6781,111.0313 223.6625,110.9063 223.5688,110.75 C223.4125,110.4844 223.1313,110.3438 222.8344,110.3438 C222.5375,110.3438 222.3344,110.4375 222.1156,110.75 L221.9438,110.6719 Z " fill="#000000"/><text fill="#000000" font-family="sans-serif" font-size="12" lengthAdjust="spacing" textLength="59" x="238.4" y="119.1543">Exception</text><line style="stroke:#A80036;stroke-width:1.5;" x1="184" x2="321" y1="131" y2="131"/><polygon fill="none" points="194,137,198,141,194,145,190,141" style="stroke:#B38D22;stroke-width:1.0;"/><text fill="#000000" font-family="sans-serif" font-size="11" lengthAdjust="spacing" textLength="88" x="203" y="145.2104">string message</text><polygon fill="none" points="194,149.8047,198,153.8047,194,157.8047,190,153.8047" style="stroke:#B38D22;stroke-width:1.0;"/><text fill="#000000" font-family="sans-serif" font-size="11" lengthAdjust="spacing" textLength="46" x="203" y="158.0151">int code</text><line style="stroke:#A80036;stroke-width:1.5;" x1="184" x2="321" y1="164.6094" y2="164.6094"/><ellipse cx="194" cy="175.6094" fill="#84BE84" rx="3" ry="3" style="stroke:#038048;stroke-width:1.0;"/><text fill="#000000" font-family="sans-serif" font-size="11" lengthAdjust="spacing" textLength="113" x="203" y="178.8198">string getMessage()</text><ellipse cx="194" cy="188.4141" fill="#84BE84" rx="3" ry="3" style="stroke:#038048;stroke-width:1.0;"/><text fill="#000000" font-family="sans-serif" font-size="11" lengthAdjust="spacing" textLength="75" x="203" y="191.6245">int getCode()</text><!--MD5=[65222e474de6b983ec7698664db33c79]
class TypeError--><rect codeLine="19" fill="#FEFECE" filter="url(#fd5v3j30m1tb)" height="99.2188" id="TypeError" style="stroke:#A80036;stroke-width:1.5;" width="139" x="9" y="305"/><ellipse cx="45.15" cy="321" fill="#ADD1B2" rx="11" ry="11" style="stroke:#A80036;stroke-width:1.0;"/><path d="M47.4938,316.6719 C46.5563,316.2344 45.9625,316.0938 45.0875,316.0938 C42.4625,316.0938 40.4625,318.1719 40.4625,320.8906 L40.4625,322.0156 C40.4625,324.5938 42.5719,326.4844 45.4625,326.4844 C46.6813,326.4844 47.8375,326.1875 48.5875,325.6406 C49.1656,325.2344 49.4938,324.7813 49.4938,324.3906 C49.4938,323.9375 49.1031,323.5469 48.6344,323.5469 C48.4156,323.5469 48.2125,323.625 48.025,323.8125 C47.5719,324.2969 47.5719,324.2969 47.3844,324.3906 C46.9625,324.6563 46.275,324.7813 45.5094,324.7813 C43.4625,324.7813 42.1656,323.6875 42.1656,321.9844 L42.1656,320.8906 C42.1656,319.1094 43.4156,317.7969 45.15,317.7969 C45.7281,317.7969 46.3375,317.9531 46.8063,318.2031 C47.2906,318.4844 47.4625,318.7031 47.5563,319.1094 C47.6188,319.5156 47.65,319.6406 47.7906,319.7656 C47.9313,319.9063 48.1656,320.0156 48.3844,320.0156 C48.65,320.0156 48.9156,319.875 49.0875,319.6563 C49.1969,319.5 49.2281,319.3125 49.2281,318.8906 L49.2281,317.4688 C49.2281,317.0313 49.2125,316.9063 49.1188,316.75 C48.9625,316.4844 48.6813,316.3438 48.3844,316.3438 C48.0875,316.3438 47.8844,316.4375 47.6656,316.75 L47.4938,316.6719 Z " fill="#000000"/><text fill="#000000" font-family="sans-serif" font-size="12" lengthAdjust="spacing" textLength="60" x="63.85" y="325.1543">TypeError</text><line style="stroke:#A80036;stroke-width:1.5;" x1="10" x2="147" y1="337" y2="337"/><polygon fill="none" points="20,343,24,347,20,351,16,347" style="stroke:#B38D22;stroke-width:1.0;"/><text fill="#000000" font-family="sans-serif" font-size="11" lengthAdjust="spacing" textLength="88" x="29" y="351.2104">string message</text><polygon fill="none" points="20,355.8047,24,359.8047,20,363.8047,16,359.8047" style="stroke:#B38D22;stroke-width:1.0;"/><text fill="#000000" font-family="sans-serif" font-size="11" lengthAdjust="spacing" textLength="46" x="29" y="364.0151">int code</text><line style="stroke:#A80036;stroke-width:1.5;" x1="10" x2="147" y1="370.6094" y2="370.6094"/><ellipse cx="20" cy="381.6094" fill="#84BE84" rx="3" ry="3" style="stroke:#038048;stroke-width:1.0;"/><text fill="#000000" font-family="sans-serif" font-size="11" lengthAdjust="spacing" textLength="113" x="29" y="384.8198">string getMessage()</text><ellipse cx="20" cy="394.4141" fill="#84BE84" rx="3" ry="3" style="stroke:#038048;stroke-width:1.0;"/><text fill="#000000" font-family="sans-serif" font-size="11" lengthAdjust="spacing" textLength="75" x="29" y="397.6245">int getCode()</text><!--MD5=[254e47a1ff28d581967b93dcde192700]
class LogicException--><rect codeLine="26" fill="#FEFECE" filter="url(#fd5v3j30m1tb)" height="99.2188" id="LogicException" style="stroke:#A80036;stroke-width:1.5;" width="139" x="183" y="305"/><ellipse cx="205.2" cy="321" fill="#ADD1B2" rx="11" ry="11" style="stroke:#A80036;stroke-width:1.0;"/><path d="M207.5438,316.6719 C206.6063,316.2344 206.0125,316.0938 205.1375,316.0938 C202.5125,316.0938 200.5125,318.1719 200.5125,320.8906 L200.5125,322.0156 C200.5125,324.5938 202.6219,326.4844 205.5125,326.4844 C206.7313,326.4844 207.8875,326.1875 208.6375,325.6406 C209.2156,325.2344 209.5438,324.7813 209.5438,324.3906 C209.5438,323.9375 209.1531,323.5469 208.6844,323.5469 C208.4656,323.5469 208.2625,323.625 208.075,323.8125 C207.6219,324.2969 207.6219,324.2969 207.4344,324.3906 C207.0125,324.6563 206.325,324.7813 205.5594,324.7813 C203.5125,324.7813 202.2156,323.6875 202.2156,321.9844 L202.2156,320.8906 C202.2156,319.1094 203.4656,317.7969 205.2,317.7969 C205.7781,317.7969 206.3875,317.9531 206.8563,318.2031 C207.3406,318.4844 207.5125,318.7031 207.6063,319.1094 C207.6688,319.5156 207.7,319.6406 207.8406,319.7656 C207.9813,319.9063 208.2156,320.0156 208.4344,320.0156 C208.7,320.0156 208.9656,319.875 209.1375,319.6563 C209.2469,319.5 209.2781,319.3125 209.2781,318.8906 L209.2781,317.4688 C209.2781,317.0313 209.2625,316.9063 209.1688,316.75 C209.0125,316.4844 208.7313,316.3438 208.4344,316.3438 C208.1375,316.3438 207.9344,316.4375 207.7156,316.75 L207.5438,316.6719 Z " fill="#000000"/><text fill="#000000" font-family="sans-serif" font-size="12" lengthAdjust="spacing" textLength="91" x="220.8" y="325.1543">LogicException</text><line style="stroke:#A80036;stroke-width:1.5;" x1="184" x2="321" y1="337" y2="337"/><polygon fill="none" points="194,343,198,347,194,351,190,347" style="stroke:#B38D22;stroke-width:1.0;"/><text fill="#000000" font-family="sans-serif" font-size="11" lengthAdjust="spacing" textLength="88" x="203" y="351.2104">string message</text><polygon fill="none" points="194,355.8047,198,359.8047,194,363.8047,190,359.8047" style="stroke:#B38D22;stroke-width:1.0;"/><text fill="#000000" font-family="sans-serif" font-size="11" lengthAdjust="spacing" textLength="46" x="203" y="364.0151">int code</text><line style="stroke:#A80036;stroke-width:1.5;" x1="184" x2="321" y1="370.6094" y2="370.6094"/><ellipse cx="194" cy="381.6094" fill="#84BE84" rx="3" ry="3" style="stroke:#038048;stroke-width:1.0;"/><text fill="#000000" font-family="sans-serif" font-size="11" lengthAdjust="spacing" textLength="113" x="203" y="384.8198">string getMessage()</text><ellipse cx="194" cy="394.4141" fill="#84BE84" rx="3" ry="3" style="stroke:#038048;stroke-width:1.0;"/><text fill="#000000" font-family="sans-serif" font-size="11" lengthAdjust="spacing" textLength="75" x="203" y="397.6245">int getCode()</text><!--MD5=[b74aaf1dd121c467b9fb078f9c5d9a8f]
reverse link Throwable to Error--><path d="M143.139,55.742 C133.899,68.859 122.978,84.362 112.768,98.856 " fill="none" id="Throwable-backto-Error" style="stroke:#A80036;stroke-width:1.0;stroke-dasharray:7.0,7.0;"/><polygon fill="none" points="137.591,51.463,154.832,39.144,149.037,59.525,137.591,51.463" style="stroke:#A80036;stroke-width:1.0;"/><!--MD5=[2460a353b68f8388d801976b817ecbdd]
reverse link Throwable to Exception--><path d="M187.861,55.742 C197.101,68.859 208.022,84.362 218.232,98.856 " fill="none" id="Throwable-backto-Exception" style="stroke:#A80036;stroke-width:1.0;stroke-dasharray:7.0,7.0;"/><polygon fill="none" points="181.963,59.525,176.168,39.144,193.409,51.463,181.963,59.525" style="stroke:#A80036;stroke-width:1.0;"/><!--MD5=[8d14b5dda1d6fce0e5bfbba2f126ffde]
reverse link Error to TypeError--><path d="M78.5,218.429 C78.5,246.827 78.5,279.061 78.5,304.915 " fill="none" id="Error-backto-TypeError" style="stroke:#A80036;stroke-width:1.0;"/><polygon fill="none" points="71.5001,218.104,78.5,198.104,85.5001,218.104,71.5001,218.104" style="stroke:#A80036;stroke-width:1.0;"/><!--MD5=[927a87f1ebb1fcced90339b079cd0d22]
reverse link Exception to LogicException--><path d="M252.5,218.429 C252.5,246.827 252.5,279.061 252.5,304.915 " fill="none" id="Exception-backto-LogicException" style="stroke:#A80036;stroke-width:1.0;"/><polygon fill="none" points="245.5,218.104,252.5,198.104,259.5,218.104,245.5,218.104" style="stroke:#A80036;stroke-width:1.0;"/><!--MD5=[64c97540f0493d3f89611241f6bb9321]
reverse link Exception to ValidationException--><path d="M337.701,204.364 C338.306,204.907 338.906,205.453 339.5,206 C366.994,231.327 392.884,263.824 413.021,291.867 " fill="none" id="Exception-backto-ValidationException" style="stroke:#A80036;stroke-width:1.0;"/><polygon fill="none" points="333.067,209.617,322.028,191.53,341.937,198.786,333.067,209.617" style="stroke:#A80036;stroke-width:1.0;"/><!--MD5=[8bfe7543a5799021da40d378de594854]
@startuml
interface Throwable {
}
hide Throwable members

class Error implements Throwable {
  #string message
  #int code
  +string getMessage()
  +int getCode()
}

class Exception implements Throwable {
  #string message
  #int code
  +string getMessage()
  +int getCode()
}

class TypeError extends Error {
  #string message
  #int code
  +string getMessage()
  +int getCode()
}

class LogicException extends Exception {
  #string message
  #int code
  +string getMessage()
  +int getCode()
}

package Illuminate {
  package Validation {
    class ValidationException extends Exception {
      #Validator validator
      #string message
      #int code
      +string getMessage()
      +int getCode()
      +string[] errors()
    }
  }
}
@enduml

PlantUML version 1.2021.15beta6(Unknown compile time)
(GPL source distribution)
Java Runtime: Java(TM) SE Runtime Environment
JVM: Java HotSpot(TM) 64-Bit Server VM
Default Encoding: UTF-8
Language: en
Country: US
--></g></svg>