<?xml version="1.0" encoding="UTF-8" standalone="no"?><svg xmlns="http://www.w3.org/2000/svg" xmlns:xlink="http://www.w3.org/1999/xlink" contentStyleType="text/css" height="847px" preserveAspectRatio="none" style="width:890px;height:847px;background:#FFFFFF;" version="1.1" viewBox="0 0 890 847" width="890px" zoomAndPan="magnify"><defs/><g><text fill="#000000" font-family="sans-serif" font-size="14" font-weight="bold" lengthAdjust="spacing" textLength="59" x="414" y="32.9951">Laravel</text><rect fill="#F1F1F1" height="52.5938" rx="12.5" ry="12.5" style="stroke:#181818;stroke-width:1.5;" width="90" x="10" y="415.0781"/><text fill="#000000" font-family="sans-serif" font-size="14" lengthAdjust="spacing" textLength="70" x="20" y="438.0732">トップ画面</text><text fill="#000000" font-family="sans-serif" font-size="14" lengthAdjust="spacing" textLength="48" x="20" y="454.3701">GET (/)</text><rect fill="#F1F1F1" height="52.5938" rx="12.5" ry="12.5" style="stroke:#181818;stroke-width:1.5;" width="174" x="150" y="415.0781"/><text fill="#000000" font-family="sans-serif" font-size="14" lengthAdjust="spacing" textLength="154" x="160" y="438.0732">システム管理トップ画面</text><text fill="#000000" font-family="sans-serif" font-size="14" lengthAdjust="spacing" textLength="87" x="160" y="454.3701">GET (admin)</text><rect fill="#F1F1F1" height="52.5938" rx="12.5" ry="12.5" style="stroke:#181818;stroke-width:1.5;" width="98" x="374" y="218.0391"/><text fill="#000000" font-family="sans-serif" font-size="14" lengthAdjust="spacing" textLength="28" x="384" y="241.0342">商品</text><text fill="#000000" font-family="sans-serif" font-size="14" lengthAdjust="spacing" textLength="74" x="388" y="257.3311">(products)</text><rect fill="#F1F1F1" height="36.2969" rx="12.5" ry="12.5" style="stroke:#181818;stroke-width:1.5;" width="160" x="522" y="57.2969"/><text fill="#000000" font-family="sans-serif" font-size="14" lengthAdjust="spacing" textLength="140" x="532" y="80.292">商品 一覧画面 GET (/)</text><path d="M472,244.3359 L482,244.3359 C497,244.3359 497,75.4453 512,75.4453 L522,75.4453 " fill="none" style="stroke:#181818;stroke-width:1.0;"/><rect fill="#F1F1F1" height="36.2969" rx="12.5" ry="12.5" style="stroke:#181818;stroke-width:1.5;" width="207" x="522" y="113.5938"/><text fill="#000000" font-family="sans-serif" font-size="14" lengthAdjust="spacing" textLength="187" x="532" y="136.5889">商品 登録画面 GET (/create)</text><path d="M472,244.3359 L482,244.3359 C497,244.3359 497,131.7422 512,131.7422 L522,131.7422 " fill="none" style="stroke:#181818;stroke-width:1.0;"/><rect fill="#F1F1F1" height="36.2969" rx="12.5" ry="12.5" style="stroke:#181818;stroke-width:1.5;" width="141" x="522" y="169.8906"/><text fill="#000000" font-family="sans-serif" font-size="14" lengthAdjust="spacing" textLength="121" x="532" y="192.8857">商品 登録 POST (/)</text><path d="M472,244.3359 L482,244.3359 C497,244.3359 497,188.0391 512,188.0391 L522,188.0391 " fill="none" style="stroke:#181818;stroke-width:1.0;"/><rect fill="#F1F1F1" height="36.2969" rx="12.5" ry="12.5" style="stroke:#181818;stroke-width:1.5;" width="191" x="522" y="226.1875"/><text fill="#000000" font-family="sans-serif" font-size="14" lengthAdjust="spacing" textLength="171" x="532" y="249.1826">商品 詳細画面 GET (/{id})</text><path d="M472,244.3359 L482,244.3359 C497,244.3359 497,244.3359 512,244.3359 L522,244.3359 " fill="none" style="stroke:#181818;stroke-width:1.0;"/><rect fill="#F1F1F1" height="36.2969" rx="12.5" ry="12.5" style="stroke:#181818;stroke-width:1.5;" width="225" x="522" y="282.4844"/><text fill="#000000" font-family="sans-serif" font-size="14" lengthAdjust="spacing" textLength="205" x="532" y="305.4795">商品 更新画面 GET (/{id}/edit)</text><path d="M472,244.3359 L482,244.3359 C497,244.3359 497,300.6328 512,300.6328 L522,300.6328 " fill="none" style="stroke:#181818;stroke-width:1.0;"/><rect fill="#F1F1F1" height="36.2969" rx="12.5" ry="12.5" style="stroke:#181818;stroke-width:1.5;" width="182" x="522" y="338.7813"/><text fill="#000000" font-family="sans-serif" font-size="14" lengthAdjust="spacing" textLength="162" x="532" y="361.7764">商品 更新 PATCH (/{id})</text><path d="M472,244.3359 L482,244.3359 C497,244.3359 497,356.9297 512,356.9297 L522,356.9297 " fill="none" style="stroke:#181818;stroke-width:1.0;"/><rect fill="#F1F1F1" height="36.2969" rx="12.5" ry="12.5" style="stroke:#181818;stroke-width:1.5;" width="189" x="522" y="395.0781"/><text fill="#000000" font-family="sans-serif" font-size="14" lengthAdjust="spacing" textLength="169" x="532" y="418.0732">商品 削除 DELETE (/{id})</text><path d="M472,244.3359 L482,244.3359 C497,244.3359 497,413.2266 512,413.2266 L522,413.2266 " fill="none" style="stroke:#181818;stroke-width:1.0;"/><path d="M324,441.375 L334,441.375 C349,441.375 349,244.3359 364,244.3359 L374,244.3359 " fill="none" style="stroke:#181818;stroke-width:1.0;"/><rect fill="#F1F1F1" height="52.5938" rx="12.5" ry="12.5" style="stroke:#181818;stroke-width:1.5;" width="173" x="374" y="612.1172"/><text fill="#000000" font-family="sans-serif" font-size="14" lengthAdjust="spacing" textLength="84" x="384" y="635.1123">商品カテゴリ</text><text fill="#000000" font-family="sans-serif" font-size="14" lengthAdjust="spacing" textLength="149" x="388" y="651.4092">(product-categories)</text><rect fill="#F1F1F1" height="36.2969" rx="12.5" ry="12.5" style="stroke:#181818;stroke-width:1.5;" width="216" x="597" y="451.375"/><text fill="#000000" font-family="sans-serif" font-size="14" lengthAdjust="spacing" textLength="196" x="607" y="474.3701">商品カテゴリ 一覧画面 GET (/)</text><path d="M547,638.4141 L557,638.4141 C572,638.4141 572,469.5234 587,469.5234 L597,469.5234 " fill="none" style="stroke:#181818;stroke-width:1.0;"/><rect fill="#F1F1F1" height="36.2969" rx="12.5" ry="12.5" style="stroke:#181818;stroke-width:1.5;" width="263" x="597" y="507.6719"/><text fill="#000000" font-family="sans-serif" font-size="14" lengthAdjust="spacing" textLength="243" x="607" y="530.667">商品カテゴリ 登録画面 GET (/create)</text><path d="M547,638.4141 L557,638.4141 C572,638.4141 572,525.8203 587,525.8203 L597,525.8203 " fill="none" style="stroke:#181818;stroke-width:1.0;"/><rect fill="#F1F1F1" height="36.2969" rx="12.5" ry="12.5" style="stroke:#181818;stroke-width:1.5;" width="197" x="597" y="563.9688"/><text fill="#000000" font-family="sans-serif" font-size="14" lengthAdjust="spacing" textLength="177" x="607" y="586.9639">商品カテゴリ 登録 POST (/)</text><path d="M547,638.4141 L557,638.4141 C572,638.4141 572,582.1172 587,582.1172 L597,582.1172 " fill="none" style="stroke:#181818;stroke-width:1.0;"/><rect fill="#F1F1F1" height="36.2969" rx="12.5" ry="12.5" style="stroke:#181818;stroke-width:1.5;" width="247" x="597" y="620.2656"/><text fill="#000000" font-family="sans-serif" font-size="14" lengthAdjust="spacing" textLength="227" x="607" y="643.2607">商品カテゴリ 詳細画面 GET (/{id})</text><path d="M547,638.4141 L557,638.4141 C572,638.4141 572,638.4141 587,638.4141 L597,638.4141 " fill="none" style="stroke:#181818;stroke-width:1.0;"/><rect fill="#F1F1F1" height="36.2969" rx="12.5" ry="12.5" style="stroke:#181818;stroke-width:1.5;" width="281" x="597" y="676.5625"/><text fill="#000000" font-family="sans-serif" font-size="14" lengthAdjust="spacing" textLength="261" x="607" y="699.5576">商品カテゴリ 更新画面 GET (/{id}/edit)</text><path d="M547,638.4141 L557,638.4141 C572,638.4141 572,694.7109 587,694.7109 L597,694.7109 " fill="none" style="stroke:#181818;stroke-width:1.0;"/><rect fill="#F1F1F1" height="36.2969" rx="12.5" ry="12.5" style="stroke:#181818;stroke-width:1.5;" width="238" x="597" y="732.8594"/><text fill="#000000" font-family="sans-serif" font-size="14" lengthAdjust="spacing" textLength="218" x="607" y="755.8545">商品カテゴリ 更新 PATCH (/{id})</text><path d="M547,638.4141 L557,638.4141 C572,638.4141 572,751.0078 587,751.0078 L597,751.0078 " fill="none" style="stroke:#181818;stroke-width:1.0;"/><rect fill="#F1F1F1" height="36.2969" rx="12.5" ry="12.5" style="stroke:#181818;stroke-width:1.5;" width="245" x="597" y="789.1563"/><text fill="#000000" font-family="sans-serif" font-size="14" lengthAdjust="spacing" textLength="225" x="607" y="812.1514">商品カテゴリ 削除 DELETE (/{id})</text><path d="M547,638.4141 L557,638.4141 C572,638.4141 572,807.3047 587,807.3047 L597,807.3047 " fill="none" style="stroke:#181818;stroke-width:1.0;"/><path d="M324,441.375 L334,441.375 C349,441.375 349,638.4141 364,638.4141 L374,638.4141 " fill="none" style="stroke:#181818;stroke-width:1.0;"/><path d="M100,441.375 L110,441.375 C125,441.375 125,441.375 140,441.375 L150,441.375 " fill="none" style="stroke:#181818;stroke-width:1.0;"/><!--SRC=[ZPFVIXj158VlvodEvOOG_mILufLMjufiQEXklF9ct1t3O7Ocp9wDb59ein3Qqej2jKL4i2AA2Y8QQ8kFiyOrR-543MPnItCvSxxVEJCVCpC1KeK-5vvFwmGvrXXOLD46gv4ynD6dE8hYw6UoUTNTtLyH2wO3ncYEv7Mj-Jjk_esZLXpj9MU_ac-jR9fwkdilaOVELglp_UEA0AEkf1Uw6Dplzmjm_UV3xU7HGngUHZq1oVPLz-j52d0LeyYoC2Y_jf-tk3s-JDhdgHRlkFS-3Ttij6z-F8T6cSSnYuJoh3EtcDcgy_bBT_i0vatBTCn1uX68cwSzXyrs79qCc2cu-bPLgJXBEnh4_-ih1G_dBYEIwJ753UCq5HZQRqRgtwvJSBPtCiE4rt_jf5oZ0Yib2nfC1LmA61yfZXMB8-EJgmpfb54Hwq9k272bN-VwOo3tjIrZeMn184FbCl1uW8glXgZJER946nJUXAB7JKDlPJYb7DXcVnDCqU1A2fy994lBfGS85YNQTOdtyDH4uIL7i9dIXuBb4fbdQpIieOwwqkEYEWqLvrNX1R6eg8QqgWSnGUQa7g3Uwffz1m00]--></g></svg>