<?xml version="1.0" encoding="UTF-8" standalone="no"?><svg xmlns="http://www.w3.org/2000/svg" xmlns:xlink="http://www.w3.org/1999/xlink" contentStyleType="text/css" height="847px" preserveAspectRatio="none" style="width:986px;height:847px;background:#FFFFFF;" version="1.1" viewBox="0 0 986 847" width="986px" zoomAndPan="magnify"><defs/><g><text fill="#000000" font-family="sans-serif" font-size="14" font-weight="bold" lengthAdjust="spacing" textLength="31" x="476" y="32.9951">PHP</text><rect fill="#F1F1F1" height="52.5938" rx="12.5" ry="12.5" style="stroke:#181818;stroke-width:1.5;" width="108" x="10" y="415.0781"/><text fill="#000000" font-family="sans-serif" font-size="14" lengthAdjust="spacing" textLength="70" x="20" y="438.0732">トップ画面</text><text fill="#000000" font-family="sans-serif" font-size="14" lengthAdjust="spacing" textLength="88" x="20" y="454.3701">(/index.php)</text><rect fill="#F1F1F1" height="52.5938" rx="12.5" ry="12.5" style="stroke:#181818;stroke-width:1.5;" width="174" x="168" y="415.0781"/><text fill="#000000" font-family="sans-serif" font-size="14" lengthAdjust="spacing" textLength="154" x="178" y="438.0732">システム管理トップ画面</text><text fill="#000000" font-family="sans-serif" font-size="14" lengthAdjust="spacing" textLength="132" x="178" y="454.3701">(admin/index.php)</text><rect fill="#F1F1F1" height="52.5938" rx="12.5" ry="12.5" style="stroke:#181818;stroke-width:1.5;" width="98" x="392" y="218.0391"/><text fill="#000000" font-family="sans-serif" font-size="14" lengthAdjust="spacing" textLength="28" x="402" y="241.0342">商品</text><text fill="#000000" font-family="sans-serif" font-size="14" lengthAdjust="spacing" textLength="74" x="406" y="257.3311">(products)</text><rect fill="#F1F1F1" height="36.2969" rx="12.5" ry="12.5" style="stroke:#181818;stroke-width:1.5;" width="200" x="540" y="57.2969"/><text fill="#000000" font-family="sans-serif" font-size="14" lengthAdjust="spacing" textLength="180" x="550" y="80.292">商品 一覧画面 (/index.php)</text><path d="M490,244.3359 L500,244.3359 C515,244.3359 515,75.4453 530,75.4453 L540,75.4453 " fill="none" style="stroke:#181818;stroke-width:1.0;"/><rect fill="#F1F1F1" height="36.2969" rx="12.5" ry="12.5" style="stroke:#181818;stroke-width:1.5;" width="252" x="540" y="113.5938"/><text fill="#000000" font-family="sans-serif" font-size="14" lengthAdjust="spacing" textLength="232" x="550" y="136.5889">商品 登録画面 (/create/index.php)</text><path d="M490,244.3359 L500,244.3359 C515,244.3359 515,131.7422 530,131.7422 L540,131.7422 " fill="none" style="stroke:#181818;stroke-width:1.0;"/><rect fill="#F1F1F1" height="36.2969" rx="12.5" ry="12.5" style="stroke:#181818;stroke-width:1.5;" width="171" x="540" y="169.8906"/><text fill="#000000" font-family="sans-serif" font-size="14" lengthAdjust="spacing" textLength="151" x="550" y="192.8857">商品 登録 (/store.php)</text><path d="M490,244.3359 L500,244.3359 C515,244.3359 515,188.0391 530,188.0391 L540,188.0391 " fill="none" style="stroke:#181818;stroke-width:1.0;"/><rect fill="#F1F1F1" height="36.2969" rx="12.5" ry="12.5" style="stroke:#181818;stroke-width:1.5;" width="303" x="540" y="226.1875"/><text fill="#000000" font-family="sans-serif" font-size="14" lengthAdjust="spacing" textLength="283" x="550" y="249.1826">商品 詳細画面 (/show/index.php?id={id})</text><path d="M490,244.3359 L500,244.3359 C515,244.3359 515,244.3359 530,244.3359 L540,244.3359 " fill="none" style="stroke:#181818;stroke-width:1.0;"/><rect fill="#F1F1F1" height="36.2969" rx="12.5" ry="12.5" style="stroke:#181818;stroke-width:1.5;" width="296" x="540" y="282.4844"/><text fill="#000000" font-family="sans-serif" font-size="14" lengthAdjust="spacing" textLength="276" x="550" y="305.4795">商品 更新画面 (/edit/index.php?id={id})</text><path d="M490,244.3359 L500,244.3359 C515,244.3359 515,300.6328 530,300.6328 L540,300.6328 " fill="none" style="stroke:#181818;stroke-width:1.0;"/><rect fill="#F1F1F1" height="36.2969" rx="12.5" ry="12.5" style="stroke:#181818;stroke-width:1.5;" width="184" x="540" y="338.7813"/><text fill="#000000" font-family="sans-serif" font-size="14" lengthAdjust="spacing" textLength="164" x="550" y="361.7764">商品 更新 (/update.php)</text><path d="M490,244.3359 L500,244.3359 C515,244.3359 515,356.9297 530,356.9297 L540,356.9297 " fill="none" style="stroke:#181818;stroke-width:1.0;"/><rect fill="#F1F1F1" height="36.2969" rx="12.5" ry="12.5" style="stroke:#181818;stroke-width:1.5;" width="188" x="540" y="395.0781"/><text fill="#000000" font-family="sans-serif" font-size="14" lengthAdjust="spacing" textLength="168" x="550" y="418.0732">商品 削除 (/destroy.php)</text><path d="M490,244.3359 L500,244.3359 C515,244.3359 515,413.2266 530,413.2266 L540,413.2266 " fill="none" style="stroke:#181818;stroke-width:1.0;"/><path d="M342,441.375 L352,441.375 C367,441.375 367,244.3359 382,244.3359 L392,244.3359 " fill="none" style="stroke:#181818;stroke-width:1.0;"/><rect fill="#F1F1F1" height="52.5938" rx="12.5" ry="12.5" style="stroke:#181818;stroke-width:1.5;" width="173" x="392" y="612.1172"/><text fill="#000000" font-family="sans-serif" font-size="14" lengthAdjust="spacing" textLength="84" x="402" y="635.1123">商品カテゴリ</text><text fill="#000000" font-family="sans-serif" font-size="14" lengthAdjust="spacing" textLength="149" x="406" y="651.4092">(product-categories)</text><rect fill="#F1F1F1" height="36.2969" rx="12.5" ry="12.5" style="stroke:#181818;stroke-width:1.5;" width="256" x="615" y="451.375"/><text fill="#000000" font-family="sans-serif" font-size="14" lengthAdjust="spacing" textLength="236" x="625" y="474.3701">商品カテゴリ 一覧画面 (/index.php)</text><path d="M565,638.4141 L575,638.4141 C590,638.4141 590,469.5234 605,469.5234 L615,469.5234 " fill="none" style="stroke:#181818;stroke-width:1.0;"/><rect fill="#F1F1F1" height="36.2969" rx="12.5" ry="12.5" style="stroke:#181818;stroke-width:1.5;" width="308" x="615" y="507.6719"/><text fill="#000000" font-family="sans-serif" font-size="14" lengthAdjust="spacing" textLength="288" x="625" y="530.667">商品カテゴリ 登録画面 (/create/index.php)</text><path d="M565,638.4141 L575,638.4141 C590,638.4141 590,525.8203 605,525.8203 L615,525.8203 " fill="none" style="stroke:#181818;stroke-width:1.0;"/><rect fill="#F1F1F1" height="36.2969" rx="12.5" ry="12.5" style="stroke:#181818;stroke-width:1.5;" width="227" x="615" y="563.9688"/><text fill="#000000" font-family="sans-serif" font-size="14" lengthAdjust="spacing" textLength="207" x="625" y="586.9639">商品カテゴリ 登録 (/store.php)</text><path d="M565,638.4141 L575,638.4141 C590,638.4141 590,582.1172 605,582.1172 L615,582.1172 " fill="none" style="stroke:#181818;stroke-width:1.0;"/><rect fill="#F1F1F1" height="36.2969" rx="12.5" ry="12.5" style="stroke:#181818;stroke-width:1.5;" width="359" x="615" y="620.2656"/><text fill="#000000" font-family="sans-serif" font-size="14" lengthAdjust="spacing" textLength="339" x="625" y="643.2607">商品カテゴリ 詳細画面 (/show/index.php?id={id})</text><path d="M565,638.4141 L575,638.4141 C590,638.4141 590,638.4141 605,638.4141 L615,638.4141 " fill="none" style="stroke:#181818;stroke-width:1.0;"/><rect fill="#F1F1F1" height="36.2969" rx="12.5" ry="12.5" style="stroke:#181818;stroke-width:1.5;" width="352" x="615" y="676.5625"/><text fill="#000000" font-family="sans-serif" font-size="14" lengthAdjust="spacing" textLength="332" x="625" y="699.5576">商品カテゴリ 更新画面 (/edit/index.php?id={id})</text><path d="M565,638.4141 L575,638.4141 C590,638.4141 590,694.7109 605,694.7109 L615,694.7109 " fill="none" style="stroke:#181818;stroke-width:1.0;"/><rect fill="#F1F1F1" height="36.2969" rx="12.5" ry="12.5" style="stroke:#181818;stroke-width:1.5;" width="240" x="615" y="732.8594"/><text fill="#000000" font-family="sans-serif" font-size="14" lengthAdjust="spacing" textLength="220" x="625" y="755.8545">商品カテゴリ 更新 (/update.php)</text><path d="M565,638.4141 L575,638.4141 C590,638.4141 590,751.0078 605,751.0078 L615,751.0078 " fill="none" style="stroke:#181818;stroke-width:1.0;"/><rect fill="#F1F1F1" height="36.2969" rx="12.5" ry="12.5" style="stroke:#181818;stroke-width:1.5;" width="244" x="615" y="789.1563"/><text fill="#000000" font-family="sans-serif" font-size="14" lengthAdjust="spacing" textLength="224" x="625" y="812.1514">商品カテゴリ 削除 (/destroy.php)</text><path d="M565,638.4141 L575,638.4141 C590,638.4141 590,807.3047 605,807.3047 L615,807.3047 " fill="none" style="stroke:#181818;stroke-width:1.0;"/><path d="M342,441.375 L352,441.375 C367,441.375 367,638.4141 382,638.4141 L392,638.4141 " fill="none" style="stroke:#181818;stroke-width:1.0;"/><path d="M118,441.375 L128,441.375 C143,441.375 143,441.375 158,441.375 L168,441.375 " fill="none" style="stroke:#181818;stroke-width:1.0;"/><!--SRC=[bPDHQnD14CVVzrFCuuMGQ8CMAOZ5MYqbWM2QFlLbUpkcYxdTOsykjOYWEGXjyK5eLOe8Ag9OGKeDsDAFSwRNV0itBMbwJIhDu-xy_lyP_iDC1yGDUL89Z_kC9DKHodDbbeKuMe-ZA8xU9zj7tOzVbfHpmrBuBE-l-1cMjK3pJzmyZADM77rAVdrEthI69LnOwxGk2vsthSxMgoK5Zc-q25qAJl_x1VXxyFBas_Sp3xZKTK0bEqVTr_ldb6kG4_uVjbX0sk1m_UJ7xwIzTsuMhEZLWTKzAUu-b-95MdByeNtyRY118Ubw4Wk7lh333e_HsTZixdorWC20Z5wxd5dS_DdBkzcEezqB-ULSwrRJHc8woOluzL9DASP9U8JmohHJxFZ9f-JZRs64_EgDfE3Hsvb69VhtmyfrhgXQAa83JI2rWebyuMQXa9-ulOp49vsgUghqgW9NUxwqfqRImmnp7fMB4EZGk0X2Mc-v799LPzWyRt1u7AeUDmMzbxDGoa1bjly9iweXZLOUAcBpYwKp2EOqLNnDf_3ahTnzIL11OuU2nH9xW4zuM2ShTRMGgZO5rOM7kJkio5Kjv3NR21MRqRQ1MREroZy0]--></g></svg>