<?xml version="1.0" encoding="UTF-8" standalone="no"?><svg xmlns="http://www.w3.org/2000/svg" xmlns:xlink="http://www.w3.org/1999/xlink" contentStyleType="text/css" height="349px" preserveAspectRatio="none" style="width:464px;height:349px;background:#FFFFFF;" version="1.1" viewBox="0 0 464 349" width="464px" zoomAndPan="magnify"><defs/><g><rect height="26.2969" style="stroke:#00000000;stroke-width:1.0;fill:none;" width="205" x="103" y="15"/><text fill="#000000" font-family="sans-serif" font-size="14" font-weight="bold" lengthAdjust="spacing" textLength="195" x="108" y="32.9951">ローカルディレクトリ構成例</text><rect fill="#DDDDDD" height="52.5938" rx="12.5" ry="12.5" style="stroke:#181818;stroke-width:1.5;" width="58" x="10" y="166.1875"/><text fill="#000000" font-family="sans-serif" font-size="14" lengthAdjust="spacing" textLength="20" x="20" y="189.1826">git</text><text fill="#000000" font-family="sans-serif" font-size="14" lengthAdjust="spacing" textLength="38" x="20" y="205.4795">(任意)</text><rect fill="#FFF450" height="52.5938" rx="12.5" ry="12.5" style="stroke:#181818;stroke-width:1.5;" width="128" x="118" y="93.5938"/><text fill="#000000" font-family="sans-serif" font-size="14" lengthAdjust="spacing" textLength="107" x="128" y="116.5889">epkotsoftware</text><text fill="#000000" font-family="sans-serif" font-size="14" lengthAdjust="spacing" textLength="108" x="128" y="132.8857">(組織アカウント)</text><rect fill="#FFF450" height="52.5938" rx="12.5" ry="12.5" style="stroke:#181818;stroke-width:1.5;" width="128" x="296" y="57.2969"/><text fill="#000000" font-family="sans-serif" font-size="14" lengthAdjust="spacing" textLength="56" x="306" y="80.292">training</text><text fill="#000000" font-family="sans-serif" font-size="14" lengthAdjust="spacing" textLength="108" x="306" y="96.5889">(研修リポジトリ)</text><path d="M246,119.8906 L256,119.8906 C271,119.8906 271,83.5938 286,83.5938 L296,83.5938 " fill="none" style="stroke:#181818;stroke-width:1.0;"/><rect fill="#FFF450" height="52.5938" rx="12.5" ry="12.5" style="stroke:#181818;stroke-width:1.5;" width="156" x="296" y="129.8906"/><text fill="#000000" font-family="sans-serif" font-size="14" lengthAdjust="spacing" textLength="64" x="306" y="152.8857">dev-xxxx</text><text fill="#000000" font-family="sans-serif" font-size="14" lengthAdjust="spacing" textLength="136" x="306" y="169.1826">(内部開発リポジトリ)</text><path d="M246,119.8906 L256,119.8906 C271,119.8906 271,156.1875 286,156.1875 L296,156.1875 " fill="none" style="stroke:#181818;stroke-width:1.0;"/><path d="M68,192.4844 L78,192.4844 C93,192.4844 93,119.8906 108,119.8906 L118,119.8906 " fill="none" style="stroke:#181818;stroke-width:1.0;"/><rect fill="#FFF450" height="52.5938" rx="12.5" ry="12.5" style="stroke:#181818;stroke-width:1.5;" width="142" x="118" y="202.4844"/><text fill="#000000" font-family="sans-serif" font-size="14" lengthAdjust="spacing" textLength="36" x="128" y="225.4795">oooo</text><text fill="#000000" font-family="sans-serif" font-size="14" lengthAdjust="spacing" textLength="122" x="128" y="241.7764">(その他アカウント)</text><rect fill="#FFF450" height="52.5938" rx="12.5" ry="12.5" style="stroke:#181818;stroke-width:1.5;" width="100" x="310" y="202.4844"/><text fill="#000000" font-family="sans-serif" font-size="14" lengthAdjust="spacing" textLength="33" x="320" y="225.4795">◇◇◇</text><text fill="#000000" font-family="sans-serif" font-size="14" lengthAdjust="spacing" textLength="80" x="320" y="241.7764">(リポジトリ)</text><path d="M260,228.7813 L270,228.7813 C285,228.7813 285,228.7813 300,228.7813 L310,228.7813 " fill="none" style="stroke:#181818;stroke-width:1.0;"/><path d="M68,192.4844 L78,192.4844 C93,192.4844 93,228.7813 108,228.7813 L118,228.7813 " fill="none" style="stroke:#181818;stroke-width:1.0;"/><rect fill="#FFF450" height="52.5938" rx="12.5" ry="12.5" style="stroke:#181818;stroke-width:1.5;" width="128" x="118" y="275.0781"/><text fill="#000000" font-family="sans-serif" font-size="14" lengthAdjust="spacing" textLength="32" x="128" y="298.0732">xxxx</text><text fill="#000000" font-family="sans-serif" font-size="14" lengthAdjust="spacing" textLength="108" x="128" y="314.3701">(個人アカウント)</text><rect fill="#FFF450" height="52.5938" rx="12.5" ry="12.5" style="stroke:#181818;stroke-width:1.5;" width="150" x="296" y="275.0781"/><text fill="#000000" font-family="sans-serif" font-size="14" lengthAdjust="spacing" textLength="82" x="306" y="298.0732">training-git</text><text fill="#000000" font-family="sans-serif" font-size="14" lengthAdjust="spacing" textLength="130" x="306" y="314.3701">(Git研修リポジトリ)</text><path d="M246,301.375 L256,301.375 C271,301.375 271,301.375 286,301.375 L296,301.375 " fill="none" style="stroke:#181818;stroke-width:1.0;"/><path d="M68,192.4844 L78,192.4844 C93,192.4844 93,301.375 108,301.375 L118,301.375 " fill="none" style="stroke:#181818;stroke-width:1.0;"/><!--MD5=[a0253a1bcd882a1a8a197f675f94663c]
@startmindmap
title ローカルディレクトリ構成例
<style>
node {
  BackgroundColor #FFF450
}
rootNode {
  BackgroundColor #DDDDDD
}
</style>

*:git
(任意);
**:epkotsoftware
(組織アカウント);
***:training
(研修リポジトリ);
***:dev-xxxx
(内部開発リポジトリ);
**:oooo
(その他アカウント);
***:◇◇◇
(リポジトリ);
**:xxxx
(個人アカウント);
***:training-git
(Git研修リポジトリ);
@endmindmap

PlantUML version 1.2022.6beta5(Unknown compile time)
(GPL source distribution)
Java Runtime: Java(TM) SE Runtime Environment
JVM: Java HotSpot(TM) 64-Bit Server VM
Default Encoding: UTF-8
Language: en
Country: US
--></g></svg>