<svg viewBox="-161.3828125 -34.95000076293945 589.3828125 380.212890625" height="100%" aria-labelledby="chart-title-graph-div chart-desc-graph-div" role="img" xmlns="http://www.w3.org/2000/svg" width="589.3828125" id="graph-div" style="max-width: 100%;" xmlns:xlink="http://www.w3.org/1999/xlink"><style>@import url("https://cdnjs.cloudflare.com/ajax/libs/font-awesome/6.2.0/css/all.min.css");'</style><title id="chart-title-graph-div"></title><desc id="chart-desc-graph-div"></desc><style>#graph-div {font-family:"trebuchet ms",verdana,arial,sans-serif;font-size:16px;fill:#333;}#graph-div .error-icon{fill:#552222;}#graph-div .error-text{fill:#552222;stroke:#552222;}#graph-div .edge-thickness-normal{stroke-width:2px;}#graph-div .edge-thickness-thick{stroke-width:3.5px;}#graph-div .edge-pattern-solid{stroke-dasharray:0;}#graph-div .edge-pattern-dashed{stroke-dasharray:3;}#graph-div .edge-pattern-dotted{stroke-dasharray:2;}#graph-div .marker{fill:#333333;stroke:#333333;}#graph-div .marker.cross{stroke:#333333;}#graph-div svg{font-family:"trebuchet ms",verdana,arial,sans-serif;font-size:16px;}#graph-div .commit-id,#graph-div .commit-msg,#graph-div .branch-label{fill:lightgrey;color:lightgrey;font-family:'trebuchet ms',verdana,arial,sans-serif;font-family:var(--mermaid-font-family);}#graph-div .branch-label0{fill:#ffffff;}#graph-div .commit0{stroke:hsl(240, 100%, 46.2745098039%);fill:hsl(240, 100%, 46.2745098039%);}#graph-div .commit-highlight0{stroke:hsl(60, 100%, 3.7254901961%);fill:hsl(60, 100%, 3.7254901961%);}#graph-div .label0{fill:hsl(240, 100%, 46.2745098039%);}#graph-div .arrow0{stroke:hsl(240, 100%, 46.2745098039%);}#graph-div .branch-label1{fill:black;}#graph-div .commit1{stroke:hsl(60, 100%, 43.5294117647%);fill:hsl(60, 100%, 43.5294117647%);}#graph-div .commit-highlight1{stroke:rgb(0, 0, 160.5);fill:rgb(0, 0, 160.5);}#graph-div .label1{fill:hsl(60, 100%, 43.5294117647%);}#graph-div .arrow1{stroke:hsl(60, 100%, 43.5294117647%);}#graph-div .branch-label2{fill:black;}#graph-div .commit2{stroke:hsl(80, 100%, 46.2745098039%);fill:hsl(80, 100%, 46.2745098039%);}#graph-div .commit-highlight2{stroke:rgb(48.8333333334, 0, 146.5000000001);fill:rgb(48.8333333334, 0, 146.5000000001);}#graph-div .label2{fill:hsl(80, 100%, 46.2745098039%);}#graph-div .arrow2{stroke:hsl(80, 100%, 46.2745098039%);}#graph-div .branch-label3{fill:#ffffff;}#graph-div .commit3{stroke:hsl(210, 100%, 46.2745098039%);fill:hsl(210, 100%, 46.2745098039%);}#graph-div .commit-highlight3{stroke:rgb(146.5000000001, 73.2500000001, 0);fill:rgb(146.5000000001, 73.2500000001, 0);}#graph-div .label3{fill:hsl(210, 100%, 46.2745098039%);}#graph-div .arrow3{stroke:hsl(210, 100%, 46.2745098039%);}#graph-div .branch-label4{fill:black;}#graph-div .commit4{stroke:hsl(180, 100%, 46.2745098039%);fill:hsl(180, 100%, 46.2745098039%);}#graph-div .commit-highlight4{stroke:rgb(146.5000000001, 0, 0);fill:rgb(146.5000000001, 0, 0);}#graph-div .label4{fill:hsl(180, 100%, 46.2745098039%);}#graph-div .arrow4{stroke:hsl(180, 100%, 46.2745098039%);}#graph-div .branch-label5{fill:black;}#graph-div .commit5{stroke:hsl(150, 100%, 46.2745098039%);fill:hsl(150, 100%, 46.2745098039%);}#graph-div .commit-highlight5{stroke:rgb(146.5000000001, 0, 73.2500000001);fill:rgb(146.5000000001, 0, 73.2500000001);}#graph-div .label5{fill:hsl(150, 100%, 46.2745098039%);}#graph-div .arrow5{stroke:hsl(150, 100%, 46.2745098039%);}#graph-div .branch-label6{fill:black;}#graph-div .commit6{stroke:hsl(300, 100%, 46.2745098039%);fill:hsl(300, 100%, 46.2745098039%);}#graph-div .commit-highlight6{stroke:rgb(0, 146.5000000001, 0);fill:rgb(0, 146.5000000001, 0);}#graph-div .label6{fill:hsl(300, 100%, 46.2745098039%);}#graph-div .arrow6{stroke:hsl(300, 100%, 46.2745098039%);}#graph-div .branch-label7{fill:black;}#graph-div .commit7{stroke:hsl(0, 100%, 46.2745098039%);fill:hsl(0, 100%, 46.2745098039%);}#graph-div .commit-highlight7{stroke:rgb(0, 146.5000000001, 146.5000000001);fill:rgb(0, 146.5000000001, 146.5000000001);}#graph-div .label7{fill:hsl(0, 100%, 46.2745098039%);}#graph-div .arrow7{stroke:hsl(0, 100%, 46.2745098039%);}#graph-div .branch{stroke-width:1;stroke:#333333;stroke-dasharray:2;}#graph-div .commit-label{font-size:10px;fill:#000021;}#graph-div .commit-label-bkg{font-size:10px;fill:#ffffde;opacity:0.5;}#graph-div .tag-label{font-size:10px;fill:#131300;}#graph-div .tag-label-bkg{fill:#ECECFF;stroke:hsl(240, 60%, 86.2745098039%);}#graph-div .tag-hole{fill:#333;}#graph-div .commit-merge{stroke:#ECECFF;fill:#ECECFF;}#graph-div .commit-reverse{stroke:#ECECFF;fill:#ECECFF;stroke-width:3;}#graph-div .commit-highlight-inner{stroke:#ECECFF;fill:#ECECFF;}#graph-div .arrow{stroke-width:8;stroke-linecap:round;fill:none;}:root{--mermaid-font-family:"trebuchet ms",verdana,arial,sans-serif;}</style><g></g><g class="commit-bullets"></g><g class="commit-labels"></g><g><line class="branch branch0" y2="0" x2="450" y1="0" x1="0"></line><rect transform="translate(-19, -9.25)" height="22.5" width="52.9921875" y="-1.25" x="-68.9921875" ry="4" rx="4" class="branchLabelBkg label0"></rect><g class="branchLabel"><g transform="translate(-78.9921875, -10.25)" class="label branch-label0"><text><tspan class="row" x="0" dy="1em" xml:space="preserve">main</tspan></text></g></g><line class="branch branch1" y2="90" x2="450" y1="90" x1="0"></line><rect transform="translate(-19, 80.75)" height="22.5" width="74.421875" y="-1.25" x="-90.421875" ry="4" rx="4" class="branchLabelBkg label1"></rect><g class="branchLabel"><g transform="translate(-100.421875, 79.75)" class="label branch-label1"><text><tspan class="row" x="0" dy="1em" xml:space="preserve">develop</tspan></text></g></g><line class="branch branch2" y2="180" x2="450" y1="180" x1="0"></line><rect transform="translate(-19, 170.75)" height="22.5" width="87.875" y="-1.25" x="-103.875" ry="4" rx="4" class="branchLabelBkg label2"></rect><g class="branchLabel"><g transform="translate(-113.875, 169.75)" class="label branch-label2"><text><tspan class="row" x="0" dy="1em" xml:space="preserve">feature/a</tspan></text></g></g><line class="branch branch3" y2="270" x2="450" y1="270" x1="0"></line><rect transform="translate(-19, 260.75)" height="22.5" width="88.3828125" y="-1.25" x="-104.3828125" ry="4" rx="4" class="branchLabelBkg label3"></rect><g class="branchLabel"><g transform="translate(-114.3828125, 259.75)" class="label branch-label3"><text><tspan class="row" x="0" dy="1em" xml:space="preserve">feature/b</tspan></text></g></g></g><g class="commit-arrows"><path class="arrow arrow2" d="M 10 0 L 10 160 A 20 20, 0, 0, 0, 30 180 L 60 180"></path><path class="arrow arrow2" d="M 60 180 L 60 180  60 180 L 110 180"></path><path class="arrow arrow3" d="M 10 0 L 10 250 A 20 20, 0, 0, 0, 30 270 L 160 270"></path><path class="arrow arrow3" d="M 160 270 L 160 270  160 270 L 210 270"></path><path class="arrow arrow1" d="M 10 0 L 10 70 A 20 20, 0, 0, 0, 30 90 L 260 90"></path><path class="arrow arrow3" d="M 210 270 L 240 270 A 20 20, 0, 0, 0, 260 250 L 260 90"></path><path class="arrow arrow1" d="M 260 90 L 260 90  260 90 L 310 90"></path><path class="arrow arrow1" d="M 110 180 L 110 145 A 10 10, 0, 0, 1, 120 135 L 300 135 A 10 10, 0, 0, 0, 310 125 L 310 90"></path><path class="arrow arrow1" d="M 310 90 L 310 90  310 90 L 360 90"></path><path class="arrow arrow0" d="M 10 0 L 10 0  10 0 L 410 0"></path><path class="arrow arrow1" d="M 360 90 L 390 90 A 20 20, 0, 0, 0, 410 70 L 410 0"></path></g><g class="commit-bullets"><circle class="commit initial commit commit0" r="10" cy="0" cx="10"></circle><circle class="commit implementA commit2" r="10" cy="180" cx="60"></circle><circle class="commit testA (bugfix) commit2" r="10" cy="180" cx="110"></circle><circle class="commit implementB commit3" r="10" cy="270" cx="160"></circle><circle class="commit testB (bugfix) commit3" r="10" cy="270" cx="210"></circle><circle class="commit 5-0389d0c commit1" r="9" cy="90" cx="260"></circle><circle class="commit commit-merge 5-0389d0c commit1" r="6" cy="90" cx="260"></circle><circle class="commit 6-9403b14 commit1" r="9" cy="90" cx="310"></circle><circle class="commit commit-merge 6-9403b14 commit1" r="6" cy="90" cx="310"></circle><circle class="commit testDevelop commit1" r="10" cy="90" cx="360"></circle><circle class="commit 8-9fb9037 commit0" r="9" cy="0" cx="410"></circle><circle class="commit commit-merge 8-9fb9037 commit0" r="6" cy="0" cx="410"></circle></g><g class="commit-labels"><g transform="translate(-35.21625, 31.39875) rotate(-45, 0, 0)"><rect height="15.5" width="66.9375" y="13.5" x="-23.46875" class="commit-label-bkg"></rect><text class="commit-label" y="25" x="-21.46875">initial commit</text></g><polygon points="-11.53125,-17.2
          -11.53125,-21.2
          -3.53125,-26.95
          23.53125,-26.95
          23.53125,-11.45
          -3.53125,-11.45" class="tag-label-bkg"></polygon><circle class="tag-hole" r="1.5" cy="-19.2" cx="-7.53125"></circle><text x="0.46875" class="tag-label" y="-16">v0.1</text><g transform="translate(-31.90015625, 28.43171875) rotate(-45, 50, 180)"><rect height="15.55078125" width="58.2109375" y="193.5" x="30.89453125" class="commit-label-bkg"></rect><text class="commit-label" y="205" x="32.89453125">implementA</text></g><g transform="translate(-34.385000000000005, 30.655) rotate(-45, 100, 180)"><rect height="15.58984375" width="64.75" y="193.5" x="77.625" class="commit-label-bkg"></rect><text class="commit-label" y="205" x="79.625">testA (bugfix)</text></g><g transform="translate(-31.81109375, 28.35203125) rotate(-45, 150, 270)"><rect height="15.55078125" width="57.9765625" y="283.5" x="131.01171875" class="commit-label-bkg"></rect><text class="commit-label" y="295" x="133.01171875">implementB</text></g><g transform="translate(-34.50375, 30.76125) rotate(-45, 200, 270)"><rect height="15.58984375" width="65.0625" y="283.5" x="177.46875" class="commit-label-bkg"></rect><text class="commit-label" y="295" x="179.46875">testB (bugfix)</text></g><g transform="translate(-31.53796875, 28.10765625) rotate(-45, 350, 90)"><rect height="15.55078125" width="57.2578125" y="103.5" x="331.37109375" class="commit-label-bkg"></rect><text class="commit-label" y="115" x="333.37109375">testDevelop</text></g><polygon points="388.46875,-17.2
          388.46875,-21.2
          396.46875,-26.95
          423.53125,-26.95
          423.53125,-11.45
          396.46875,-11.45" class="tag-label-bkg"></polygon><circle class="tag-hole" r="1.5" cy="-19.2" cx="392.46875"></circle><text x="400.46875" class="tag-label" y="-16">v1.0</text></g></svg>