<?xml version="1.0" encoding="UTF-8" standalone="no"?><svg xmlns="http://www.w3.org/2000/svg" xmlns:xlink="http://www.w3.org/1999/xlink" contentScriptType="application/ecmascript" contentStyleType="text/css" height="198px" preserveAspectRatio="none" style="width:347px;height:198px;background:#FFFFFF;" version="1.1" viewBox="0 0 347 198" width="347px" zoomAndPan="magnify"><defs/><g><rect fill="#DDDDDD" height="179.4531" rx="3.5" ry="3.5" style="stroke:#A80036;stroke-width:1.0;" width="89" x="161" y="6"/><text fill="#000000" font-family="sans-serif" font-size="13" font-weight="bold" lengthAdjust="spacing" textLength="39" x="186" y="18.0669">Local</text><rect fill="#DDDDDD" height="179.4531" rx="3.5" ry="3.5" style="stroke:#A80036;stroke-width:1.0;" width="89" x="252" y="6"/><text fill="#000000" font-family="sans-serif" font-size="13" font-weight="bold" lengthAdjust="spacing" textLength="52" x="270.5" y="18.0669">GitHub</text><rect fill="#FFFFFF" height="36.1328" style="stroke:#696969;stroke-width:1.0;" width="10" x="200.5" y="146.3203"/><rect fill="#FFFFFF" height="12" style="stroke:#696969;stroke-width:1.0;" width="10" x="291.5" y="170.4531"/><line style="stroke:#696969;stroke-width:1.0;stroke-dasharray:5.0,5.0;" x1="205" x2="205" y1="136.3203" y2="191.4531"/><line style="stroke:#696969;stroke-width:1.0;stroke-dasharray:5.0,5.0;" x1="296" x2="296" y1="136.3203" y2="191.4531"/><text fill="#454645" font-family="sans-serif" font-size="14" lengthAdjust="spacing" textLength="33" x="186" y="84.1279">local</text><text fill="#454645" font-family="sans-serif" font-size="14" lengthAdjust="spacing" textLength="75" x="165" y="100.4248">repository</text><text fill="#454645" font-family="sans-serif" font-size="14" lengthAdjust="spacing" textLength="0" x="204.5" y="116.7217"/><text fill="#454645" font-family="sans-serif" font-size="14" lengthAdjust="spacing" textLength="66" x="169.5" y="133.0186">feature/a</text><path d="M187.5,35.1328 C187.5,25.1328 205.5,25.1328 205.5,25.1328 C205.5,25.1328 223.5,25.1328 223.5,35.1328 L223.5,61.1328 C223.5,71.1328 205.5,71.1328 205.5,71.1328 C205.5,71.1328 187.5,71.1328 187.5,61.1328 L187.5,35.1328 " fill="#00FFFF" style="stroke:#454645;stroke-width:1.5;"/><path d="M187.5,35.1328 C187.5,45.1328 205.5,45.1328 205.5,45.1328 C205.5,45.1328 223.5,45.1328 223.5,35.1328 " fill="none" style="stroke:#454645;stroke-width:1.5;"/><text fill="#454645" font-family="sans-serif" font-size="14" lengthAdjust="spacing" textLength="54" x="266.5" y="84.1279">remote</text><text fill="#454645" font-family="sans-serif" font-size="14" lengthAdjust="spacing" textLength="75" x="256" y="100.4248">repository</text><text fill="#454645" font-family="sans-serif" font-size="14" lengthAdjust="spacing" textLength="0" x="295.5" y="116.7217"/><text fill="#454645" font-family="sans-serif" font-size="14" lengthAdjust="spacing" textLength="66" x="260.5" y="133.0186">feature/a</text><path d="M278.5,35.1328 C278.5,25.1328 296.5,25.1328 296.5,25.1328 C296.5,25.1328 314.5,25.1328 314.5,35.1328 L314.5,61.1328 C314.5,71.1328 296.5,71.1328 296.5,71.1328 C296.5,71.1328 278.5,71.1328 278.5,61.1328 L278.5,35.1328 " fill="#00FFFF" style="stroke:#454645;stroke-width:1.5;"/><path d="M278.5,35.1328 C278.5,45.1328 296.5,45.1328 296.5,45.1328 C296.5,45.1328 314.5,45.1328 314.5,35.1328 " fill="none" style="stroke:#454645;stroke-width:1.5;"/><rect fill="#FFFFFF" height="36.1328" style="stroke:#696969;stroke-width:1.0;" width="10" x="200.5" y="146.3203"/><rect fill="#FFFFFF" height="12" style="stroke:#696969;stroke-width:1.0;" width="10" x="291.5" y="170.4531"/><polygon fill="#454645" points="279.5,166.4531,289.5,170.4531,279.5,174.4531,283.5,170.4531" style="stroke:#454645;stroke-width:1.0;"/><line style="stroke:#454645;stroke-width:1.0;" x1="210.5" x2="285.5" y1="170.4531" y2="170.4531"/><text fill="#000000" font-family="sans-serif" font-size="13" lengthAdjust="spacing" textLength="31" x="217.5" y="165.3872">push</text><path d="M5,154.8203 L5,172.8203 A3.5,3.5 0 0 0 8.5,176.3203 L192.5,176.3203 A3.5,3.5 0 0 0 196,172.8203 L196,161.3203 L186,151.3203 L8.5,151.3203 A3.5,3.5 0 0 0 5,154.8203 " fill="#7FFFD4" style="stroke:#454645;stroke-width:1.5;"/><path d="M186,151.3203 L186,159.5703 A1.75,1.75 0 0 0 187.75,161.3203 L196,161.3203 L186,151.3203 " fill="#7FFFD4" style="stroke:#454645;stroke-width:1.5;"/><text fill="#454645" font-family="sans-serif" font-size="13" lengthAdjust="spacing" textLength="170" x="11" y="168.3872">git push -u origin feature/a</text><!--MD5=[3666f95b4dd7b8ebe453a1bce9a3a965]
@startuml
!theme vibrant
hide footbox

box "Local"
  database "local\nrepository\n\nfeature/a" as l
end box

box "GitHub"
  database "remote\nrepository\n\nfeature/a" as o
end box

activate l
l -> o:push
note left: git push -u origin feature/a
activate o
@enduml

@startuml
skinparam BackgroundColor FFFFFF
skinparam shadowing false
skinparam RoundCorner 7
skinparam ArrowColor 454645
skinparam FontColor 454645
skinparam SequenceLifeLineBorderColor 696969
skinparam SequenceGroupHeaderFontColor 454645
skinparam SequenceGroupFontColor 696969
skinparam SequenceGroupBorderColor 696969
skinparam SequenceGroupBorderThickness 1

skinparam sequenceDivider {
    BorderColor 454645
    BorderThickness 1
    FontColor 454645
}

skinparam participant {
    BackgroundColor FF6347
    BorderColor 454645
    FontColor FFFFFF
    BorderThickness 1.5
}

skinparam database {
    BackgroundColor 00FFFF
    BorderColor 454645
    FontColor 454645
}

skinparam entity {
    BackgroundColor FFE552
    BorderColor 454645
    FontColor 454645
}

skinparam note {
    BackgroundColor 7FFFD4
    BorderColor 454645
    FontColor 454645
    BorderThickness 1.5
}

skinparam actor {
    BackgroundColor 454645
    BorderColor 454645
    FontColor 454645
}

skinparam boundary {
    BackgroundColor FFE552
    BorderColor 454645
    FontColor 454645
}

skinparam control {
    BackgroundColor FFE552
    BorderColor 454645
    FontColor 454645
}

skinparam collections {
    BackgroundColor FF5F42
    BorderColor 454645
    FontColor 454645
}

skinparam queue {
    BackgroundColor FF6347
    BorderColor 454645
    FontColor FFF
    BorderThickness 1.5
}
hide footbox

box "Local"
  database "local\nrepository\n\nfeature/a" as l
end box

box "GitHub"
  database "remote\nrepository\n\nfeature/a" as o
end box

activate l
l -> o:push
note left: git push -u origin feature/a
activate o
@enduml

PlantUML version 1.2021.17beta3(Unknown compile time)
(GPL source distribution)
Java Runtime: Java(TM) SE Runtime Environment
JVM: Java HotSpot(TM) 64-Bit Server VM
Default Encoding: UTF-8
Language: en
Country: US
--></g></svg>