<?xml version="1.0" encoding="UTF-8" standalone="no"?><svg xmlns="http://www.w3.org/2000/svg" xmlns:xlink="http://www.w3.org/1999/xlink" contentScriptType="application/ecmascript" contentStyleType="text/css" height="555px" preserveAspectRatio="none" style="width:565px;height:555px;background:#FFFFFF;" version="1.1" viewBox="0 0 565 555" width="565px" zoomAndPan="magnify"><defs/><g><rect fill="#DDDDDD" height="536.0234" rx="3.5" ry="3.5" style="stroke:#A80036;stroke-width:1.0;" width="174" x="1" y="6"/><text fill="#000000" font-family="sans-serif" font-size="13" font-weight="bold" lengthAdjust="spacing" textLength="60" x="58" y="18.0669">Feature</text><rect fill="#DDDDDD" height="536.0234" rx="3.5" ry="3.5" style="stroke:#A80036;stroke-width:1.0;" width="72" x="214" y="6"/><text fill="#000000" font-family="sans-serif" font-size="13" font-weight="bold" lengthAdjust="spacing" textLength="60" x="220" y="18.0669">Develop</text><rect fill="#DDDDDD" height="536.0234" rx="3.5" ry="3.5" style="stroke:#A80036;stroke-width:1.0;" width="49" x="341.5" y="6"/><text fill="#000000" font-family="sans-serif" font-size="13" font-weight="bold" lengthAdjust="spacing" textLength="35" x="348.5" y="18.0669">Main</text><rect fill="#FFFFFF" height="255.9297" style="stroke:#696969;stroke-width:1.0;" width="10" x="36" y="160.6953"/><rect fill="#FFFFFF" height="113.3984" style="stroke:#696969;stroke-width:1.0;" width="10" x="129" y="274.0938"/><rect fill="#FFFFFF" height="407.4609" style="stroke:#696969;stroke-width:1.0;" width="10" x="245" y="131.5625"/><rect fill="#FFFFFF" height="455.5938" style="stroke:#696969;stroke-width:1.0;" width="10" x="361" y="83.4297"/><line style="stroke:#696969;stroke-width:1.0;stroke-dasharray:5.0,5.0;" x1="41" x2="41" y1="73.4297" y2="548.0234"/><line style="stroke:#696969;stroke-width:1.0;stroke-dasharray:5.0,5.0;" x1="134" x2="134" y1="73.4297" y2="548.0234"/><line style="stroke:#696969;stroke-width:1.0;stroke-dasharray:5.0,5.0;" x1="250" x2="250" y1="73.4297" y2="548.0234"/><line style="stroke:#696969;stroke-width:1.0;stroke-dasharray:5.0,5.0;" x1="365.5" x2="365.5" y1="73.4297" y2="548.0234"/><text fill="#454645" font-family="sans-serif" font-size="14" lengthAdjust="spacing" textLength="66" x="5" y="70.1279">feature/a</text><ellipse cx="41" cy="41.1328" fill="#FF69B4" rx="12" ry="12" style="stroke:#454645;stroke-width:2.0;"/><line style="stroke:#454645;stroke-width:2.0;" x1="29" x2="53" y1="55.1328" y2="55.1328"/><text fill="#454645" font-family="sans-serif" font-size="14" lengthAdjust="spacing" textLength="68" x="97" y="70.1279">feature/b</text><ellipse cx="134" cy="41.1328" fill="#FF69B4" rx="12" ry="12" style="stroke:#454645;stroke-width:2.0;"/><line style="stroke:#454645;stroke-width:2.0;" x1="122" x2="146" y1="55.1328" y2="55.1328"/><text fill="#454645" font-family="sans-serif" font-size="14" lengthAdjust="spacing" textLength="58" x="218" y="70.1279">develop</text><ellipse cx="250" cy="41.1328" fill="#FFD700" rx="12" ry="12" style="stroke:#454645;stroke-width:2.0;"/><line style="stroke:#454645;stroke-width:2.0;" x1="238" x2="262" y1="55.1328" y2="55.1328"/><text fill="#454645" font-family="sans-serif" font-size="14" lengthAdjust="spacing" textLength="35" x="345.5" y="70.1279">main</text><ellipse cx="366" cy="41.1328" fill="#87CEFA" rx="12" ry="12" style="stroke:#454645;stroke-width:2.0;"/><line style="stroke:#454645;stroke-width:2.0;" x1="354" x2="378" y1="55.1328" y2="55.1328"/><rect fill="#FFFFFF" height="255.9297" style="stroke:#696969;stroke-width:1.0;" width="10" x="36" y="160.6953"/><rect fill="#FFFFFF" height="113.3984" style="stroke:#696969;stroke-width:1.0;" width="10" x="129" y="274.0938"/><rect fill="#FFFFFF" height="407.4609" style="stroke:#696969;stroke-width:1.0;" width="10" x="245" y="131.5625"/><rect fill="#FFFFFF" height="455.5938" style="stroke:#696969;stroke-width:1.0;" width="10" x="361" y="83.4297"/><line style="stroke:#454645;stroke-width:1.0;" x1="371" x2="413" y1="104.5625" y2="104.5625"/><line style="stroke:#454645;stroke-width:1.0;" x1="413" x2="413" y1="104.5625" y2="117.5625"/><line style="stroke:#454645;stroke-width:1.0;" x1="372" x2="413" y1="117.5625" y2="117.5625"/><polygon fill="#454645" points="382,113.5625,372,117.5625,382,121.5625,378,117.5625" style="stroke:#454645;stroke-width:1.0;"/><text fill="#000000" font-family="sans-serif" font-size="13" lengthAdjust="spacing" textLength="86" x="378" y="99.4966">initial commit</text><path d="M476,95.4297 L476,113.4297 A3.5,3.5 0 0 0 479.5,116.9297 L554.5,116.9297 A3.5,3.5 0 0 0 558,113.4297 L558,101.9297 L548,91.9297 L479.5,91.9297 A3.5,3.5 0 0 0 476,95.4297 " fill="#7FFFD4" style="stroke:#454645;stroke-width:1.5;"/><path d="M548,91.9297 L548,100.1797 A1.75,1.75 0 0 0 549.75,101.9297 L558,101.9297 L548,91.9297 " fill="#7FFFD4" style="stroke:#454645;stroke-width:1.5;"/><text fill="#454645" font-family="sans-serif" font-size="13" lengthAdjust="spacing" textLength="61" x="482" y="108.9966">Tag: v0.1</text><polygon fill="#454645" points="266,127.5625,256,131.5625,266,135.5625,262,131.5625" style="stroke:#454645;stroke-width:1.0;"/><line style="stroke:#454645;stroke-width:1.0;" x1="260" x2="360" y1="131.5625" y2="131.5625"/><polygon fill="#454645" points="57,156.6953,47,160.6953,57,164.6953,53,160.6953" style="stroke:#454645;stroke-width:1.0;"/><line style="stroke:#454645;stroke-width:1.0;" x1="51" x2="244" y1="160.6953" y2="160.6953"/><text fill="#000000" font-family="sans-serif" font-size="13" lengthAdjust="spacing" textLength="75" x="63" y="155.6294">new branch</text><line style="stroke:#454645;stroke-width:1.0;" x1="46" x2="88" y1="189.8281" y2="189.8281"/><line style="stroke:#454645;stroke-width:1.0;" x1="88" x2="88" y1="189.8281" y2="202.8281"/><line style="stroke:#454645;stroke-width:1.0;" x1="47" x2="88" y1="202.8281" y2="202.8281"/><polygon fill="#454645" points="57,198.8281,47,202.8281,57,206.8281,53,202.8281" style="stroke:#454645;stroke-width:1.0;"/><text fill="#000000" font-family="sans-serif" font-size="13" lengthAdjust="spacing" textLength="69" x="53" y="184.7622">implement</text><line style="stroke:#454645;stroke-width:1.0;" x1="46" x2="88" y1="231.9609" y2="231.9609"/><line style="stroke:#454645;stroke-width:1.0;" x1="88" x2="88" y1="231.9609" y2="244.9609"/><line style="stroke:#454645;stroke-width:1.0;" x1="47" x2="88" y1="244.9609" y2="244.9609"/><polygon fill="#454645" points="57,240.9609,47,244.9609,57,248.9609,53,244.9609" style="stroke:#454645;stroke-width:1.0;"/><text fill="#000000" font-family="sans-serif" font-size="13" lengthAdjust="spacing" textLength="25" x="53" y="226.895">test</text><polygon fill="#454645" points="150,270.0938,140,274.0938,150,278.0938,146,274.0938" style="stroke:#454645;stroke-width:1.0;"/><line style="stroke:#454645;stroke-width:1.0;" x1="144" x2="244" y1="274.0938" y2="274.0938"/><text fill="#000000" font-family="sans-serif" font-size="13" lengthAdjust="spacing" textLength="75" x="156" y="269.0278">new branch</text><line style="stroke:#454645;stroke-width:1.0;" x1="139" x2="181" y1="303.2266" y2="303.2266"/><line style="stroke:#454645;stroke-width:1.0;" x1="181" x2="181" y1="303.2266" y2="316.2266"/><line style="stroke:#454645;stroke-width:1.0;" x1="140" x2="181" y1="316.2266" y2="316.2266"/><polygon fill="#454645" points="150,312.2266,140,316.2266,150,320.2266,146,316.2266" style="stroke:#454645;stroke-width:1.0;"/><text fill="#000000" font-family="sans-serif" font-size="13" lengthAdjust="spacing" textLength="69" x="146" y="298.1606">implement</text><line style="stroke:#454645;stroke-width:1.0;" x1="139" x2="181" y1="345.3594" y2="345.3594"/><line style="stroke:#454645;stroke-width:1.0;" x1="181" x2="181" y1="345.3594" y2="358.3594"/><line style="stroke:#454645;stroke-width:1.0;" x1="140" x2="181" y1="358.3594" y2="358.3594"/><polygon fill="#454645" points="150,354.3594,140,358.3594,150,362.3594,146,358.3594" style="stroke:#454645;stroke-width:1.0;"/><text fill="#000000" font-family="sans-serif" font-size="13" lengthAdjust="spacing" textLength="25" x="146" y="340.2935">test</text><polygon fill="#454645" points="233,383.4922,243,387.4922,233,391.4922,237,387.4922" style="stroke:#454645;stroke-width:1.0;"/><line style="stroke:#454645;stroke-width:1.0;" x1="134" x2="239" y1="387.4922" y2="387.4922"/><text fill="#000000" font-family="sans-serif" font-size="13" lengthAdjust="spacing" textLength="82" x="141" y="382.4263">PR -&gt; merge</text><polygon fill="#454645" points="233,412.625,243,416.625,233,420.625,237,416.625" style="stroke:#454645;stroke-width:1.0;"/><line style="stroke:#454645;stroke-width:1.0;" x1="41" x2="239" y1="416.625" y2="416.625"/><text fill="#000000" font-family="sans-serif" font-size="13" lengthAdjust="spacing" textLength="82" x="48" y="411.5591">PR -&gt; merge</text><line style="stroke:#454645;stroke-width:1.0;" x1="255" x2="297" y1="445.7578" y2="445.7578"/><line style="stroke:#454645;stroke-width:1.0;" x1="297" x2="297" y1="445.7578" y2="458.7578"/><line style="stroke:#454645;stroke-width:1.0;" x1="256" x2="297" y1="458.7578" y2="458.7578"/><polygon fill="#454645" points="266,454.7578,256,458.7578,266,462.7578,262,458.7578" style="stroke:#454645;stroke-width:1.0;"/><text fill="#000000" font-family="sans-serif" font-size="13" lengthAdjust="spacing" textLength="25" x="262" y="440.6919">test</text><polygon fill="#454645" points="349,483.8906,359,487.8906,349,491.8906,353,487.8906" style="stroke:#454645;stroke-width:1.0;"/><line style="stroke:#454645;stroke-width:1.0;" x1="255" x2="355" y1="487.8906" y2="487.8906"/><text fill="#000000" font-family="sans-serif" font-size="13" lengthAdjust="spacing" textLength="82" x="262" y="482.8247">PR -&gt; merge</text><line style="stroke:#454645;stroke-width:1.0;" x1="371" x2="413" y1="517.0234" y2="517.0234"/><line style="stroke:#454645;stroke-width:1.0;" x1="413" x2="413" y1="517.0234" y2="530.0234"/><line style="stroke:#454645;stroke-width:1.0;" x1="372" x2="413" y1="530.0234" y2="530.0234"/><polygon fill="#454645" points="382,526.0234,372,530.0234,382,534.0234,378,530.0234" style="stroke:#454645;stroke-width:1.0;"/><text fill="#000000" font-family="sans-serif" font-size="13" lengthAdjust="spacing" textLength="47" x="378" y="511.9575">release</text><path d="M437,507.8906 L437,525.8906 A3.5,3.5 0 0 0 440.5,529.3906 L515.5,529.3906 A3.5,3.5 0 0 0 519,525.8906 L519,514.3906 L509,504.3906 L440.5,504.3906 A3.5,3.5 0 0 0 437,507.8906 " fill="#7FFFD4" style="stroke:#454645;stroke-width:1.5;"/><path d="M509,504.3906 L509,512.6406 A1.75,1.75 0 0 0 510.75,514.3906 L519,514.3906 L509,504.3906 " fill="#7FFFD4" style="stroke:#454645;stroke-width:1.5;"/><text fill="#454645" font-family="sans-serif" font-size="13" lengthAdjust="spacing" textLength="61" x="443" y="521.4575">Tag: v1.0</text><!--MD5=[e4d9f9b7c089edbb763f3ba9acdde761]
@startuml
!theme vibrant
hide footbox

box "Feature"
  entity "feature/a" as fa #hotpink
  entity "feature/b" as fb #hotpink
end box

box "Develop"
  entity "develop" as d #gold
end box

box "Main"
  entity "main" as m #lightskyblue
end box

activate m
m -> m:initial commit
note right:Tag: v0.1
m -> d
activate d
d -> fa:new branch
activate fa
fa -> fa: implement
fa -> fa: test
d -> fb:new branch
activate fb
fb -> fb: implement
fb -> fb: test
fb -> d:PR -> merge
deactivate fb
fa -> d:PR -> merge
deactivate fa
d -> d: test
d -> m:PR -> merge
m -> m: release
note right:Tag: v1.0
@enduml

@startuml
skinparam BackgroundColor FFFFFF
skinparam shadowing false
skinparam RoundCorner 7
skinparam ArrowColor 454645
skinparam FontColor 454645
skinparam SequenceLifeLineBorderColor 696969
skinparam SequenceGroupHeaderFontColor 454645
skinparam SequenceGroupFontColor 696969
skinparam SequenceGroupBorderColor 696969
skinparam SequenceGroupBorderThickness 1

skinparam sequenceDivider {
    BorderColor 454645
    BorderThickness 1
    FontColor 454645
}

skinparam participant {
    BackgroundColor FF6347
    BorderColor 454645
    FontColor FFFFFF
    BorderThickness 1.5
}

skinparam database {
    BackgroundColor 00FFFF
    BorderColor 454645
    FontColor 454645
}

skinparam entity {
    BackgroundColor FFE552
    BorderColor 454645
    FontColor 454645
}

skinparam note {
    BackgroundColor 7FFFD4
    BorderColor 454645
    FontColor 454645
    BorderThickness 1.5
}

skinparam actor {
    BackgroundColor 454645
    BorderColor 454645
    FontColor 454645
}

skinparam boundary {
    BackgroundColor FFE552
    BorderColor 454645
    FontColor 454645
}

skinparam control {
    BackgroundColor FFE552
    BorderColor 454645
    FontColor 454645
}

skinparam collections {
    BackgroundColor FF5F42
    BorderColor 454645
    FontColor 454645
}

skinparam queue {
    BackgroundColor FF6347
    BorderColor 454645
    FontColor FFF
    BorderThickness 1.5
}
hide footbox

box "Feature"
  entity "feature/a" as fa #hotpink
  entity "feature/b" as fb #hotpink
end box

box "Develop"
  entity "develop" as d #gold
end box

box "Main"
  entity "main" as m #lightskyblue
end box

activate m
m -> m:initial commit
note right:Tag: v0.1
m -> d
activate d
d -> fa:new branch
activate fa
fa -> fa: implement
fa -> fa: test
d -> fb:new branch
activate fb
fb -> fb: implement
fb -> fb: test
fb -> d:PR -> merge
deactivate fb
fa -> d:PR -> merge
deactivate fa
d -> d: test
d -> m:PR -> merge
m -> m: release
note right:Tag: v1.0
@enduml

PlantUML version 1.2021.17beta2(Unknown compile time)
(GPL source distribution)
Java Runtime: Java(TM) SE Runtime Environment
JVM: Java HotSpot(TM) 64-Bit Server VM
Default Encoding: UTF-8
Language: en
Country: US
--></g></svg>