<?xml version="1.0" encoding="UTF-8" standalone="no"?><svg xmlns="http://www.w3.org/2000/svg" xmlns:xlink="http://www.w3.org/1999/xlink" contentScriptType="application/ecmascript" contentStyleType="text/css" height="165px" preserveAspectRatio="none" style="width:231px;height:165px;background:#FFFFFF;" version="1.1" viewBox="0 0 231 165" width="231px" zoomAndPan="magnify"><defs/><g><rect fill="#DDDDDD" height="146.8594" rx="3.5" ry="3.5" style="stroke:#A80036;stroke-width:1.0;" width="89" x="45" y="6"/><text fill="#000000" font-family="sans-serif" font-size="13" font-weight="bold" lengthAdjust="spacing" textLength="39" x="70" y="18.0669">Local</text><rect fill="#DDDDDD" height="146.8594" rx="3.5" ry="3.5" style="stroke:#A80036;stroke-width:1.0;" width="89" x="136" y="6"/><text fill="#000000" font-family="sans-serif" font-size="13" font-weight="bold" lengthAdjust="spacing" textLength="52" x="154.5" y="18.0669">GitHub</text><rect fill="#FFFFFF" height="12" style="stroke:#696969;stroke-width:1.0;" width="10" x="84.5" y="137.8594"/><rect fill="#FFFFFF" height="36.1328" style="stroke:#696969;stroke-width:1.0;" width="10" x="175.5" y="113.7266"/><line style="stroke:#696969;stroke-width:1.0;stroke-dasharray:5.0,5.0;" x1="89" x2="89" y1="103.7266" y2="158.8594"/><line style="stroke:#696969;stroke-width:1.0;stroke-dasharray:5.0,5.0;" x1="180" x2="180" y1="103.7266" y2="158.8594"/><text fill="#454645" font-family="sans-serif" font-size="14" lengthAdjust="spacing" textLength="33" x="70" y="84.1279">local</text><text fill="#454645" font-family="sans-serif" font-size="14" lengthAdjust="spacing" textLength="75" x="49" y="100.4248">repository</text><path d="M71.5,35.1328 C71.5,25.1328 89.5,25.1328 89.5,25.1328 C89.5,25.1328 107.5,25.1328 107.5,35.1328 L107.5,61.1328 C107.5,71.1328 89.5,71.1328 89.5,71.1328 C89.5,71.1328 71.5,71.1328 71.5,61.1328 L71.5,35.1328 " fill="#00FFFF" style="stroke:#454645;stroke-width:1.5;"/><path d="M71.5,35.1328 C71.5,45.1328 89.5,45.1328 89.5,45.1328 C89.5,45.1328 107.5,45.1328 107.5,35.1328 " fill="none" style="stroke:#454645;stroke-width:1.5;"/><text fill="#454645" font-family="sans-serif" font-size="14" lengthAdjust="spacing" textLength="54" x="150.5" y="84.1279">remote</text><text fill="#454645" font-family="sans-serif" font-size="14" lengthAdjust="spacing" textLength="75" x="140" y="100.4248">repository</text><path d="M162.5,35.1328 C162.5,25.1328 180.5,25.1328 180.5,25.1328 C180.5,25.1328 198.5,25.1328 198.5,35.1328 L198.5,61.1328 C198.5,71.1328 180.5,71.1328 180.5,71.1328 C180.5,71.1328 162.5,71.1328 162.5,61.1328 L162.5,35.1328 " fill="#00FFFF" style="stroke:#454645;stroke-width:1.5;"/><path d="M162.5,35.1328 C162.5,45.1328 180.5,45.1328 180.5,45.1328 C180.5,45.1328 198.5,45.1328 198.5,35.1328 " fill="none" style="stroke:#454645;stroke-width:1.5;"/><rect fill="#FFFFFF" height="12" style="stroke:#696969;stroke-width:1.0;" width="10" x="84.5" y="137.8594"/><rect fill="#FFFFFF" height="36.1328" style="stroke:#696969;stroke-width:1.0;" width="10" x="175.5" y="113.7266"/><polygon fill="#454645" points="105.5,133.8594,95.5,137.8594,105.5,141.8594,101.5,137.8594" style="stroke:#454645;stroke-width:1.0;"/><line style="stroke:#454645;stroke-width:1.0;" x1="99.5" x2="174.5" y1="137.8594" y2="137.8594"/><text fill="#000000" font-family="sans-serif" font-size="13" lengthAdjust="spacing" textLength="34" x="111.5" y="132.7935">clone</text><path d="M5,122.2266 L5,140.2266 A3.5,3.5 0 0 0 8.5,143.7266 L76.5,143.7266 A3.5,3.5 0 0 0 80,140.2266 L80,128.7266 L70,118.7266 L8.5,118.7266 A3.5,3.5 0 0 0 5,122.2266 " fill="#7FFFD4" style="stroke:#454645;stroke-width:1.5;"/><path d="M70,118.7266 L70,126.9766 A1.75,1.75 0 0 0 71.75,128.7266 L80,128.7266 L70,118.7266 " fill="#7FFFD4" style="stroke:#454645;stroke-width:1.5;"/><text fill="#454645" font-family="sans-serif" font-size="13" lengthAdjust="spacing" textLength="54" x="11" y="135.7935">git clone</text><!--MD5=[5b7a87d4aea9ece31f25bcaf29b9aa11]
@startuml
!theme vibrant
hide footbox

box "Local"
  database "local\nrepository" as l
end box

box "GitHub"
  database "remote\nrepository" as o
end box

activate o
o -> l:clone
note left: git clone
activate l
@enduml

@startuml
skinparam BackgroundColor FFFFFF
skinparam shadowing false
skinparam RoundCorner 7
skinparam ArrowColor 454645
skinparam FontColor 454645
skinparam SequenceLifeLineBorderColor 696969
skinparam SequenceGroupHeaderFontColor 454645
skinparam SequenceGroupFontColor 696969
skinparam SequenceGroupBorderColor 696969
skinparam SequenceGroupBorderThickness 1

skinparam sequenceDivider {
    BorderColor 454645
    BorderThickness 1
    FontColor 454645
}

skinparam participant {
    BackgroundColor FF6347
    BorderColor 454645
    FontColor FFFFFF
    BorderThickness 1.5
}

skinparam database {
    BackgroundColor 00FFFF
    BorderColor 454645
    FontColor 454645
}

skinparam entity {
    BackgroundColor FFE552
    BorderColor 454645
    FontColor 454645
}

skinparam note {
    BackgroundColor 7FFFD4
    BorderColor 454645
    FontColor 454645
    BorderThickness 1.5
}

skinparam actor {
    BackgroundColor 454645
    BorderColor 454645
    FontColor 454645
}

skinparam boundary {
    BackgroundColor FFE552
    BorderColor 454645
    FontColor 454645
}

skinparam control {
    BackgroundColor FFE552
    BorderColor 454645
    FontColor 454645
}

skinparam collections {
    BackgroundColor FF5F42
    BorderColor 454645
    FontColor 454645
}

skinparam queue {
    BackgroundColor FF6347
    BorderColor 454645
    FontColor FFF
    BorderThickness 1.5
}
hide footbox

box "Local"
  database "local\nrepository" as l
end box

box "GitHub"
  database "remote\nrepository" as o
end box

activate o
o -> l:clone
note left: git clone
activate l
@enduml

PlantUML version 1.2021.17beta2(Unknown compile time)
(GPL source distribution)
Java Runtime: Java(TM) SE Runtime Environment
JVM: Java HotSpot(TM) 64-Bit Server VM
Default Encoding: UTF-8
Language: en
Country: US
--></g></svg>