<?xml version="1.0" encoding="UTF-8" standalone="no"?><svg xmlns="http://www.w3.org/2000/svg" xmlns:xlink="http://www.w3.org/1999/xlink" contentScriptType="application/ecmascript" contentStyleType="text/css" height="149px" preserveAspectRatio="none" style="width:483px;height:149px;background:#FFFFFF;" version="1.1" viewBox="0 0 483 149" width="483px" zoomAndPan="magnify"><defs/><g><rect fill="#DDDDDD" height="130.5625" rx="3.5" ry="3.5" style="stroke:#A80036;stroke-width:1.0;" width="80" x="248" y="6"/><text fill="#000000" font-family="sans-serif" font-size="13" font-weight="bold" lengthAdjust="spacing" textLength="60" x="258" y="18.0669">Feature</text><rect fill="#DDDDDD" height="130.5625" rx="3.5" ry="3.5" style="stroke:#A80036;stroke-width:1.0;" width="66" x="360.5" y="6"/><text fill="#000000" font-family="sans-serif" font-size="13" font-weight="bold" lengthAdjust="spacing" textLength="60" x="363.5" y="18.0669">Develop</text><rect fill="#DDDDDD" height="130.5625" rx="3.5" ry="3.5" style="stroke:#A80036;stroke-width:1.0;" width="49" x="428.5" y="6"/><text fill="#000000" font-family="sans-serif" font-size="13" font-weight="bold" lengthAdjust="spacing" textLength="35" x="435.5" y="18.0669">Main</text><rect fill="#FFFFFF" height="12" style="stroke:#696969;stroke-width:1.0;" width="10" x="283" y="121.5625"/><rect fill="#FFFFFF" height="44.1328" style="stroke:#696969;stroke-width:1.0;" width="10" x="388.5" y="89.4297"/><rect fill="#FFFFFF" height="50.1328" style="stroke:#696969;stroke-width:1.0;" width="10" x="448" y="83.4297"/><line style="stroke:#696969;stroke-width:1.0;stroke-dasharray:5.0,5.0;" x1="288" x2="288" y1="73.4297" y2="142.5625"/><line style="stroke:#696969;stroke-width:1.0;stroke-dasharray:5.0,5.0;" x1="393" x2="393" y1="73.4297" y2="142.5625"/><line style="stroke:#696969;stroke-width:1.0;stroke-dasharray:5.0,5.0;" x1="452.5" x2="452.5" y1="73.4297" y2="142.5625"/><text fill="#454645" font-family="sans-serif" font-size="14" lengthAdjust="spacing" textLength="66" x="252" y="70.1279">feature/a</text><ellipse cx="288" cy="41.1328" fill="#FF69B4" rx="12" ry="12" style="stroke:#454645;stroke-width:2.0;"/><line style="stroke:#454645;stroke-width:2.0;" x1="276" x2="300" y1="55.1328" y2="55.1328"/><text fill="#454645" font-family="sans-serif" font-size="14" lengthAdjust="spacing" textLength="49" x="366" y="70.1279">devlop</text><ellipse cx="393.5" cy="41.1328" fill="#FFD700" rx="12" ry="12" style="stroke:#454645;stroke-width:2.0;"/><line style="stroke:#454645;stroke-width:2.0;" x1="381.5" x2="405.5" y1="55.1328" y2="55.1328"/><text fill="#454645" font-family="sans-serif" font-size="14" lengthAdjust="spacing" textLength="35" x="432.5" y="70.1279">main</text><ellipse cx="453" cy="41.1328" fill="#87CEFA" rx="12" ry="12" style="stroke:#454645;stroke-width:2.0;"/><line style="stroke:#454645;stroke-width:2.0;" x1="441" x2="465" y1="55.1328" y2="55.1328"/><rect fill="#FFFFFF" height="12" style="stroke:#696969;stroke-width:1.0;" width="10" x="283" y="121.5625"/><rect fill="#FFFFFF" height="44.1328" style="stroke:#696969;stroke-width:1.0;" width="10" x="388.5" y="89.4297"/><rect fill="#FFFFFF" height="50.1328" style="stroke:#696969;stroke-width:1.0;" width="10" x="448" y="83.4297"/><polygon fill="#454645" points="409.5,85.4297,399.5,89.4297,409.5,93.4297,405.5,89.4297" style="stroke:#454645;stroke-width:1.0;"/><line style="stroke:#454645;stroke-width:1.0;" x1="403.5" x2="447" y1="89.4297" y2="89.4297"/><polygon fill="#454645" points="304,117.5625,294,121.5625,304,125.5625,300,121.5625" style="stroke:#454645;stroke-width:1.0;"/><line style="stroke:#454645;stroke-width:1.0;" x1="298" x2="387.5" y1="121.5625" y2="121.5625"/><text fill="#000000" font-family="sans-serif" font-size="13" lengthAdjust="spacing" textLength="75" x="310" y="116.4966">new branch</text><path d="M5,105.9297 L5,123.9297 A3.5,3.5 0 0 0 8.5,127.4297 L274.5,127.4297 A3.5,3.5 0 0 0 278,123.9297 L278,112.4297 L268,102.4297 L8.5,102.4297 A3.5,3.5 0 0 0 5,105.9297 " fill="#7FFFD4" style="stroke:#454645;stroke-width:1.5;"/><path d="M268,102.4297 L268,110.6797 A1.75,1.75 0 0 0 269.75,112.4297 L278,112.4297 L268,102.4297 " fill="#7FFFD4" style="stroke:#454645;stroke-width:1.5;"/><text fill="#454645" font-family="sans-serif" font-size="13" lengthAdjust="spacing" textLength="252" x="11" y="119.4966">git checkout -b feature/a origin/develop</text><!--MD5=[20434214fc0ef61c77bfea6a15f6b450]
@startuml
!theme vibrant
hide footbox

box "Feature"
  entity "feature/a" as fa #hotpink
end box

box "Develop"
  entity "devlop" as d #gold
end box

box "Main"
  entity "main" as m #lightskyblue
end box

activate m
m -> d
activate d
d -> fa:new branch
activate fa
note left: git checkout -b feature/a origin/develop
@enduml

@startuml
skinparam BackgroundColor FFFFFF
skinparam shadowing false
skinparam RoundCorner 7
skinparam ArrowColor 454645
skinparam FontColor 454645
skinparam SequenceLifeLineBorderColor 696969
skinparam SequenceGroupHeaderFontColor 454645
skinparam SequenceGroupFontColor 696969
skinparam SequenceGroupBorderColor 696969
skinparam SequenceGroupBorderThickness 1

skinparam sequenceDivider {
    BorderColor 454645
    BorderThickness 1
    FontColor 454645
}

skinparam participant {
    BackgroundColor FF6347
    BorderColor 454645
    FontColor FFFFFF
    BorderThickness 1.5
}

skinparam database {
    BackgroundColor 00FFFF
    BorderColor 454645
    FontColor 454645
}

skinparam entity {
    BackgroundColor FFE552
    BorderColor 454645
    FontColor 454645
}

skinparam note {
    BackgroundColor 7FFFD4
    BorderColor 454645
    FontColor 454645
    BorderThickness 1.5
}

skinparam actor {
    BackgroundColor 454645
    BorderColor 454645
    FontColor 454645
}

skinparam boundary {
    BackgroundColor FFE552
    BorderColor 454645
    FontColor 454645
}

skinparam control {
    BackgroundColor FFE552
    BorderColor 454645
    FontColor 454645
}

skinparam collections {
    BackgroundColor FF5F42
    BorderColor 454645
    FontColor 454645
}

skinparam queue {
    BackgroundColor FF6347
    BorderColor 454645
    FontColor FFF
    BorderThickness 1.5
}
hide footbox

box "Feature"
  entity "feature/a" as fa #hotpink
end box

box "Develop"
  entity "devlop" as d #gold
end box

box "Main"
  entity "main" as m #lightskyblue
end box

activate m
m -> d
activate d
d -> fa:new branch
activate fa
note left: git checkout -b feature/a origin/develop
@enduml

PlantUML version 1.2021.17beta2(Unknown compile time)
(GPL source distribution)
Java Runtime: Java(TM) SE Runtime Environment
JVM: Java HotSpot(TM) 64-Bit Server VM
Default Encoding: UTF-8
Language: en
Country: US
--></g></svg>