<?xml version="1.0" encoding="UTF-8" standalone="no"?><svg xmlns="http://www.w3.org/2000/svg" xmlns:xlink="http://www.w3.org/1999/xlink" contentStyleType="text/css" height="422px" preserveAspectRatio="none" style="width:590px;height:422px;background:#FFFFFF;" version="1.1" viewBox="0 0 590 422" width="590px" zoomAndPan="magnify"><defs/><g><rect fill="none" height="26.2969" id="_title" style="stroke:none;stroke-width:1.0;" width="56" x="265.5" y="15"/><text fill="#000000" font-family="sans-serif" font-size="14" font-weight="bold" lengthAdjust="spacing" textLength="46" x="270.5" y="32.9951">PHP例</text><rect fill="#DDDDDD" height="52.5938" rx="12.5" ry="12.5" style="stroke:#181818;stroke-width:1.5;" width="156" x="10" y="202.4844"/><text fill="#000000" font-family="sans-serif" font-size="14" lengthAdjust="spacing" textLength="49" x="20" y="225.4795">htdocs</text><text fill="#000000" font-family="sans-serif" font-size="14" lengthAdjust="spacing" textLength="136" x="20" y="241.7764">(ドキュメントルート)</text><rect fill="#FFFFFF" height="52.5938" rx="12.5" ry="12.5" style="stroke:#181818;stroke-width:1.5;" width="100" x="216" y="57.2969"/><text fill="#000000" font-family="sans-serif" font-size="14" lengthAdjust="spacing" textLength="73" x="226" y="80.292">index.php</text><text fill="#000000" font-family="sans-serif" font-size="14" lengthAdjust="spacing" textLength="80" x="226" y="96.5889">(ホーム画面)</text><path d="M166,228.7813 L176,228.7813 C191,228.7813 191,83.5938 206,83.5938 L216,83.5938 " fill="none" style="stroke:#181818;stroke-width:1.0;"/><rect fill="#FFF450" height="36.2969" rx="12.5" ry="12.5" style="stroke:#181818;stroke-width:1.5;" width="64" x="216" y="210.6328"/><text fill="#000000" font-family="sans-serif" font-size="14" lengthAdjust="spacing" textLength="44" x="226" y="233.6279">admin</text><rect fill="#FFFFFF" height="52.5938" rx="12.5" ry="12.5" style="stroke:#181818;stroke-width:1.5;" width="142" x="330" y="129.8906"/><text fill="#000000" font-family="sans-serif" font-size="14" lengthAdjust="spacing" textLength="73" x="340" y="152.8857">index.php</text><text fill="#000000" font-family="sans-serif" font-size="14" lengthAdjust="spacing" textLength="122" x="340" y="169.1826">(管理ログイン画面)</text><path d="M280,228.7813 L290,228.7813 C305,228.7813 305,156.1875 320,156.1875 L330,156.1875 " fill="none" style="stroke:#181818;stroke-width:1.0;"/><rect fill="#FFF450" height="36.2969" rx="12.5" ry="12.5" style="stroke:#181818;stroke-width:1.5;" width="84" x="330" y="246.9297"/><text fill="#000000" font-family="sans-serif" font-size="14" lengthAdjust="spacing" textLength="64" x="340" y="269.9248">products</text><rect fill="#FFFFFF" height="52.5938" rx="12.5" ry="12.5" style="stroke:#181818;stroke-width:1.5;" width="114" x="464" y="202.4844"/><text fill="#000000" font-family="sans-serif" font-size="14" lengthAdjust="spacing" textLength="73" x="474" y="225.4795">index.php</text><text fill="#000000" font-family="sans-serif" font-size="14" lengthAdjust="spacing" textLength="94" x="474" y="241.7764">(商品一覧画面)</text><path d="M414,265.0781 L424,265.0781 C439,265.0781 439,228.7813 454,228.7813 L464,228.7813 " fill="none" style="stroke:#181818;stroke-width:1.0;"/><rect fill="#FFFFFF" height="52.5938" rx="12.5" ry="12.5" style="stroke:#181818;stroke-width:1.5;" width="114" x="464" y="275.0781"/><text fill="#000000" font-family="sans-serif" font-size="14" lengthAdjust="spacing" textLength="81" x="474" y="298.0732">create.php</text><text fill="#000000" font-family="sans-serif" font-size="14" lengthAdjust="spacing" textLength="94" x="474" y="314.3701">(商品新規画面)</text><path d="M414,265.0781 L424,265.0781 C439,265.0781 439,301.375 454,301.375 L464,301.375 " fill="none" style="stroke:#181818;stroke-width:1.0;"/><path d="M280,228.7813 L290,228.7813 C305,228.7813 305,265.0781 320,265.0781 L330,265.0781 " fill="none" style="stroke:#181818;stroke-width:1.0;"/><path d="M166,228.7813 L176,228.7813 C191,228.7813 191,228.7813 206,228.7813 L216,228.7813 " fill="none" style="stroke:#181818;stroke-width:1.0;"/><rect fill="#FFF450" height="36.2969" rx="12.5" ry="12.5" style="stroke:#181818;stroke-width:1.5;" width="74" x="216" y="355.8203"/><text fill="#000000" font-family="sans-serif" font-size="14" lengthAdjust="spacing" textLength="54" x="226" y="378.8154">ranking</text><rect fill="#FFFFFF" height="52.5938" rx="12.5" ry="12.5" style="stroke:#181818;stroke-width:1.5;" width="128" x="340" y="347.6719"/><text fill="#000000" font-family="sans-serif" font-size="14" lengthAdjust="spacing" textLength="73" x="350" y="370.667">index.php</text><text fill="#000000" font-family="sans-serif" font-size="14" lengthAdjust="spacing" textLength="108" x="350" y="386.9639">(ランキング画面)</text><path d="M290,373.9688 L300,373.9688 C315,373.9688 315,373.9688 330,373.9688 L340,373.9688 " fill="none" style="stroke:#181818;stroke-width:1.0;"/><path d="M166,228.7813 L176,228.7813 C191,228.7813 191,373.9688 206,373.9688 L216,373.9688 " fill="none" style="stroke:#181818;stroke-width:1.0;"/><!--MD5=[6f7e700626da704bad982ceaa5b3595f]
@startmindmap
title PHP例
<style>
node {
  BackgroundColor #FFF450
}
rootNode {
  BackgroundColor #DDDDDD
}
leafNode {
  BackgroundColor #FFFFFF
}
</style>

*:htdocs
(ドキュメントルート);
**:index.php
(ホーム画面);
** admin
***:index.php
(管理ログイン画面);
*** products
****:index.php
(商品一覧画面);
****:create.php
(商品新規画面);
** ranking
***:index.php
(ランキング画面);
@endmindmap

PlantUML version 1.2022.13beta1(Unknown compile time)
(GPL source distribution)
Java Runtime: Java(TM) SE Runtime Environment
JVM: Java HotSpot(TM) 64-Bit Server VM
Default Encoding: UTF-8
Language: en
Country: US
--></g></svg>