<?xml version="1.0" encoding="UTF-8" standalone="no"?><svg xmlns="http://www.w3.org/2000/svg" xmlns:xlink="http://www.w3.org/1999/xlink" contentStyleType="text/css" height="637px" preserveAspectRatio="none" style="width:946px;height:637px;background:#FFFFFF;" version="1.1" viewBox="0 0 946 637" width="946px" zoomAndPan="magnify"><defs/><g><text fill="#000000" font-family="sans-serif" font-size="14" font-weight="bold" lengthAdjust="spacing" textLength="209" x="367" y="32.9951">Laravelルーティングイメージ</text><rect fill="none" height="20.9531" style="stroke:none;stroke-width:1.0;" width="913" x="15" y="50.042"/><rect fill="#FFFF80" height="575.3359" style="stroke:#FFFF80;stroke-width:1.0;" width="261" x="15" y="50.042"/><rect fill="#F1F1F1" height="47.9375" rx="12.5" ry="12.5" style="stroke:#181818;stroke-width:0.5;" width="251" x="21" y="75.9951"/><text fill="#000000" font-family="sans-serif" font-size="12" lengthAdjust="spacing" textLength="89" x="31" y="97.1338">HTTPリクエスト</text><text fill="#FF4500" font-family="sans-serif" font-size="12" lengthAdjust="spacing" textLength="23" x="31" y="111.1025">GET</text><text fill="#000000" font-family="sans-serif" font-size="12" lengthAdjust="spacing" textLength="123" x="58" y="111.1025">https://example.com</text><text fill="#FF0000" font-family="sans-serif" font-size="12" lengthAdjust="spacing" textLength="81" x="181" y="111.1025">/users/create</text><line style="stroke:#000000;stroke-width:1.5;" x1="15" x2="15" y1="50.042" y2="625.3779"/><rect fill="#BFE4FF" height="575.3359" style="stroke:#BFE4FF;stroke-width:1.0;" width="650" x="276" y="50.042"/><rect fill="#D8F255" height="153.3516" style="stroke:#000000;stroke-width:1.5;" width="533" x="389" y="133.9326"/><path d="M514,133.9326 L514,143.2295 L504,153.2295 L389,153.2295 " fill="none" style="stroke:#000000;stroke-width:1.5;"/><text fill="#000000" font-family="sans-serif" font-size="14" lengthAdjust="spacing" textLength="115" x="392" y="147.9277">routes/web.php</text><rect fill="#F1F1F1" height="47.9375" rx="12.5" ry="12.5" style="stroke:#181818;stroke-width:0.5;" width="128" x="399" y="170.2295"/><text fill="#000000" font-family="sans-serif" font-size="12" lengthAdjust="spacing" textLength="81" x="409" y="191.3682">HTTPメソッド:</text><text fill="#FF4500" font-family="sans-serif" font-size="12" lengthAdjust="spacing" textLength="23" x="494" y="191.3682">GET</text><text fill="#000000" font-family="sans-serif" font-size="12" lengthAdjust="spacing" textLength="23" x="409" y="205.3369">URI:</text><text fill="#FF0000" font-family="sans-serif" font-size="12" lengthAdjust="spacing" textLength="81" x="436" y="205.3369">/users/create</text><path d="M511,235.0186 L511,251.1514 L491,255.1514 L511,259.1514 L511,275.2842 A0,0 0 0 0 511,275.2842 L912,275.2842 A0,0 0 0 0 912,275.2842 L912,245.0186 L902,235.0186 L511,235.0186 A0,0 0 0 0 511,235.0186 " fill="#FEFFDD" style="stroke:#181818;stroke-width:0.5;"/><path d="M902,235.0186 L902,245.0186 L912,245.0186 L902,235.0186 " fill="#FEFFDD" style="stroke:#181818;stroke-width:0.5;"/><text fill="#000000" font-family="sans-serif" font-size="13" lengthAdjust="spacing" textLength="23" x="517" y="252.0854">use</text><text fill="#0000FF" font-family="sans-serif" font-size="13" lengthAdjust="spacing" textLength="129" x="544" y="252.0854">App\Http\Controllers</text><text fill="#000000" font-family="sans-serif" font-size="13" lengthAdjust="spacing" textLength="4" x="673" y="252.0854">\</text><text fill="#A52A2A" font-family="sans-serif" font-size="13" lengthAdjust="spacing" textLength="91" x="677" y="252.0854">UserController</text><text fill="#000000" font-family="sans-serif" font-size="13" lengthAdjust="spacing" textLength="5" x="768" y="252.0854">;</text><text fill="#000000" font-family="sans-serif" font-size="13" lengthAdjust="spacing" textLength="48" x="517" y="267.2183">Route::</text><text fill="#FF4500" font-family="sans-serif" font-size="13" lengthAdjust="spacing" textLength="21" x="565" y="267.2183">get</text><text fill="#000000" font-family="sans-serif" font-size="13" lengthAdjust="spacing" textLength="8" x="586" y="267.2183">('</text><text fill="#FF0000" font-family="sans-serif" font-size="13" lengthAdjust="spacing" textLength="84" x="594" y="267.2183">/users/create</text><text fill="#000000" font-family="sans-serif" font-size="13" lengthAdjust="spacing" textLength="16" x="678" y="267.2183">', [</text><text fill="#A52A2A" font-family="sans-serif" font-size="13" lengthAdjust="spacing" textLength="91" x="694" y="267.2183">UserController</text><text fill="#000000" font-family="sans-serif" font-size="13" lengthAdjust="spacing" textLength="53" x="785" y="267.2183">::class, '</text><text fill="#008000" font-family="sans-serif" font-size="13" lengthAdjust="spacing" textLength="41" x="838" y="267.2183">create</text><text fill="#000000" font-family="sans-serif" font-size="13" lengthAdjust="spacing" textLength="18" x="879" y="267.2183">']);</text><rect fill="#F1F1F1" height="33.9688" rx="12.5" ry="12.5" style="stroke:#181818;stroke-width:0.5;" width="56" x="435" y="238.167"/><text fill="#000000" font-family="sans-serif" font-size="12" lengthAdjust="spacing" textLength="36" x="445" y="259.3057">コード</text><rect fill="#D8F255" height="328.0938" style="stroke:#000000;stroke-width:1.5;" width="530" x="282" y="297.2842"/><path d="M587,297.2842 L587,306.5811 L577,316.5811 L282,316.5811 " fill="none" style="stroke:#000000;stroke-width:1.5;"/><text fill="#000000" font-family="sans-serif" font-size="14" lengthAdjust="spacing" textLength="295" x="285" y="311.2793">app/Http/Controllers/UserController.php</text><rect fill="#F1F1F1" height="47.9375" rx="12.5" ry="12.5" style="stroke:#181818;stroke-width:0.5;" width="342" x="292" y="333.5811"/><text fill="#000000" font-family="sans-serif" font-size="12" lengthAdjust="spacing" textLength="107" x="302" y="354.7197">Controllerクラス: \</text><text fill="#0000FF" font-family="sans-serif" font-size="12" lengthAdjust="spacing" textLength="123" x="409" y="354.7197">App\Http\Controllers</text><text fill="#000000" font-family="sans-serif" font-size="12" lengthAdjust="spacing" textLength="4" x="532" y="354.7197">\</text><text fill="#A52A2A" font-family="sans-serif" font-size="12" lengthAdjust="spacing" textLength="88" x="536" y="354.7197">UserController</text><text fill="#000000" font-family="sans-serif" font-size="12" lengthAdjust="spacing" textLength="159" x="302" y="368.6885">Controllerクラスのメソッド:</text><text fill="#008000" font-family="sans-serif" font-size="12" lengthAdjust="spacing" textLength="39" x="465" y="368.6885">create</text><path d="M511,391.5186 L511,498.4482 L491,502.4482 L511,506.4482 L511,613.3779 A0,0 0 0 0 511,613.3779 L802,613.3779 A0,0 0 0 0 802,613.3779 L802,401.5186 L792,391.5186 L511,391.5186 A0,0 0 0 0 511,391.5186 " fill="#FEFFDD" style="stroke:#181818;stroke-width:0.5;"/><path d="M792,391.5186 L792,401.5186 L802,401.5186 L792,391.5186 " fill="#FEFFDD" style="stroke:#181818;stroke-width:0.5;"/><text fill="#000000" font-family="sans-serif" font-size="13" lengthAdjust="spacing" textLength="75" x="517" y="408.5854">namespace</text><text fill="#0000FF" font-family="sans-serif" font-size="13" lengthAdjust="spacing" textLength="129" x="596" y="408.5854">App\Http\Controllers</text><text fill="#000000" font-family="sans-serif" font-size="13" lengthAdjust="spacing" textLength="5" x="725" y="408.5854">;</text><text fill="#000000" font-family="sans-serif" font-size="13" lengthAdjust="spacing" textLength="182" x="517" y="423.7183">use Illuminate\Http\Request;</text><text fill="#000000" font-family="sans-serif" font-size="13" lengthAdjust="spacing" textLength="32" x="517" y="438.8511">class</text><text fill="#A52A2A" font-family="sans-serif" font-size="13" lengthAdjust="spacing" textLength="91" x="553" y="438.8511">UserController</text><text fill="#000000" font-family="sans-serif" font-size="13" lengthAdjust="spacing" textLength="118" x="648" y="438.8511">extends Controller</text><text fill="#000000" font-family="sans-serif" font-size="13" lengthAdjust="spacing" textLength="9" x="517" y="453.9839">{</text><text fill="#000000" font-family="sans-serif" font-size="13" lengthAdjust="spacing" textLength="142" x="533" y="469.1167">public function index()</text><text fill="#000000" font-family="sans-serif" font-size="13" lengthAdjust="spacing" textLength="9" x="533" y="484.2495">{</text><text fill="#000000" font-family="sans-serif" font-size="13" lengthAdjust="spacing" textLength="9" x="533" y="499.3823">}</text><text fill="#000000" font-family="sans-serif" font-size="13" lengthAdjust="spacing" textLength="93" x="533" y="514.5151">public function</text><text fill="#008000" font-family="sans-serif" font-size="13" lengthAdjust="spacing" textLength="41" x="630" y="514.5151">create</text><text fill="#000000" font-family="sans-serif" font-size="13" lengthAdjust="spacing" textLength="10" x="671" y="514.5151">()</text><text fill="#000000" font-family="sans-serif" font-size="13" lengthAdjust="spacing" textLength="9" x="533" y="529.6479">{</text><text fill="#000000" font-family="sans-serif" font-size="13" lengthAdjust="spacing" textLength="9" x="533" y="544.7808">}</text><text fill="#000000" font-family="sans-serif" font-size="13" lengthAdjust="spacing" textLength="254" x="533" y="559.9136">public function store(Request $request)</text><text fill="#000000" font-family="sans-serif" font-size="13" lengthAdjust="spacing" textLength="9" x="533" y="575.0464">{</text><text fill="#000000" font-family="sans-serif" font-size="13" lengthAdjust="spacing" textLength="9" x="533" y="590.1792">}</text><text fill="#000000" font-family="sans-serif" font-size="13" lengthAdjust="spacing" textLength="9" x="517" y="605.312">}</text><rect fill="#F1F1F1" height="33.9688" rx="12.5" ry="12.5" style="stroke:#181818;stroke-width:0.5;" width="56" x="435" y="485.4639"/><text fill="#000000" font-family="sans-serif" font-size="12" lengthAdjust="spacing" textLength="36" x="445" y="506.6025">コード</text><line style="stroke:#000000;stroke-width:1.5;" x1="276" x2="276" y1="50.042" y2="625.3779"/><line style="stroke:#000000;stroke-width:1.5;" x1="926" x2="926" y1="50.042" y2="625.3779"/><line style="stroke:#181818;stroke-width:1.0;" x1="463" x2="463" y1="218.167" y2="238.167"/><polygon fill="#181818" points="459,228.167,463,238.167,467,228.167,463,232.167" style="stroke:#181818;stroke-width:1.0;"/><line style="stroke:#181818;stroke-width:1.0;" x1="463" x2="463" y1="381.5186" y2="485.4639"/><polygon fill="#181818" points="459,475.4639,463,485.4639,467,475.4639,463,479.4639" style="stroke:#181818;stroke-width:1.0;"/><line style="stroke:#181818;stroke-width:1.0;" x1="463" x2="463" y1="272.1357" y2="333.5811"/><polygon fill="#181818" points="459,323.5811,463,333.5811,467,323.5811,463,327.5811" style="stroke:#181818;stroke-width:1.0;"/><line style="stroke:#181818;stroke-width:1.0;" x1="146.5" x2="146.5" y1="123.9326" y2="134.5811"/><line style="stroke:#181818;stroke-width:1.0;" x1="146.5" x2="463" y1="134.5811" y2="134.5811"/><line style="stroke:#181818;stroke-width:1.0;" x1="463" x2="463" y1="134.5811" y2="170.2295"/><polygon fill="#181818" points="459,160.2295,463,170.2295,467,160.2295,463,164.2295" style="stroke:#181818;stroke-width:1.0;"/><text fill="#000000" font-family="sans-serif" font-size="18" lengthAdjust="spacing" textLength="72" x="109.5" y="66.75">ブラウザ</text><text fill="#000000" font-family="sans-serif" font-size="18" lengthAdjust="spacing" textLength="68" x="567" y="66.75">Laravel</text><!--SRC=[hL9DQnH14BtthsY8a0s4Z8Y1C1C6LCG45fHbSt9ow9sjsHtexMbxUin2PWzsWvW_u3qemGzG8I06zDVK7x5dTYThT5ptO9-QgbVrwjKhdMeEjCiKUmuSxKUqtz6-HFC6xIMQBsZUeZslWkORAJSIz_Pkb_TBjA_HlaTpWUQhYmyIk9iaPRTSD2B4OOX_qEy_GVi1pMSqxz1SeNqLYVquuvdo7oicHj23OVZeON_VguCX7MijSz_pOCecaiDEd4qMUEMGNf63ohrO0TFGr0IEh5iIoPHETPe9kZ7SI-xixbAL5HfoxmG6Et8iwMapppcQ7sWjsZEVhXg67FKEhn4hw7qqb_NQpW8YCWrKfQEn9WxS50zu0U4zAQC39ozwa0cjCivThwP9r01LTYB28qUp12s9UfKWt_zZvX7e1jJP_DUyczlqwHfilXzpbkVRj6auKW0Y_AtNyLP0G0nf9PlCI8i9J4glKktzejgxITcuiunK1rDTrvLFe_-vGj92WIy-jPv4czw_UYtO17B9ulKT3-hxEEIycAJ2KSo1FNXMGAu3KY-VhY69mbGx1tAwJ95JGjsJnO2dCKqA4TUEf688qyvMdPiZPgsu5VhNgCvrfg2pq45lgVddPjti-cP-0W00]--></g></svg>