<?xml version="1.0" encoding="UTF-8" standalone="no"?><svg xmlns="http://www.w3.org/2000/svg" xmlns:xlink="http://www.w3.org/1999/xlink" contentStyleType="text/css" height="651px" preserveAspectRatio="none" style="width:963px;height:651px;background:#FFFFFF;" version="1.1" viewBox="0 0 963 651" width="963px" zoomAndPan="magnify"><defs/><g><text fill="#000000" font-family="sans-serif" font-size="14" font-weight="bold" lengthAdjust="spacing" textLength="209" x="375.5" y="32.9951">Laravelルーティングイメージ</text><rect fill="none" height="20.9531" style="stroke:none;stroke-width:1.0;" width="930" x="15" y="50.042"/><rect fill="#FFFF80" height="589.1563" style="stroke:#FFFF80;stroke-width:1.0;" width="261" x="15" y="50.042"/><rect fill="#F1F1F1" height="47.9375" rx="12.5" ry="12.5" style="stroke:#181818;stroke-width:0.5;" width="251" x="21" y="75.9951"/><text fill="#000000" font-family="sans-serif" font-size="12" lengthAdjust="spacing" textLength="89" x="31" y="97.1338">HTTPリクエスト</text><text fill="#FF4500" font-family="sans-serif" font-size="12" lengthAdjust="spacing" textLength="23" x="31" y="111.1025">GET</text><text fill="#000000" font-family="sans-serif" font-size="12" lengthAdjust="spacing" textLength="123" x="58" y="111.1025">https://example.com</text><text fill="#FF0000" font-family="sans-serif" font-size="12" lengthAdjust="spacing" textLength="81" x="181" y="111.1025">/users/create</text><line style="stroke:#000000;stroke-width:1.5;" x1="15" x2="15" y1="50.042" y2="639.1982"/><rect fill="#BFE4FF" height="589.1563" style="stroke:#BFE4FF;stroke-width:1.0;" width="667" x="276" y="50.042"/><rect fill="#D8F255" height="232.1094" style="stroke:#000000;stroke-width:1.5;" width="657" x="282" y="133.9326"/><path d="M407,133.9326 L407,143.2295 L397,153.2295 L282,153.2295 " fill="none" style="stroke:#000000;stroke-width:1.5;"/><text fill="#000000" font-family="sans-serif" font-size="14" lengthAdjust="spacing" textLength="115" x="285" y="147.9277">routes/web.php</text><path d="M547,181.6318 L547,190.1982 L527,194.1982 L547,198.1982 L547,206.7646 A0,0 0 0 0 547,206.7646 L672,206.7646 A0,0 0 0 0 672,206.7646 L672,191.6318 L662,181.6318 L547,181.6318 A0,0 0 0 0 547,181.6318 " fill="#FEFFDD" style="stroke:#181818;stroke-width:0.5;"/><path d="M662,181.6318 L662,191.6318 L672,191.6318 L662,181.6318 " fill="#FEFFDD" style="stroke:#181818;stroke-width:0.5;"/><text fill="#000000" font-family="sans-serif" font-size="13" lengthAdjust="spacing" textLength="104" x="553" y="198.6987">このルートを探す</text><rect fill="#F1F1F1" height="47.9375" rx="12.5" ry="12.5" style="stroke:#181818;stroke-width:0.5;" width="128" x="399" y="170.2295"/><text fill="#000000" font-family="sans-serif" font-size="12" lengthAdjust="spacing" textLength="81" x="409" y="191.3682">HTTPメソッド:</text><text fill="#FF4500" font-family="sans-serif" font-size="12" lengthAdjust="spacing" textLength="23" x="494" y="191.3682">GET</text><text fill="#000000" font-family="sans-serif" font-size="12" lengthAdjust="spacing" textLength="23" x="409" y="205.3369">URI:</text><text fill="#FF0000" font-family="sans-serif" font-size="12" lengthAdjust="spacing" textLength="81" x="436" y="205.3369">/users/create</text><path d="M528,242.0029 L528,258.1357 L508,262.1357 L528,266.1357 L528,282.2686 A0,0 0 0 0 528,282.2686 L929,282.2686 A0,0 0 0 0 929,282.2686 L929,252.0029 L919,242.0029 L528,242.0029 A0,0 0 0 0 528,242.0029 " fill="#FEFFDD" style="stroke:#181818;stroke-width:0.5;"/><path d="M919,242.0029 L919,252.0029 L929,252.0029 L919,242.0029 " fill="#FEFFDD" style="stroke:#181818;stroke-width:0.5;"/><text fill="#000000" font-family="sans-serif" font-size="13" lengthAdjust="spacing" textLength="23" x="534" y="259.0698">use</text><text fill="#0000FF" font-family="sans-serif" font-size="13" lengthAdjust="spacing" textLength="129" x="561" y="259.0698">App\Http\Controllers</text><text fill="#000000" font-family="sans-serif" font-size="13" lengthAdjust="spacing" textLength="4" x="690" y="259.0698">\</text><text fill="#A52A2A" font-family="sans-serif" font-size="13" lengthAdjust="spacing" textLength="91" x="694" y="259.0698">UserController</text><text fill="#000000" font-family="sans-serif" font-size="13" lengthAdjust="spacing" textLength="5" x="785" y="259.0698">;</text><text fill="#000000" font-family="sans-serif" font-size="13" lengthAdjust="spacing" textLength="48" x="534" y="274.2026">Route::</text><text fill="#FF4500" font-family="sans-serif" font-size="13" lengthAdjust="spacing" textLength="21" x="582" y="274.2026">get</text><text fill="#000000" font-family="sans-serif" font-size="13" lengthAdjust="spacing" textLength="8" x="603" y="274.2026">('</text><text fill="#FF0000" font-family="sans-serif" font-size="13" lengthAdjust="spacing" textLength="84" x="611" y="274.2026">/users/create</text><text fill="#000000" font-family="sans-serif" font-size="13" lengthAdjust="spacing" textLength="16" x="695" y="274.2026">', [</text><text fill="#A52A2A" font-family="sans-serif" font-size="13" lengthAdjust="spacing" textLength="91" x="711" y="274.2026">UserController</text><text fill="#000000" font-family="sans-serif" font-size="13" lengthAdjust="spacing" textLength="53" x="802" y="274.2026">::class, '</text><text fill="#008000" font-family="sans-serif" font-size="13" lengthAdjust="spacing" textLength="41" x="855" y="274.2026">create</text><text fill="#000000" font-family="sans-serif" font-size="13" lengthAdjust="spacing" textLength="18" x="896" y="274.2026">']);</text><rect fill="#F1F1F1" height="47.9375" rx="12.5" ry="12.5" style="stroke:#181818;stroke-width:0.5;" width="90" x="418" y="238.167"/><text fill="#000000" font-family="sans-serif" font-size="12" lengthAdjust="spacing" textLength="36" x="428" y="259.3057">コード</text><text fill="#000000" font-family="sans-serif" font-size="12" lengthAdjust="spacing" textLength="70" x="428" y="273.2744">(対象ルート)</text><path d="M654,317.5068 L654,326.0732 L634,330.0732 L654,334.0732 L654,342.6396 A0,0 0 0 0 654,342.6396 L818,342.6396 A0,0 0 0 0 818,342.6396 L818,327.5068 L808,317.5068 L654,317.5068 A0,0 0 0 0 654,317.5068 " fill="#FEFFDD" style="stroke:#181818;stroke-width:0.5;"/><path d="M808,317.5068 L808,327.5068 L818,327.5068 L808,317.5068 " fill="#FEFFDD" style="stroke:#181818;stroke-width:0.5;"/><text fill="#000000" font-family="sans-serif" font-size="13" lengthAdjust="spacing" textLength="143" x="660" y="334.5737">このメソッドを呼び出し</text><rect fill="#F1F1F1" height="47.9375" rx="12.5" ry="12.5" style="stroke:#181818;stroke-width:0.5;" width="342" x="292" y="306.1045"/><text fill="#000000" font-family="sans-serif" font-size="12" lengthAdjust="spacing" textLength="107" x="302" y="327.2432">Controllerクラス: \</text><text fill="#0000FF" font-family="sans-serif" font-size="12" lengthAdjust="spacing" textLength="123" x="409" y="327.2432">App\Http\Controllers</text><text fill="#000000" font-family="sans-serif" font-size="12" lengthAdjust="spacing" textLength="4" x="532" y="327.2432">\</text><text fill="#A52A2A" font-family="sans-serif" font-size="12" lengthAdjust="spacing" textLength="88" x="536" y="327.2432">UserController</text><text fill="#000000" font-family="sans-serif" font-size="12" lengthAdjust="spacing" textLength="159" x="302" y="341.2119">Controllerクラスのメソッド:</text><text fill="#008000" font-family="sans-serif" font-size="12" lengthAdjust="spacing" textLength="39" x="465" y="341.2119">create</text><rect fill="#D8F255" height="263.1563" style="stroke:#000000;stroke-width:1.5;" width="481" x="378" y="376.042"/><path d="M683,376.042 L683,385.3389 L673,395.3389 L378,395.3389 " fill="none" style="stroke:#000000;stroke-width:1.5;"/><text fill="#000000" font-family="sans-serif" font-size="14" lengthAdjust="spacing" textLength="295" x="381" y="390.0371">app/Http/Controllers/UserController.php</text><path d="M558,405.3389 L558,512.2686 L538,516.2686 L558,520.2686 L558,627.1982 A0,0 0 0 0 558,627.1982 L849,627.1982 A0,0 0 0 0 849,627.1982 L849,415.3389 L839,405.3389 L558,405.3389 A0,0 0 0 0 558,405.3389 " fill="#FEFFDD" style="stroke:#181818;stroke-width:0.5;"/><path d="M839,405.3389 L839,415.3389 L849,415.3389 L839,405.3389 " fill="#FEFFDD" style="stroke:#181818;stroke-width:0.5;"/><text fill="#000000" font-family="sans-serif" font-size="13" lengthAdjust="spacing" textLength="75" x="564" y="422.4058">namespace</text><text fill="#0000FF" font-family="sans-serif" font-size="13" lengthAdjust="spacing" textLength="129" x="643" y="422.4058">App\Http\Controllers</text><text fill="#000000" font-family="sans-serif" font-size="13" lengthAdjust="spacing" textLength="5" x="772" y="422.4058">;</text><text fill="#000000" font-family="sans-serif" font-size="13" lengthAdjust="spacing" textLength="182" x="564" y="437.5386">use Illuminate\Http\Request;</text><text fill="#000000" font-family="sans-serif" font-size="13" lengthAdjust="spacing" textLength="32" x="564" y="452.6714">class</text><text fill="#A52A2A" font-family="sans-serif" font-size="13" lengthAdjust="spacing" textLength="91" x="600" y="452.6714">UserController</text><text fill="#000000" font-family="sans-serif" font-size="13" lengthAdjust="spacing" textLength="118" x="695" y="452.6714">extends Controller</text><text fill="#000000" font-family="sans-serif" font-size="13" lengthAdjust="spacing" textLength="9" x="564" y="467.8042">{</text><text fill="#000000" font-family="sans-serif" font-size="13" lengthAdjust="spacing" textLength="142" x="580" y="482.937">public function index()</text><text fill="#000000" font-family="sans-serif" font-size="13" lengthAdjust="spacing" textLength="9" x="580" y="498.0698">{</text><text fill="#000000" font-family="sans-serif" font-size="13" lengthAdjust="spacing" textLength="9" x="580" y="513.2026">}</text><text fill="#000000" font-family="sans-serif" font-size="13" lengthAdjust="spacing" textLength="93" x="580" y="528.3354">public function</text><text fill="#008000" font-family="sans-serif" font-size="13" lengthAdjust="spacing" textLength="41" x="677" y="528.3354">create</text><text fill="#000000" font-family="sans-serif" font-size="13" lengthAdjust="spacing" textLength="10" x="718" y="528.3354">()</text><text fill="#000000" font-family="sans-serif" font-size="13" lengthAdjust="spacing" textLength="9" x="580" y="543.4683">{</text><text fill="#000000" font-family="sans-serif" font-size="13" lengthAdjust="spacing" textLength="9" x="580" y="558.6011">}</text><text fill="#000000" font-family="sans-serif" font-size="13" lengthAdjust="spacing" textLength="254" x="580" y="573.7339">public function store(Request $request)</text><text fill="#000000" font-family="sans-serif" font-size="13" lengthAdjust="spacing" textLength="9" x="580" y="588.8667">{</text><text fill="#000000" font-family="sans-serif" font-size="13" lengthAdjust="spacing" textLength="9" x="580" y="603.9995">}</text><text fill="#000000" font-family="sans-serif" font-size="13" lengthAdjust="spacing" textLength="9" x="564" y="619.1323">}</text><rect fill="#F1F1F1" height="47.9375" rx="12.5" ry="12.5" style="stroke:#181818;stroke-width:0.5;" width="150" x="388" y="492.2998"/><text fill="#000000" font-family="sans-serif" font-size="12" lengthAdjust="spacing" textLength="36" x="398" y="513.4385">コード</text><text fill="#000000" font-family="sans-serif" font-size="12" lengthAdjust="spacing" textLength="130" x="398" y="527.4072">(対象クラス・メソッド)</text><line style="stroke:#000000;stroke-width:1.5;" x1="276" x2="276" y1="50.042" y2="639.1982"/><line style="stroke:#000000;stroke-width:1.5;" x1="943" x2="943" y1="50.042" y2="639.1982"/><line style="stroke:#181818;stroke-width:1.0;" x1="463" x2="463" y1="218.167" y2="238.167"/><polygon fill="#181818" points="459,228.167,463,238.167,467,228.167,463,232.167" style="stroke:#181818;stroke-width:1.0;"/><line style="stroke:#181818;stroke-width:1.0;" x1="463" x2="463" y1="286.1045" y2="306.1045"/><polygon fill="#181818" points="459,296.1045,463,306.1045,467,296.1045,463,300.1045" style="stroke:#181818;stroke-width:1.0;"/><line style="stroke:#181818;stroke-width:1.0;" x1="463" x2="463" y1="354.042" y2="492.2998"/><polygon fill="#181818" points="459,482.2998,463,492.2998,467,482.2998,463,486.2998" style="stroke:#181818;stroke-width:1.0;"/><line style="stroke:#181818;stroke-width:1.0;" x1="146.5" x2="146.5" y1="123.9326" y2="134.5811"/><line style="stroke:#181818;stroke-width:1.0;" x1="146.5" x2="463" y1="134.5811" y2="134.5811"/><line style="stroke:#181818;stroke-width:1.0;" x1="463" x2="463" y1="134.5811" y2="170.2295"/><polygon fill="#181818" points="459,160.2295,463,170.2295,467,160.2295,463,164.2295" style="stroke:#181818;stroke-width:1.0;"/><text fill="#000000" font-family="sans-serif" font-size="18" lengthAdjust="spacing" textLength="72" x="109.5" y="66.75">ブラウザ</text><text fill="#000000" font-family="sans-serif" font-size="18" lengthAdjust="spacing" textLength="68" x="575.5" y="66.75">Laravel</text><!--SRC=[hL9TYzD057sVNp6mmdPXsOYui4oNWegu2mMbT9-C3sbwqmRIIPnCtCAc3ys0xhu8AYW-LaNy05SfYAkhV-PIyMSuIPj-QAXzC4_Xphdtd7FlaQxqW5OjOTq33zLxLEUexcFo4jKGau-Ol48rI8l95nAlEVhRkHXVZL4zHVKMazUOVDRrXWEN7IUknfD1X6WCONlr-YrKxp0vnUGD9cUeZas-Q_kUBzXDOV4MrA1PkN6zlcjanGfjInc4p32WQtK23xPilpF12uqqeX14QDW2B0bvJrcJLMCIM4AwqlKvNMlkE9Usjwdm8mcXSGYDhQ0TqADSpm2JxwWKgXD6buaX1xNzAM89FVSbKE6ssf9Hx3_1_eTyZyUOFFxvy0NsdnE6oJ2hdPYyD3hzyUlJO8hQc9z1D4bEsl0Yg5m90dDFhyMyvdCfVC_J6d9oCmSA_v1N3hIy6MWci9OkWh6_lBP0vg3I-hzyhc_IsokmCMPxLXXkqdnWIm3moX-pxcZBm9iqjKtOR4gQb3HMPuoQ_tC7f80YkrD15ee45nzvrgplF7fqZltXwC5Nx3yZFLAGHoi8ZDI4CMV2MDIR1xKWB5FPwjiyys9skDM1CB3irHDKplAsxtbHn-NQyHXOWxiHXB9CicFI5JPCeIlrHKCwUo97XEelY1gUQrCdudQs3fSteLlQoDx6Y5uXRiavLkWEfI-WDF51BuZnps9VRvh1tm00]--></g></svg>