<?xml version="1.0" encoding="UTF-8" standalone="no"?><svg xmlns="http://www.w3.org/2000/svg" xmlns:xlink="http://www.w3.org/1999/xlink" contentStyleType="text/css" height="632px" preserveAspectRatio="none" style="width:1015px;height:632px;background:#FFFFFF;" version="1.1" viewBox="0 0 1015 632" width="1015px" zoomAndPan="magnify"><defs/><g><!--cluster p--><g id="cluster_p"><path d="M8.5,6 L80.5,6 A3.75,3.75 0 0 1 83,8.5 L90,28.2969 L1005.5,28.2969 A2.5,2.5 0 0 1 1008,30.7969 L1008,513.5 A2.5,2.5 0 0 1 1005.5,516 L8.5,516 A2.5,2.5 0 0 1 6,513.5 L6,8.5 A2.5,2.5 0 0 1 8.5,6 " fill="#ADD8E6" style="stroke:#000000;stroke-width:1.5;"/><line style="stroke:#000000;stroke-width:1.5;" x1="6" x2="90" y1="28.2969" y2="28.2969"/><text fill="#000000" font-family="sans-serif" font-size="14" font-weight="bold" lengthAdjust="spacing" textLength="71" x="10" y="20.9951">$records</text></g><!--cluster array--><g id="cluster_array"><polygon fill="#DDDDDD" points="38,67,48,57,976,57,976,466,966,476,38,476,38,67" style="stroke:#000000;stroke-width:1.5;"/><line style="stroke:#000000;stroke-width:1.5;" x1="966" x2="976" y1="67" y2="57"/><line style="stroke:#000000;stroke-width:1.5;" x1="38" x2="966" y1="67" y2="67"/><line style="stroke:#000000;stroke-width:1.5;" x1="966" x2="966" y1="67" y2="476"/><text fill="#000000" font-family="sans-serif" font-size="14" font-weight="bold" lengthAdjust="spacing" textLength="43" x="481.5" y="82.9951">array</text></g><!--cluster 0--><g id="cluster_0"><polygon fill="#FFFFFF" points="70,118,80,108,335,108,335,434,325,444,70,444,70,118" style="stroke:#000000;stroke-width:1.5;"/><line style="stroke:#000000;stroke-width:1.5;" x1="325" x2="335" y1="118" y2="108"/><line style="stroke:#000000;stroke-width:1.5;" x1="70" x2="325" y1="118" y2="118"/><line style="stroke:#000000;stroke-width:1.5;" x1="325" x2="325" y1="118" y2="444"/><text fill="#000000" font-family="sans-serif" font-size="14" font-weight="bold" lengthAdjust="spacing" textLength="10" x="193.5" y="133.9951">0</text></g><!--cluster array--><g id="cluster_array"><polygon fill="#DDDDDD" points="102,169,112,159,303,159,303,394,293,404,102,404,102,169" style="stroke:#000000;stroke-width:1.5;"/><line style="stroke:#000000;stroke-width:1.5;" x1="293" x2="303" y1="169" y2="159"/><line style="stroke:#000000;stroke-width:1.5;" x1="102" x2="293" y1="169" y2="169"/><line style="stroke:#000000;stroke-width:1.5;" x1="293" x2="293" y1="169" y2="404"/><text fill="#000000" font-family="sans-serif" font-size="14" font-weight="bold" lengthAdjust="spacing" textLength="43" x="177" y="184.9951">array</text></g><!--cluster id--><g id="cluster_id"><polygon fill="#FFFFFF" points="153,212,163,202,252,202,252,269,242,279,153,279,153,212" style="stroke:#000000;stroke-width:1.5;"/><line style="stroke:#000000;stroke-width:1.5;" x1="242" x2="252" y1="212" y2="202"/><line style="stroke:#000000;stroke-width:1.5;" x1="153" x2="242" y1="212" y2="212"/><line style="stroke:#000000;stroke-width:1.5;" x1="242" x2="242" y1="212" y2="279"/><text fill="#000000" font-family="sans-serif" font-size="14" font-weight="bold" lengthAdjust="spacing" textLength="15" x="191" y="227.9951">id</text></g><!--cluster name--><g id="cluster_name"><polygon fill="#FFFFFF" points="126,313,136,303,279,303,279,370,269,380,126,380,126,313" style="stroke:#000000;stroke-width:1.5;"/><line style="stroke:#000000;stroke-width:1.5;" x1="269" x2="279" y1="313" y2="303"/><line style="stroke:#000000;stroke-width:1.5;" x1="126" x2="269" y1="313" y2="313"/><line style="stroke:#000000;stroke-width:1.5;" x1="269" x2="269" y1="313" y2="380"/><text fill="#000000" font-family="sans-serif" font-size="14" font-weight="bold" lengthAdjust="spacing" textLength="44" x="176.5" y="328.9951">name</text></g><!--cluster 1--><g id="cluster_1"><polygon fill="#FFFFFF" points="375,118,385,108,639,108,639,434,629,444,375,444,375,118" style="stroke:#000000;stroke-width:1.5;"/><line style="stroke:#000000;stroke-width:1.5;" x1="629" x2="639" y1="118" y2="108"/><line style="stroke:#000000;stroke-width:1.5;" x1="375" x2="629" y1="118" y2="118"/><line style="stroke:#000000;stroke-width:1.5;" x1="629" x2="629" y1="118" y2="444"/><text fill="#000000" font-family="sans-serif" font-size="14" font-weight="bold" lengthAdjust="spacing" textLength="10" x="498" y="133.9951">1</text></g><!--cluster array--><g id="cluster_array"><polygon fill="#DDDDDD" points="407,169,417,159,607,159,607,394,597,404,407,404,407,169" style="stroke:#000000;stroke-width:1.5;"/><line style="stroke:#000000;stroke-width:1.5;" x1="597" x2="607" y1="169" y2="159"/><line style="stroke:#000000;stroke-width:1.5;" x1="407" x2="597" y1="169" y2="169"/><line style="stroke:#000000;stroke-width:1.5;" x1="597" x2="597" y1="169" y2="404"/><text fill="#000000" font-family="sans-serif" font-size="14" font-weight="bold" lengthAdjust="spacing" textLength="43" x="481.5" y="184.9951">array</text></g><!--cluster id--><g id="cluster_id"><polygon fill="#FFFFFF" points="458,212,468,202,556,202,556,269,546,279,458,279,458,212" style="stroke:#000000;stroke-width:1.5;"/><line style="stroke:#000000;stroke-width:1.5;" x1="546" x2="556" y1="212" y2="202"/><line style="stroke:#000000;stroke-width:1.5;" x1="458" x2="546" y1="212" y2="212"/><line style="stroke:#000000;stroke-width:1.5;" x1="546" x2="546" y1="212" y2="279"/><text fill="#000000" font-family="sans-serif" font-size="14" font-weight="bold" lengthAdjust="spacing" textLength="15" x="495.5" y="227.9951">id</text></g><!--cluster name--><g id="cluster_name"><polygon fill="#FFFFFF" points="431,313,441,303,583,303,583,370,573,380,431,380,431,313" style="stroke:#000000;stroke-width:1.5;"/><line style="stroke:#000000;stroke-width:1.5;" x1="573" x2="583" y1="313" y2="303"/><line style="stroke:#000000;stroke-width:1.5;" x1="431" x2="573" y1="313" y2="313"/><line style="stroke:#000000;stroke-width:1.5;" x1="573" x2="573" y1="313" y2="380"/><text fill="#000000" font-family="sans-serif" font-size="14" font-weight="bold" lengthAdjust="spacing" textLength="44" x="481" y="328.9951">name</text></g><!--cluster 2--><g id="cluster_2"><polygon fill="#FFFFFF" points="679,118,689,108,944,108,944,434,934,444,679,444,679,118" style="stroke:#000000;stroke-width:1.5;"/><line style="stroke:#000000;stroke-width:1.5;" x1="934" x2="944" y1="118" y2="108"/><line style="stroke:#000000;stroke-width:1.5;" x1="679" x2="934" y1="118" y2="118"/><line style="stroke:#000000;stroke-width:1.5;" x1="934" x2="934" y1="118" y2="444"/><text fill="#000000" font-family="sans-serif" font-size="14" font-weight="bold" lengthAdjust="spacing" textLength="10" x="802.5" y="133.9951">2</text></g><!--cluster array--><g id="cluster_array"><polygon fill="#DDDDDD" points="711,169,721,159,912,159,912,394,902,404,711,404,711,169" style="stroke:#000000;stroke-width:1.5;"/><line style="stroke:#000000;stroke-width:1.5;" x1="902" x2="912" y1="169" y2="159"/><line style="stroke:#000000;stroke-width:1.5;" x1="711" x2="902" y1="169" y2="169"/><line style="stroke:#000000;stroke-width:1.5;" x1="902" x2="902" y1="169" y2="404"/><text fill="#000000" font-family="sans-serif" font-size="14" font-weight="bold" lengthAdjust="spacing" textLength="43" x="786" y="184.9951">array</text></g><!--cluster id--><g id="cluster_id"><polygon fill="#FFFFFF" points="762,212,772,202,861,202,861,269,851,279,762,279,762,212" style="stroke:#000000;stroke-width:1.5;"/><line style="stroke:#000000;stroke-width:1.5;" x1="851" x2="861" y1="212" y2="202"/><line style="stroke:#000000;stroke-width:1.5;" x1="762" x2="851" y1="212" y2="212"/><line style="stroke:#000000;stroke-width:1.5;" x1="851" x2="851" y1="212" y2="279"/><text fill="#000000" font-family="sans-serif" font-size="14" font-weight="bold" lengthAdjust="spacing" textLength="15" x="800" y="227.9951">id</text></g><!--cluster name--><g id="cluster_name"><polygon fill="#FFFFFF" points="735,313,745,303,888,303,888,370,878,380,735,380,735,313" style="stroke:#000000;stroke-width:1.5;"/><line style="stroke:#000000;stroke-width:1.5;" x1="878" x2="888" y1="313" y2="303"/><line style="stroke:#000000;stroke-width:1.5;" x1="735" x2="878" y1="313" y2="313"/><line style="stroke:#000000;stroke-width:1.5;" x1="878" x2="878" y1="313" y2="380"/><text fill="#000000" font-family="sans-serif" font-size="14" font-weight="bold" lengthAdjust="spacing" textLength="44" x="785.5" y="328.9951">name</text></g><!--class (int) 101--><g id="elem_(int) 101"><rect codeLine="17" fill="#F1F1F1" height="26.2969" id="(int) 101" rx="2.5" ry="2.5" style="stroke:#181818;stroke-width:0.5;" width="67" x="169" y="237"/><text fill="#000000" font-family="sans-serif" font-size="14" lengthAdjust="spacing" textLength="61" x="172" y="254.9951">(int) 101</text></g><!--class (string) NAME01--><g id="elem_(string) NAME01"><rect codeLine="20" fill="#F1F1F1" height="26.2969" id="(string) NAME01" rx="2.5" ry="2.5" style="stroke:#181818;stroke-width:0.5;" width="121" x="142" y="338"/><text fill="#000000" font-family="sans-serif" font-size="14" lengthAdjust="spacing" textLength="115" x="145" y="355.9951">(string) NAME01</text></g><!--class (int) 102--><g id="elem_(int) 102"><rect codeLine="27" fill="#F1F1F1" height="26.2969" id="(int) 102" rx="2.5" ry="2.5" style="stroke:#181818;stroke-width:0.5;" width="66" x="474" y="237"/><text fill="#000000" font-family="sans-serif" font-size="14" lengthAdjust="spacing" textLength="60" x="477" y="254.9951">(int) 102</text></g><!--class (string) NAME02--><g id="elem_(string) NAME02"><rect codeLine="30" fill="#F1F1F1" height="26.2969" id="(string) NAME02" rx="2.5" ry="2.5" style="stroke:#181818;stroke-width:0.5;" width="120" x="447" y="338"/><text fill="#000000" font-family="sans-serif" font-size="14" lengthAdjust="spacing" textLength="114" x="450" y="355.9951">(string) NAME02</text></g><!--class (int) 103--><g id="elem_(int) 103"><rect codeLine="37" fill="#F1F1F1" height="26.2969" id="(int) 103" rx="2.5" ry="2.5" style="stroke:#181818;stroke-width:0.5;" width="67" x="778" y="237"/><text fill="#000000" font-family="sans-serif" font-size="14" lengthAdjust="spacing" textLength="61" x="781" y="254.9951">(int) 103</text></g><!--class (string) NAME03--><g id="elem_(string) NAME03"><rect codeLine="40" fill="#F1F1F1" height="26.2969" id="(string) NAME03" rx="2.5" ry="2.5" style="stroke:#181818;stroke-width:0.5;" width="121" x="751" y="338"/><text fill="#000000" font-family="sans-serif" font-size="14" lengthAdjust="spacing" textLength="115" x="754" y="355.9951">(string) NAME03</text></g><g id="elem_n"><path d="M378.5,540 L378.5,625.6641 L635.5,625.6641 L635.5,550 L625.5,540 L378.5,540 " fill="#FEFFDD" style="stroke:#181818;stroke-width:0.5;"/><path d="M625.5,540 L625.5,550 L635.5,550 L625.5,540 " fill="#FEFFDD" style="stroke:#181818;stroke-width:1.0;"/><text fill="#000000" font-family="sans-serif" font-size="13" lengthAdjust="spacing" textLength="79" x="384.5" y="557.0669">$records = [</text><text fill="#000000" font-family="sans-serif" font-size="13" lengthAdjust="spacing" textLength="220" x="400.5" y="572.1997">['id' =&gt; 101, 'name' =&gt; 'NAME01'],</text><text fill="#000000" font-family="sans-serif" font-size="13" lengthAdjust="spacing" textLength="220" x="400.5" y="587.3325">['id' =&gt; 102, 'name' =&gt; 'NAME02'],</text><text fill="#000000" font-family="sans-serif" font-size="13" lengthAdjust="spacing" textLength="220" x="400.5" y="602.4653">['id' =&gt; 103, 'name' =&gt; 'NAME03'],</text><text fill="#000000" font-family="sans-serif" font-size="13" lengthAdjust="spacing" textLength="10" x="384.5" y="617.5981">];</text></g><!--link 0 to 1--><!--link 1 to 2--><!--link p to n--><g id="link_p_n"><path codeLine="56" d="M235.9852,516.0543 C236.8196,516.2612 237.6669,516.4713 238.5269,516.6845 C245.4068,518.3902 253.0939,520.2961 261.3975,522.3548 C294.6118,530.5897 337.689,541.27 378.418,551.3682 " fill="none" id="p-n" style="stroke:#181818;stroke-width:1.0;stroke-dasharray:7.0,7.0;"/></g><!--SRC=[hPF1IyCm5CRl-Ii-Eg4Ejh6s889CKF6e5uzZXzZtreMrIKdYOKZ_TzkkayrkGvdlahoyxqj-y5voNdfu0wkobGSfowbNHWktLhgKLXOePRgM6R_vJSxGXbYi535IPTEystDH-WqABjxPkhuLdm9rFDPPPis7fYUJ6ul1iWrHxJcM9YUsfmoIw9PlQeFeTC5LpMiikG3IeMnzkqUbjNA30H5rr-qAqou_8zqlglr38CsbSmYkbVP3HDCe-AvLFQkM1HyrEs-LpePuVNXvFdR5TgqEiADps7_cZY_dZd_77VyhTt8vTtAEksgcInlFpK1fiPilp31lDVDGKOZPVTFw4SBcnJODjwqC5wEVihWlYu_8ahuiQMIBEy6Q6Y8nnNWyhpySiLxK5X4TvB4eCPb0Vm40]--></g></svg>