<?xml version="1.0" encoding="UTF-8" standalone="no"?><svg xmlns="http://www.w3.org/2000/svg" xmlns:xlink="http://www.w3.org/1999/xlink" contentStyleType="text/css" height="1189px" preserveAspectRatio="none" style="width:655px;height:1189px;background:#FFFFFF;" version="1.1" viewBox="0 0 655 1189" width="655px" zoomAndPan="magnify"><defs/><g><!--cluster p--><g id="cluster_p"><path d="M8.5,6 L80.5,6 A3.75,3.75 0 0 1 83,8.5 L90,28.2969 L364.5,28.2969 A2.5,2.5 0 0 1 367,30.7969 L367,1145.5 A2.5,2.5 0 0 1 364.5,1148 L8.5,1148 A2.5,2.5 0 0 1 6,1145.5 L6,8.5 A2.5,2.5 0 0 1 8.5,6 " fill="#ADD8E6" style="stroke:#000000;stroke-width:1.5;"/><line style="stroke:#000000;stroke-width:1.5;" x1="6" x2="90" y1="28.2969" y2="28.2969"/><text fill="#000000" font-family="sans-serif" font-size="14" font-weight="bold" lengthAdjust="spacing" textLength="71" x="10" y="20.9951">$records</text></g><!--cluster array--><g id="cluster_array"><polygon fill="#DDDDDD" points="38,67,48,57,335,57,335,1098,325,1108,38,1108,38,67" style="stroke:#000000;stroke-width:1.5;"/><line style="stroke:#000000;stroke-width:1.5;" x1="325" x2="335" y1="67" y2="57"/><line style="stroke:#000000;stroke-width:1.5;" x1="38" x2="325" y1="67" y2="67"/><line style="stroke:#000000;stroke-width:1.5;" x1="325" x2="325" y1="67" y2="1108"/><text fill="#000000" font-family="sans-serif" font-size="14" font-weight="bold" lengthAdjust="spacing" textLength="43" x="161" y="82.9951">array</text></g><!--cluster 0--><g id="cluster_0"><polygon fill="#FFFFFF" points="62,110,72,100,311,100,311,402,301,412,62,412,62,110" style="stroke:#000000;stroke-width:1.5;"/><line style="stroke:#000000;stroke-width:1.5;" x1="301" x2="311" y1="110" y2="100"/><line style="stroke:#000000;stroke-width:1.5;" x1="62" x2="301" y1="110" y2="110"/><line style="stroke:#000000;stroke-width:1.5;" x1="301" x2="301" y1="110" y2="412"/><text fill="#000000" font-family="sans-serif" font-size="14" font-weight="bold" lengthAdjust="spacing" textLength="10" x="177.5" y="125.9951">0</text></g><!--cluster array--><g id="cluster_array"><polygon fill="#DDDDDD" points="86,153,96,143,287,143,287,378,277,388,86,388,86,153" style="stroke:#000000;stroke-width:1.5;"/><line style="stroke:#000000;stroke-width:1.5;" x1="277" x2="287" y1="153" y2="143"/><line style="stroke:#000000;stroke-width:1.5;" x1="86" x2="277" y1="153" y2="153"/><line style="stroke:#000000;stroke-width:1.5;" x1="277" x2="277" y1="153" y2="388"/><text fill="#000000" font-family="sans-serif" font-size="14" font-weight="bold" lengthAdjust="spacing" textLength="43" x="161" y="168.9951">array</text></g><!--cluster id--><g id="cluster_id"><polygon fill="#FFFFFF" points="137,196,147,186,236,186,236,253,226,263,137,263,137,196" style="stroke:#000000;stroke-width:1.5;"/><line style="stroke:#000000;stroke-width:1.5;" x1="226" x2="236" y1="196" y2="186"/><line style="stroke:#000000;stroke-width:1.5;" x1="137" x2="226" y1="196" y2="196"/><line style="stroke:#000000;stroke-width:1.5;" x1="226" x2="226" y1="196" y2="263"/><text fill="#000000" font-family="sans-serif" font-size="14" font-weight="bold" lengthAdjust="spacing" textLength="15" x="175" y="211.9951">id</text></g><!--cluster name--><g id="cluster_name"><polygon fill="#FFFFFF" points="110,297,120,287,263,287,263,354,253,364,110,364,110,297" style="stroke:#000000;stroke-width:1.5;"/><line style="stroke:#000000;stroke-width:1.5;" x1="253" x2="263" y1="297" y2="287"/><line style="stroke:#000000;stroke-width:1.5;" x1="110" x2="253" y1="297" y2="297"/><line style="stroke:#000000;stroke-width:1.5;" x1="253" x2="253" y1="297" y2="364"/><text fill="#000000" font-family="sans-serif" font-size="14" font-weight="bold" lengthAdjust="spacing" textLength="44" x="160.5" y="312.9951">name</text></g><!--cluster 1--><g id="cluster_1"><polygon fill="#FFFFFF" points="62.5,446,72.5,436,310.5,436,310.5,738,300.5,748,62.5,748,62.5,446" style="stroke:#000000;stroke-width:1.5;"/><line style="stroke:#000000;stroke-width:1.5;" x1="300.5" x2="310.5" y1="446" y2="436"/><line style="stroke:#000000;stroke-width:1.5;" x1="62.5" x2="300.5" y1="446" y2="446"/><line style="stroke:#000000;stroke-width:1.5;" x1="300.5" x2="300.5" y1="446" y2="748"/><text fill="#000000" font-family="sans-serif" font-size="14" font-weight="bold" lengthAdjust="spacing" textLength="10" x="177.5" y="461.9951">1</text></g><!--cluster array--><g id="cluster_array"><polygon fill="#DDDDDD" points="86.5,489,96.5,479,286.5,479,286.5,714,276.5,724,86.5,724,86.5,489" style="stroke:#000000;stroke-width:1.5;"/><line style="stroke:#000000;stroke-width:1.5;" x1="276.5" x2="286.5" y1="489" y2="479"/><line style="stroke:#000000;stroke-width:1.5;" x1="86.5" x2="276.5" y1="489" y2="489"/><line style="stroke:#000000;stroke-width:1.5;" x1="276.5" x2="276.5" y1="489" y2="724"/><text fill="#000000" font-family="sans-serif" font-size="14" font-weight="bold" lengthAdjust="spacing" textLength="43" x="161" y="504.9951">array</text></g><!--cluster id--><g id="cluster_id"><polygon fill="#FFFFFF" points="137.5,532,147.5,522,235.5,522,235.5,589,225.5,599,137.5,599,137.5,532" style="stroke:#000000;stroke-width:1.5;"/><line style="stroke:#000000;stroke-width:1.5;" x1="225.5" x2="235.5" y1="532" y2="522"/><line style="stroke:#000000;stroke-width:1.5;" x1="137.5" x2="225.5" y1="532" y2="532"/><line style="stroke:#000000;stroke-width:1.5;" x1="225.5" x2="225.5" y1="532" y2="599"/><text fill="#000000" font-family="sans-serif" font-size="14" font-weight="bold" lengthAdjust="spacing" textLength="15" x="175" y="547.9951">id</text></g><!--cluster name--><g id="cluster_name"><polygon fill="#FFFFFF" points="110.5,633,120.5,623,262.5,623,262.5,690,252.5,700,110.5,700,110.5,633" style="stroke:#000000;stroke-width:1.5;"/><line style="stroke:#000000;stroke-width:1.5;" x1="252.5" x2="262.5" y1="633" y2="623"/><line style="stroke:#000000;stroke-width:1.5;" x1="110.5" x2="252.5" y1="633" y2="633"/><line style="stroke:#000000;stroke-width:1.5;" x1="252.5" x2="252.5" y1="633" y2="700"/><text fill="#000000" font-family="sans-serif" font-size="14" font-weight="bold" lengthAdjust="spacing" textLength="44" x="160.5" y="648.9951">name</text></g><!--cluster 2--><g id="cluster_2"><polygon fill="#FFFFFF" points="62,782,72,772,311,772,311,1074,301,1084,62,1084,62,782" style="stroke:#000000;stroke-width:1.5;"/><line style="stroke:#000000;stroke-width:1.5;" x1="301" x2="311" y1="782" y2="772"/><line style="stroke:#000000;stroke-width:1.5;" x1="62" x2="301" y1="782" y2="782"/><line style="stroke:#000000;stroke-width:1.5;" x1="301" x2="301" y1="782" y2="1084"/><text fill="#000000" font-family="sans-serif" font-size="14" font-weight="bold" lengthAdjust="spacing" textLength="10" x="177.5" y="797.9951">2</text></g><!--cluster array--><g id="cluster_array"><polygon fill="#DDDDDD" points="86,825,96,815,287,815,287,1050,277,1060,86,1060,86,825" style="stroke:#000000;stroke-width:1.5;"/><line style="stroke:#000000;stroke-width:1.5;" x1="277" x2="287" y1="825" y2="815"/><line style="stroke:#000000;stroke-width:1.5;" x1="86" x2="277" y1="825" y2="825"/><line style="stroke:#000000;stroke-width:1.5;" x1="277" x2="277" y1="825" y2="1060"/><text fill="#000000" font-family="sans-serif" font-size="14" font-weight="bold" lengthAdjust="spacing" textLength="43" x="161" y="840.9951">array</text></g><!--cluster id--><g id="cluster_id"><polygon fill="#FFFFFF" points="137,868,147,858,236,858,236,925,226,935,137,935,137,868" style="stroke:#000000;stroke-width:1.5;"/><line style="stroke:#000000;stroke-width:1.5;" x1="226" x2="236" y1="868" y2="858"/><line style="stroke:#000000;stroke-width:1.5;" x1="137" x2="226" y1="868" y2="868"/><line style="stroke:#000000;stroke-width:1.5;" x1="226" x2="226" y1="868" y2="935"/><text fill="#000000" font-family="sans-serif" font-size="14" font-weight="bold" lengthAdjust="spacing" textLength="15" x="175" y="883.9951">id</text></g><!--cluster name--><g id="cluster_name"><polygon fill="#FFFFFF" points="110,969,120,959,263,959,263,1026,253,1036,110,1036,110,969" style="stroke:#000000;stroke-width:1.5;"/><line style="stroke:#000000;stroke-width:1.5;" x1="253" x2="263" y1="969" y2="959"/><line style="stroke:#000000;stroke-width:1.5;" x1="110" x2="253" y1="969" y2="969"/><line style="stroke:#000000;stroke-width:1.5;" x1="253" x2="253" y1="969" y2="1036"/><text fill="#000000" font-family="sans-serif" font-size="14" font-weight="bold" lengthAdjust="spacing" textLength="44" x="160.5" y="984.9951">name</text></g><!--class (int) 101--><g id="elem_(int) 101"><rect codeLine="17" fill="#F1F1F1" height="26.2969" id="(int) 101" rx="2.5" ry="2.5" style="stroke:#181818;stroke-width:0.5;" width="67" x="153" y="221"/><text fill="#000000" font-family="sans-serif" font-size="14" lengthAdjust="spacing" textLength="61" x="156" y="238.9951">(int) 101</text></g><!--class (string) NAME01--><g id="elem_(string) NAME01"><rect codeLine="20" fill="#F1F1F1" height="26.2969" id="(string) NAME01" rx="2.5" ry="2.5" style="stroke:#181818;stroke-width:0.5;" width="121" x="126" y="322"/><text fill="#000000" font-family="sans-serif" font-size="14" lengthAdjust="spacing" textLength="115" x="129" y="339.9951">(string) NAME01</text></g><!--class (int) 102--><g id="elem_(int) 102"><rect codeLine="27" fill="#F1F1F1" height="26.2969" id="(int) 102" rx="2.5" ry="2.5" style="stroke:#181818;stroke-width:0.5;" width="66" x="153.5" y="557"/><text fill="#000000" font-family="sans-serif" font-size="14" lengthAdjust="spacing" textLength="60" x="156.5" y="574.9951">(int) 102</text></g><!--class (string) NAME02--><g id="elem_(string) NAME02"><rect codeLine="30" fill="#F1F1F1" height="26.2969" id="(string) NAME02" rx="2.5" ry="2.5" style="stroke:#181818;stroke-width:0.5;" width="120" x="126.5" y="658"/><text fill="#000000" font-family="sans-serif" font-size="14" lengthAdjust="spacing" textLength="114" x="129.5" y="675.9951">(string) NAME02</text></g><!--class (int) 103--><g id="elem_(int) 103"><rect codeLine="37" fill="#F1F1F1" height="26.2969" id="(int) 103" rx="2.5" ry="2.5" style="stroke:#181818;stroke-width:0.5;" width="67" x="153" y="893"/><text fill="#000000" font-family="sans-serif" font-size="14" lengthAdjust="spacing" textLength="61" x="156" y="910.9951">(int) 103</text></g><!--class (string) NAME03--><g id="elem_(string) NAME03"><rect codeLine="40" fill="#F1F1F1" height="26.2969" id="(string) NAME03" rx="2.5" ry="2.5" style="stroke:#181818;stroke-width:0.5;" width="121" x="126" y="994"/><text fill="#000000" font-family="sans-serif" font-size="14" lengthAdjust="spacing" textLength="115" x="129" y="1011.9951">(string) NAME03</text></g><g id="elem_n"><path d="M391,1097 L391,1182.6641 L648,1182.6641 L648,1107 L638,1097 L391,1097 " fill="#FEFFDD" style="stroke:#181818;stroke-width:0.5;"/><path d="M638,1097 L638,1107 L648,1107 L638,1097 " fill="#FEFFDD" style="stroke:#181818;stroke-width:1.0;"/><text fill="#000000" font-family="sans-serif" font-size="13" lengthAdjust="spacing" textLength="79" x="397" y="1114.0669">$records = [</text><text fill="#000000" font-family="sans-serif" font-size="13" lengthAdjust="spacing" textLength="220" x="413" y="1129.1997">['id' =&gt; 101, 'name' =&gt; 'NAME01'],</text><text fill="#000000" font-family="sans-serif" font-size="13" lengthAdjust="spacing" textLength="220" x="413" y="1144.3325">['id' =&gt; 102, 'name' =&gt; 'NAME02'],</text><text fill="#000000" font-family="sans-serif" font-size="13" lengthAdjust="spacing" textLength="220" x="413" y="1159.4653">['id' =&gt; 103, 'name' =&gt; 'NAME03'],</text><text fill="#000000" font-family="sans-serif" font-size="13" lengthAdjust="spacing" textLength="10" x="397" y="1174.5981">];</text></g><!--link p to n--><g id="link_p_n"><path codeLine="55" d="M367.8375,1140 C368.2039,1140 368.5702,1140 368.9364,1140 C370.4011,1140 371.8641,1140 373.325,1140 C379.1686,1140 384.9778,1140 390.723,1140 " fill="none" id="p-n" style="stroke:#181818;stroke-width:1.0;stroke-dasharray:7.0,7.0;"/></g><!--SRC=[hPB1IiGm48RlUOgXAzI5PTcs88AieE9HBnwNFSJEj1isJKeI3qNwxZRTLggjHLbpIIRp_pCVp4ZA73WDHkG71oWCfKvenUnHg98RNa39qoFFwSLLaa1f97OGI90AayhkJKNfAYYeU2LZnrPuPz2S-oRAZNvJ-A2bDh38siFgWIFJ4idyPE28rtJL65Yd2ouQNctG1i0jbAslRygDuHKi4B4hroSsNJmZ7IR5y1CWbTnQ22w5Sak8Db7mcQj7LiKBcZHRPuJAb_1yz_GuLU9qrr-mepdiFtF7vtF7l-EE_vKxEPyxcUEk_NOfxSWlb6BzVi4MTgrc5meCONlhHx-2q7Tim_0qod2_-YwBnx9uGfQCPOcNxMyOAVH4Z9MmNeFw0000]--></g></svg>