<?xml version="1.0" encoding="UTF-8" standalone="no"?><svg xmlns="http://www.w3.org/2000/svg" xmlns:xlink="http://www.w3.org/1999/xlink" contentStyleType="text/css" height="603px" preserveAspectRatio="none" style="width:807px;height:603px;background:#FFFFFF;" version="1.1" viewBox="0 0 807 603" width="807px" zoomAndPan="magnify"><defs/><g><text fill="#000000" font-family="sans-serif" font-size="14" font-weight="bold" lengthAdjust="spacing" textLength="155" x="324.5" y="32.9951">松屋フーズ サイト構成</text><rect fill="#F1F1F1" height="52.5938" rx="12.5" ry="12.5" style="stroke:#181818;stroke-width:1.5;" width="90" x="10" y="293.2266"/><text fill="#000000" font-family="sans-serif" font-size="14" lengthAdjust="spacing" textLength="70" x="20" y="316.2217">松屋フーズ</text><text fill="#000000" font-family="sans-serif" font-size="14" lengthAdjust="spacing" textLength="15" x="20" y="332.5186">(/)</text><rect fill="#F1F1F1" height="52.5938" rx="12.5" ry="12.5" style="stroke:#181818;stroke-width:1.5;" width="108" x="150" y="57.2969"/><text fill="#000000" font-family="sans-serif" font-size="14" lengthAdjust="spacing" textLength="42" x="160" y="80.292">松のや</text><text fill="#000000" font-family="sans-serif" font-size="14" lengthAdjust="spacing" textLength="88" x="160" y="96.5889">(matsunoya)</text><path d="M100,319.5234 L110,319.5234 C125,319.5234 125,83.5938 140,83.5938 L150,83.5938 " fill="none" style="stroke:#181818;stroke-width:1.0;"/><rect fill="#F1F1F1" height="52.5938" rx="12.5" ry="12.5" style="stroke:#181818;stroke-width:1.5;" width="90" x="150" y="293.2266"/><text fill="#000000" font-family="sans-serif" font-size="14" lengthAdjust="spacing" textLength="28" x="160" y="316.2217">松屋</text><text fill="#000000" font-family="sans-serif" font-size="14" lengthAdjust="spacing" textLength="70" x="160" y="332.5186">(matsuya)</text><rect fill="#F1F1F1" height="52.5938" rx="12.5" ry="12.5" style="stroke:#181818;stroke-width:1.5;" width="101" x="290" y="129.8906"/><text fill="#000000" font-family="sans-serif" font-size="14" lengthAdjust="spacing" textLength="42" x="300" y="152.8857">NEWS</text><text fill="#000000" font-family="sans-serif" font-size="14" lengthAdjust="spacing" textLength="81" x="300" y="169.1826">(whatsnew)</text><path d="M240,319.5234 L250,319.5234 C265,319.5234 265,156.1875 280,156.1875 L290,156.1875 " fill="none" style="stroke:#181818;stroke-width:1.0;"/><rect fill="#F1F1F1" height="52.5938" rx="12.5" ry="12.5" style="stroke:#181818;stroke-width:1.5;" width="70" x="290" y="329.5234"/><text fill="#000000" font-family="sans-serif" font-size="14" lengthAdjust="spacing" textLength="40" x="300" y="352.5186">MENU</text><text fill="#000000" font-family="sans-serif" font-size="14" lengthAdjust="spacing" textLength="50" x="300" y="368.8154">(menu)</text><rect fill="#F1F1F1" height="52.5938" rx="12.5" ry="12.5" style="stroke:#181818;stroke-width:1.5;" width="81" x="410" y="202.4844"/><text fill="#000000" font-family="sans-serif" font-size="14" lengthAdjust="spacing" textLength="56" x="420" y="225.4795">期間限定</text><text fill="#000000" font-family="sans-serif" font-size="14" lengthAdjust="spacing" textLength="61" x="420" y="241.7764">(limited)</text><path d="M360,355.8203 L370,355.8203 C385,355.8203 385,228.7813 400,228.7813 L410,228.7813 " fill="none" style="stroke:#181818;stroke-width:1.0;"/><rect fill="#F1F1F1" height="52.5938" rx="12.5" ry="12.5" style="stroke:#181818;stroke-width:1.5;" width="98" x="410" y="275.0781"/><text fill="#000000" font-family="sans-serif" font-size="14" lengthAdjust="spacing" textLength="42" x="420" y="298.0732">牛めし</text><text fill="#000000" font-family="sans-serif" font-size="14" lengthAdjust="spacing" textLength="78" x="420" y="314.3701">(gyumeshi)</text><rect fill="#F1F1F1" height="52.5938" rx="12.5" ry="12.5" style="stroke:#181818;stroke-width:1.5;" width="221" x="558" y="238.7813"/><text fill="#000000" font-family="sans-serif" font-size="14" lengthAdjust="spacing" textLength="42" x="568" y="261.7764">牛めし</text><text fill="#000000" font-family="sans-serif" font-size="14" lengthAdjust="spacing" textLength="201" x="568" y="278.0732">(gyumeshi_hp_220502.html)</text><path d="M508,301.375 L518,301.375 C533,301.375 533,265.0781 548,265.0781 L558,265.0781 " fill="none" style="stroke:#181818;stroke-width:1.0;"/><rect fill="#F1F1F1" height="52.5938" rx="12.5" ry="12.5" style="stroke:#181818;stroke-width:1.5;" width="237" x="558" y="311.375"/><text fill="#000000" font-family="sans-serif" font-size="14" lengthAdjust="spacing" textLength="140" x="568" y="334.3701">たっぷりチーズ牛めし</text><text fill="#000000" font-family="sans-serif" font-size="14" lengthAdjust="spacing" textLength="217" x="568" y="350.667">(gyu_cheese_hp_220531.html)</text><path d="M508,301.375 L518,301.375 C533,301.375 533,337.6719 548,337.6719 L558,337.6719 " fill="none" style="stroke:#181818;stroke-width:1.0;"/><path d="M360,355.8203 L370,355.8203 C385,355.8203 385,301.375 400,301.375 L410,301.375 " fill="none" style="stroke:#181818;stroke-width:1.0;"/><rect fill="#F1F1F1" height="52.5938" rx="12.5" ry="12.5" style="stroke:#181818;stroke-width:1.5;" width="66" x="410" y="420.2656"/><text fill="#000000" font-family="sans-serif" font-size="14" lengthAdjust="spacing" textLength="42" x="420" y="443.2607">カレー</text><text fill="#000000" font-family="sans-serif" font-size="14" lengthAdjust="spacing" textLength="46" x="420" y="459.5576">(curry)</text><rect fill="#F1F1F1" height="52.5938" rx="12.5" ry="12.5" style="stroke:#181818;stroke-width:1.5;" width="201" x="526" y="383.9688"/><text fill="#000000" font-family="sans-serif" font-size="14" lengthAdjust="spacing" textLength="112" x="536" y="406.9639">オリジナルカレー</text><text fill="#000000" font-family="sans-serif" font-size="14" lengthAdjust="spacing" textLength="181" x="536" y="423.2607">(cry_ori_hp_220502.html)</text><path d="M476,446.5625 L486,446.5625 C501,446.5625 501,410.2656 516,410.2656 L526,410.2656 " fill="none" style="stroke:#181818;stroke-width:1.0;"/><rect fill="#F1F1F1" height="52.5938" rx="12.5" ry="12.5" style="stroke:#181818;stroke-width:1.5;" width="259" x="526" y="456.5625"/><text fill="#000000" font-family="sans-serif" font-size="14" lengthAdjust="spacing" textLength="224" x="536" y="479.5576">たっぷりチーズのオリジナルカレー</text><text fill="#000000" font-family="sans-serif" font-size="14" lengthAdjust="spacing" textLength="239" x="536" y="495.8545">(cry_ori_cheese_hp_220502.html)</text><path d="M476,446.5625 L486,446.5625 C501,446.5625 501,482.8594 516,482.8594 L526,482.8594 " fill="none" style="stroke:#181818;stroke-width:1.0;"/><path d="M360,355.8203 L370,355.8203 C385,355.8203 385,446.5625 400,446.5625 L410,446.5625 " fill="none" style="stroke:#181818;stroke-width:1.0;"/><path d="M240,319.5234 L250,319.5234 C265,319.5234 265,355.8203 280,355.8203 L290,355.8203 " fill="none" style="stroke:#181818;stroke-width:1.0;"/><path d="M100,319.5234 L110,319.5234 C125,319.5234 125,319.5234 140,319.5234 L150,319.5234 " fill="none" style="stroke:#181818;stroke-width:1.0;"/><rect fill="#F1F1F1" height="52.5938" rx="12.5" ry="12.5" style="stroke:#181818;stroke-width:1.5;" width="109" x="150" y="529.1563"/><text fill="#000000" font-family="sans-serif" font-size="14" lengthAdjust="spacing" textLength="42" x="160" y="552.1514">すし松</text><text fill="#000000" font-family="sans-serif" font-size="14" lengthAdjust="spacing" textLength="89" x="160" y="568.4482">(sushimatsu)</text><path d="M100,319.5234 L110,319.5234 C125,319.5234 125,555.4531 140,555.4531 L150,555.4531 " fill="none" style="stroke:#181818;stroke-width:1.0;"/><!--SRC=[bL9DQnD16BxFhvXZbj0qMMsHdeeQbP8jnMtgHGZJpPWTt9q9ipC9UzpT7ggz5AHA_Q071Q6LWWTHHFmpButqN_Xcjojj4SJZF5_pVgqcXcaJ2pcCsPWOOI9EP-z-ddtUW-80YX-GVwUGVu7y0nIxiuzxizrzqhokU2mRYmvfbZXafv3l818parYfKbOpwAZX2cpIzUuZ7x5fYA3aqmhqkklzkP1BMm9eVdjq_lB5-U7-sUbhP28H2yE75-IlPsyWpo1xXSmejJ5FGb5HV-S6uNZWkksbjjiAJHpLKiYE87iFsLV8dqEHLOrTym-2aFE4rmatEfSIS4edK7n27se3gtNw9pa_Xk8OyczGOFB95PrE1qh_LqdbVFyPUBNGIxaOUeZzu3fGdLYSHxaGXwnoF86BCo0R4PEcx_NeXEj4A4axBRVjkgtEqZOtRBdHbq-bcaeQg7Wiy6ACYBb36lStUZHHLWUS3aLYjDYs1jqEMMCJHXzQETUjqFchiUavrE_M8EtAYT1Auj8DMTloAX5ze8m_LgOKBzzSk2qCzRd6ekYMH-xo9yn61gs16WevMg7zpNiBjqYFoP5b8_o8It97uGSwHSx_3G00]--></g></svg>