<?xml version="1.0" encoding="UTF-8" standalone="no"?><svg xmlns="http://www.w3.org/2000/svg" xmlns:xlink="http://www.w3.org/1999/xlink" contentStyleType="text/css" height="300px" preserveAspectRatio="none" style="width:1001px;height:300px;background:#FFFFFF;" version="1.1" viewBox="0 0 1001 300" width="1001px" zoomAndPan="magnify"><defs/><g><text fill="#000000" font-family="sans-serif" font-size="14" font-weight="bold" lengthAdjust="spacing" textLength="36" x="481" y="32.9951">MDN</text><rect fill="#F1F1F1" height="52.5938" rx="12.5" ry="12.5" style="stroke:#181818;stroke-width:1.5;" width="62" x="10" y="141.7422"/><text fill="#000000" font-family="sans-serif" font-size="14" lengthAdjust="spacing" textLength="42" x="20" y="164.7373">トップ</text><text fill="#000000" font-family="sans-serif" font-size="14" lengthAdjust="spacing" textLength="15" x="20" y="181.0342">(/)</text><rect fill="#F1F1F1" height="68.8906" rx="12.5" ry="12.5" style="stroke:#181818;stroke-width:1.5;" width="104" x="122" y="133.5938"/><text fill="#000000" font-family="sans-serif" font-size="14" lengthAdjust="spacing" textLength="84" x="132" y="156.5889">開発者向けの</text><text fill="#000000" font-family="sans-serif" font-size="14" lengthAdjust="spacing" textLength="70" x="132" y="172.8857">ウェブ技術</text><text fill="#000000" font-family="sans-serif" font-size="14" lengthAdjust="spacing" textLength="81" x="132" y="189.1826">(docs/Web)</text><rect fill="#F1F1F1" height="36.2969" rx="12.5" ry="12.5" style="stroke:#181818;stroke-width:1.5;" width="108" x="276" y="85.4453"/><text fill="#000000" font-family="sans-serif" font-size="14" lengthAdjust="spacing" textLength="88" x="286" y="108.4404">HTML(HTML)</text><path d="M226,168.0391 L236,168.0391 C251,168.0391 251,103.5938 266,103.5938 L276,103.5938 " fill="none" style="stroke:#181818;stroke-width:1.0;"/><rect fill="#F1F1F1" height="52.5938" rx="12.5" ry="12.5" style="stroke:#181818;stroke-width:1.5;" width="102" x="276" y="141.7422"/><text fill="#000000" font-family="sans-serif" font-size="14" lengthAdjust="spacing" textLength="72" x="286" y="164.7373">JavaScript</text><text fill="#000000" font-family="sans-serif" font-size="14" lengthAdjust="spacing" textLength="82" x="286" y="181.0342">(JavaScript)</text><rect fill="#F1F1F1" height="36.2969" rx="12.5" ry="12.5" style="stroke:#181818;stroke-width:1.5;" width="185" x="428" y="57.2969"/><text fill="#000000" font-family="sans-serif" font-size="14" lengthAdjust="spacing" textLength="165" x="438" y="80.292">JavaScriptガイド(Guide)</text><path d="M378,168.0391 L388,168.0391 C403,168.0391 403,75.4453 418,75.4453 L428,75.4453 " fill="none" style="stroke:#181818;stroke-width:1.0;"/><rect fill="#F1F1F1" height="68.8906" rx="12.5" ry="12.5" style="stroke:#181818;stroke-width:1.5;" width="105" x="428" y="161.7422"/><text fill="#000000" font-family="sans-serif" font-size="14" lengthAdjust="spacing" textLength="72" x="438" y="184.7373">JavaScript</text><text fill="#000000" font-family="sans-serif" font-size="14" lengthAdjust="spacing" textLength="84" x="438" y="201.0342">リファレンス</text><text fill="#000000" font-family="sans-serif" font-size="14" lengthAdjust="spacing" textLength="85" x="438" y="217.3311">(Reference)</text><rect fill="#F1F1F1" height="36.2969" rx="12.5" ry="12.5" style="stroke:#181818;stroke-width:1.5;" width="173" x="583" y="113.5938"/><text fill="#000000" font-family="sans-serif" font-size="14" lengthAdjust="spacing" textLength="153" x="593" y="136.5889">式と演算子(Operators)</text><path d="M533,196.1875 L543,196.1875 C558,196.1875 558,131.7422 573,131.7422 L583,131.7422 " fill="none" style="stroke:#181818;stroke-width:1.0;"/><rect fill="#F1F1F1" height="68.8906" rx="12.5" ry="12.5" style="stroke:#181818;stroke-width:1.5;" width="139" x="583" y="189.8906"/><text fill="#000000" font-family="sans-serif" font-size="14" lengthAdjust="spacing" textLength="84" x="593" y="212.8857">標準組み込み</text><text fill="#000000" font-family="sans-serif" font-size="14" lengthAdjust="spacing" textLength="84" x="593" y="229.1826">オブジェクト</text><text fill="#000000" font-family="sans-serif" font-size="14" lengthAdjust="spacing" textLength="119" x="593" y="245.4795">(Global_Objects)</text><rect fill="#F1F1F1" height="52.5938" rx="12.5" ry="12.5" style="stroke:#181818;stroke-width:1.5;" width="68" x="772" y="169.8906"/><text fill="#000000" font-family="sans-serif" font-size="14" lengthAdjust="spacing" textLength="38" x="782" y="192.8857">Array</text><text fill="#000000" font-family="sans-serif" font-size="14" lengthAdjust="spacing" textLength="48" x="782" y="209.1826">(Array)</text><rect fill="#F1F1F1" height="52.5938" rx="12.5" ry="12.5" style="stroke:#181818;stroke-width:1.5;" width="99" x="890" y="169.8906"/><text fill="#000000" font-family="sans-serif" font-size="14" lengthAdjust="spacing" textLength="79" x="900" y="192.8857">Array.join()</text><text fill="#000000" font-family="sans-serif" font-size="14" lengthAdjust="spacing" textLength="36" x="900" y="209.1826">(join)</text><path d="M840,196.1875 L850,196.1875 C865,196.1875 865,196.1875 880,196.1875 L890,196.1875 " fill="none" style="stroke:#181818;stroke-width:1.0;"/><path d="M722,224.3359 L732,224.3359 C747,224.3359 747,196.1875 762,196.1875 L772,196.1875 " fill="none" style="stroke:#181818;stroke-width:1.0;"/><rect fill="#F1F1F1" height="36.2969" rx="12.5" ry="12.5" style="stroke:#181818;stroke-width:1.5;" width="128" x="772" y="242.4844"/><text fill="#000000" font-family="sans-serif" font-size="14" lengthAdjust="spacing" textLength="108" x="782" y="265.4795">Object(Object)</text><path d="M722,224.3359 L732,224.3359 C747,224.3359 747,260.6328 762,260.6328 L772,260.6328 " fill="none" style="stroke:#181818;stroke-width:1.0;"/><path d="M533,196.1875 L543,196.1875 C558,196.1875 558,224.3359 573,224.3359 L583,224.3359 " fill="none" style="stroke:#181818;stroke-width:1.0;"/><path d="M378,168.0391 L388,168.0391 C403,168.0391 403,196.1875 418,196.1875 L428,196.1875 " fill="none" style="stroke:#181818;stroke-width:1.0;"/><path d="M226,168.0391 L236,168.0391 C251,168.0391 251,168.0391 266,168.0391 L276,168.0391 " fill="none" style="stroke:#181818;stroke-width:1.0;"/><rect fill="#F1F1F1" height="36.2969" rx="12.5" ry="12.5" style="stroke:#181818;stroke-width:1.5;" width="86" x="276" y="214.3359"/><text fill="#000000" font-family="sans-serif" font-size="14" lengthAdjust="spacing" textLength="66" x="286" y="237.3311">CSS(CSS)</text><path d="M226,168.0391 L236,168.0391 C251,168.0391 251,232.4844 266,232.4844 L276,232.4844 " fill="none" style="stroke:#181818;stroke-width:1.0;"/><path d="M72,168.0391 L82,168.0391 C97,168.0391 97,168.0391 112,168.0391 L122,168.0391 " fill="none" style="stroke:#181818;stroke-width:1.0;"/><!--SRC=[PL5TQnGn57tFhyXZXg5RksYHFbNRkgNisDBPhIy5oSoaI-fCCcGoAtthJYgeVMX5tTB7WcYHMXz4qBBeZmdxuR_mpdwe82IvoJtdt9jxxtAcgT895r52KwIvZXdsLXyY5rlpt1fZpTck8FCESbtygtiyFByP7Jxhdxwo7LZNky8MxstnmPhkuENXwE8rS2CPPlEFM51ANBpUyEgaF2RF3TgcVgXuge7vzp46_qLjSMMBTzQy8BMSH-m_71ARZzQyjSM5DLVMVB75TuYupVQOOYAS2bpSxvtOpkMWzsPuVTR_T4esKwQebYgR4GQNvuERxl3haUty7FtemLdM1A6xjlXMLbPyXaP0w5ei0ne_tWpsMQXdSXVVKueU03osC-_KNTcNN107qFBoHp89GIPcqfOLtoUm7RJCO13JOQ2jc0hTzEgupLJ6fS0BbUgjQhMoS2TWcYwIfdWYv5E1Gvca7EQcUGA5azfM7MSoLo734S-qua6kGUsWidruEnSbRsdSJDBm7EolpPnuJRIvaY9XGgED7Mz2mkjI-wdKO_BYxRdxN6EVAVWKtl7GAjkZUQn16ig8YzOIRZOUpDr5TIfQEMr18YRGYeG4wW0m_pS0]--></g></svg>