<?xml version="1.0" encoding="UTF-8" standalone="no"?><svg xmlns="http://www.w3.org/2000/svg" xmlns:xlink="http://www.w3.org/1999/xlink" contentStyleType="text/css" height="416px" preserveAspectRatio="none" style="width:363px;height:416px;background:#FFFFFF;" version="1.1" viewBox="0 0 363 416" width="363px" zoomAndPan="magnify"><defs/><g><rect fill="#F1F1F1" height="36.2969" rx="12.5" ry="12.5" style="stroke:#181818;stroke-width:1.5;" width="85" x="10" y="132.5938"/><text fill="#000000" font-family="sans-serif" font-size="14" lengthAdjust="spacing" textLength="65" x="20" y="155.5889">名前空間1</text><rect fill="#F1F1F1" height="36.2969" rx="12.5" ry="12.5" style="stroke:#181818;stroke-width:1.5;" width="71" x="145" y="76.2969"/><text fill="#000000" font-family="sans-serif" font-size="14" lengthAdjust="spacing" textLength="51" x="155" y="99.292">クラス1</text><rect fill="#F1F1F1" height="36.2969" rx="12.5" ry="12.5" style="stroke:#181818;stroke-width:1.5;" width="85" x="266" y="20"/><text fill="#000000" font-family="sans-serif" font-size="14" lengthAdjust="spacing" textLength="65" x="276" y="42.9951">メソッド1</text><path d="M216,94.4453 L226,94.4453 C241,94.4453 241,38.1484 256,38.1484 L266,38.1484 " fill="none" style="stroke:#181818;stroke-width:1.0;"/><rect fill="#F1F1F1" height="36.2969" rx="12.5" ry="12.5" style="stroke:#181818;stroke-width:1.5;" width="84" x="266" y="76.2969"/><text fill="#000000" font-family="sans-serif" font-size="14" lengthAdjust="spacing" textLength="64" x="276" y="99.292">メソッド2</text><path d="M216,94.4453 L226,94.4453 C241,94.4453 241,94.4453 256,94.4453 L266,94.4453 " fill="none" style="stroke:#181818;stroke-width:1.0;"/><rect fill="#F1F1F1" height="36.2969" rx="12.5" ry="12.5" style="stroke:#181818;stroke-width:1.5;" width="85" x="266" y="132.5938"/><text fill="#000000" font-family="sans-serif" font-size="14" lengthAdjust="spacing" textLength="65" x="276" y="155.5889">メソッド3</text><path d="M216,94.4453 L226,94.4453 C241,94.4453 241,150.7422 256,150.7422 L266,150.7422 " fill="none" style="stroke:#181818;stroke-width:1.0;"/><path d="M95,150.7422 L105,150.7422 C120,150.7422 120,94.4453 135,94.4453 L145,94.4453 " fill="none" style="stroke:#181818;stroke-width:1.0;"/><rect fill="#F1F1F1" height="36.2969" rx="12.5" ry="12.5" style="stroke:#181818;stroke-width:1.5;" width="70" x="145" y="217.0391"/><text fill="#000000" font-family="sans-serif" font-size="14" lengthAdjust="spacing" textLength="50" x="155" y="240.0342">クラス2</text><rect fill="#F1F1F1" height="36.2969" rx="12.5" ry="12.5" style="stroke:#181818;stroke-width:1.5;" width="85" x="265" y="188.8906"/><text fill="#000000" font-family="sans-serif" font-size="14" lengthAdjust="spacing" textLength="65" x="275" y="211.8857">メソッド1</text><path d="M215,235.1875 L225,235.1875 C240,235.1875 240,207.0391 255,207.0391 L265,207.0391 " fill="none" style="stroke:#181818;stroke-width:1.0;"/><rect fill="#F1F1F1" height="36.2969" rx="12.5" ry="12.5" style="stroke:#181818;stroke-width:1.5;" width="84" x="265" y="245.1875"/><text fill="#000000" font-family="sans-serif" font-size="14" lengthAdjust="spacing" textLength="64" x="275" y="268.1826">メソッド2</text><path d="M215,235.1875 L225,235.1875 C240,235.1875 240,263.3359 255,263.3359 L265,263.3359 " fill="none" style="stroke:#181818;stroke-width:1.0;"/><path d="M95,150.7422 L105,150.7422 C120,150.7422 120,235.1875 135,235.1875 L145,235.1875 " fill="none" style="stroke:#181818;stroke-width:1.0;"/><rect fill="#F1F1F1" height="36.2969" rx="12.5" ry="12.5" style="stroke:#181818;stroke-width:1.5;" width="84" x="10" y="329.6328"/><text fill="#000000" font-family="sans-serif" font-size="14" lengthAdjust="spacing" textLength="64" x="20" y="352.6279">名前空間2</text><rect fill="#F1F1F1" height="36.2969" rx="12.5" ry="12.5" style="stroke:#181818;stroke-width:1.5;" width="71" x="144" y="301.4844"/><text fill="#000000" font-family="sans-serif" font-size="14" lengthAdjust="spacing" textLength="51" x="154" y="324.4795">クラス1</text><rect fill="#F1F1F1" height="36.2969" rx="12.5" ry="12.5" style="stroke:#181818;stroke-width:1.5;" width="85" x="265" y="301.4844"/><text fill="#000000" font-family="sans-serif" font-size="14" lengthAdjust="spacing" textLength="65" x="275" y="324.4795">メソッド1</text><path d="M215,319.6328 L225,319.6328 C240,319.6328 240,319.6328 255,319.6328 L265,319.6328 " fill="none" style="stroke:#181818;stroke-width:1.0;"/><path d="M94,347.7813 L104,347.7813 C119,347.7813 119,319.6328 134,319.6328 L144,319.6328 " fill="none" style="stroke:#181818;stroke-width:1.0;"/><rect fill="#F1F1F1" height="36.2969" rx="12.5" ry="12.5" style="stroke:#181818;stroke-width:1.5;" width="70" x="144" y="357.7813"/><text fill="#000000" font-family="sans-serif" font-size="14" lengthAdjust="spacing" textLength="50" x="154" y="380.7764">クラス2</text><rect fill="#F1F1F1" height="36.2969" rx="12.5" ry="12.5" style="stroke:#181818;stroke-width:1.5;" width="85" x="264" y="357.7813"/><text fill="#000000" font-family="sans-serif" font-size="14" lengthAdjust="spacing" textLength="65" x="274" y="380.7764">メソッド1</text><path d="M214,375.9297 L224,375.9297 C239,375.9297 239,375.9297 254,375.9297 L264,375.9297 " fill="none" style="stroke:#181818;stroke-width:1.0;"/><path d="M94,347.7813 L104,347.7813 C119,347.7813 119,375.9297 134,375.9297 L144,375.9297 " fill="none" style="stroke:#181818;stroke-width:1.0;"/><!--MD5=[d1ed6d5f5e695ac04ef1898ab483f2fc]
@startmindmap
* 名前空間1
** クラス1
*** メソッド1
*** メソッド2
*** メソッド3
** クラス2
*** メソッド1
*** メソッド2
* 名前空間2
** クラス1
*** メソッド1
** クラス2
*** メソッド1
@endmindmap

PlantUML version 1.2022.10beta1(Unknown compile time)
(GPL source distribution)
Java Runtime: Java(TM) SE Runtime Environment
JVM: Java HotSpot(TM) 64-Bit Server VM
Default Encoding: UTF-8
Language: en
Country: US
--></g></svg>